<ttFont>
    <TTGlyph name="A" xMin="-13" yMin="0" xMax="675" yMax="700">
      <contour>
        <pt x="124" y="52" on="1"/>
        <pt x="219" y="30" on="1"/>
        <pt x="219" y="0" on="0"/>
        <pt x="204" y="0" on="1"/>
        <pt x="201" y="0" on="0"/>
        <pt x="93" y="4" on="1"/>
        <pt x="2" y="0" on="1"/>
        <pt x="-13" y="0" on="0"/>
        <pt x="-13" y="30" on="1"/>
        <pt x="62" y="52" on="1"/>
        <pt x="292" y="700" on="1"/>
        <pt x="368" y="700" on="1"/>
        <pt x="600" y="52" on="1"/>
        <pt x="675" y="30" on="1"/>
        <pt x="675" y="0" on="0"/>
        <pt x="660" y="0" on="1"/>
        <pt x="648" y="0" on="0"/>
        <pt x="561" y="4" on="1"/>
        <pt x="442" y="0" on="1"/>
        <pt x="427" y="0" on="0"/>
        <pt x="427" y="30" on="1"/>
        <pt x="517" y="52" on="1"/>
        <pt x="454" y="229" on="1"/>
        <pt x="179" y="215" on="1"/>
      </contour>
      <contour>
        <pt x="317" y="619" on="1"/>
        <pt x="199" y="273" on="1"/>
        <pt x="439" y="273" on="1"/>
      </contour>
    </TTGlyph>
    <TTGlyph name="AE" xMin="-13" yMin="0" xMax="850" yMax="700">
      <contour>
        <pt x="725" y="555" on="1"/>
        <pt x="725" y="649" on="1"/>
        <pt x="432" y="646" on="1"/>
        <pt x="490" y="382" on="1"/>
        <pt x="772" y="382" on="1"/>
        <pt x="772" y="339" on="1"/>
        <pt x="502" y="325" on="1"/>
        <pt x="561" y="55" on="1"/>
        <pt x="782" y="55" on="1"/>
        <pt x="808" y="149" on="1"/>
        <pt x="808" y="163" on="0"/>
        <pt x="850" y="163" on="1"/>
        <pt x="842" y="12" on="1"/>
        <pt x="841" y="0" on="0"/>
        <pt x="821" y="0" on="1"/>
        <pt x="816" y="0" on="0"/>
        <pt x="525" y="8" on="1"/>
        <pt x="406" y="0" on="1"/>
        <pt x="391" y="0" on="0"/>
        <pt x="391" y="30" on="1"/>
        <pt x="481" y="52" on="1"/>
        <pt x="443" y="229" on="1"/>
        <pt x="192" y="217" on="1"/>
        <pt x="124" y="52" on="1"/>
        <pt x="219" y="30" on="1"/>
        <pt x="219" y="0" on="0"/>
        <pt x="204" y="0" on="1"/>
        <pt x="201" y="0" on="0"/>
        <pt x="93" y="4" on="1"/>
        <pt x="2" y="0" on="1"/>
        <pt x="-13" y="0" on="0"/>
        <pt x="-13" y="30" on="1"/>
        <pt x="62" y="52" on="1"/>
        <pt x="338" y="700" on="1"/>
        <pt x="421" y="696" on="1"/>
        <pt x="760" y="700" on="1"/>
        <pt x="791" y="700" on="0"/>
        <pt x="792" y="690" on="1"/>
        <pt x="768" y="541" on="1"/>
        <pt x="725" y="541" on="0"/>
      </contour>
      <contour>
        <pt x="359" y="622" on="1"/>
        <pt x="215" y="273" on="1"/>
        <pt x="434" y="273" on="1"/>
      </contour>
    </TTGlyph>
    <TTGlyph name="Aacute" xMin="-13" yMin="0" xMax="675" yMax="924">
      <component glyphName="A" x="0" y="0" flags="0x1004"/>
      <component glyphName="acute" x="191" y="244" flags="0x1004"/>
    </TTGlyph>
    <TTGlyph name="Acircumflex" xMin="-13" yMin="0" xMax="675" yMax="929">
      <contour>
        <pt x="124" y="52" on="1"/>
        <pt x="219" y="30" on="1"/>
        <pt x="219" y="0" on="0"/>
        <pt x="204" y="0" on="1"/>
        <pt x="201" y="0" on="0"/>
        <pt x="93" y="4" on="1"/>
        <pt x="2" y="0" on="1"/>
        <pt x="-13" y="0" on="0"/>
        <pt x="-13" y="30" on="1"/>
        <pt x="62" y="52" on="1"/>
        <pt x="292" y="700" on="1"/>
        <pt x="368" y="700" on="1"/>
        <pt x="600" y="52" on="1"/>
        <pt x="675" y="30" on="1"/>
        <pt x="675" y="0" on="0"/>
        <pt x="660" y="0" on="1"/>
        <pt x="648" y="0" on="0"/>
        <pt x="561" y="4" on="1"/>
        <pt x="442" y="0" on="1"/>
        <pt x="427" y="0" on="0"/>
        <pt x="427" y="30" on="1"/>
        <pt x="517" y="52" on="1"/>
        <pt x="454" y="229" on="1"/>
        <pt x="179" y="215" on="1"/>
      </contour>
      <contour>
        <pt x="317" y="619" on="1"/>
        <pt x="199" y="273" on="1"/>
        <pt x="439" y="273" on="1"/>
      </contour>
      <contour>
        <pt x="350" y="855" on="1"/>
        <pt x="253" y="753" on="1"/>
        <pt x="227" y="770" on="1"/>
        <pt x="291" y="861" on="0"/>
        <pt x="327" y="929" on="1"/>
        <pt x="372" y="929" on="1"/>
        <pt x="408" y="861" on="0"/>
        <pt x="472" y="770" on="1"/>
        <pt x="446" y="753" on="1"/>
      </contour>
    </TTGlyph>
    <TTGlyph name="Adieresis" xMin="-13" yMin="0" xMax="675" yMax="903">
      <contour>
        <pt x="124" y="52" on="1"/>
        <pt x="219" y="30" on="1"/>
        <pt x="219" y="0" on="0"/>
        <pt x="204" y="0" on="1"/>
        <pt x="201" y="0" on="0"/>
        <pt x="93" y="4" on="1"/>
        <pt x="2" y="0" on="1"/>
        <pt x="-13" y="0" on="0"/>
        <pt x="-13" y="30" on="1"/>
        <pt x="62" y="52" on="1"/>
        <pt x="292" y="700" on="1"/>
        <pt x="368" y="700" on="1"/>
        <pt x="600" y="52" on="1"/>
        <pt x="675" y="30" on="1"/>
        <pt x="675" y="0" on="0"/>
        <pt x="660" y="0" on="1"/>
        <pt x="648" y="0" on="0"/>
        <pt x="561" y="4" on="1"/>
        <pt x="442" y="0" on="1"/>
        <pt x="427" y="0" on="0"/>
        <pt x="427" y="30" on="1"/>
        <pt x="517" y="52" on="1"/>
        <pt x="454" y="229" on="1"/>
        <pt x="179" y="215" on="1"/>
      </contour>
      <contour>
        <pt x="317" y="619" on="1"/>
        <pt x="199" y="273" on="1"/>
        <pt x="439" y="273" on="1"/>
      </contour>
      <contour>
        <pt x="289" y="903" on="1"/>
        <pt x="320" y="903" on="0"/>
        <pt x="320" y="850" on="1"/>
        <pt x="320" y="815" on="0"/>
        <pt x="314" y="797" on="1"/>
        <pt x="282" y="788" on="0"/>
        <pt x="265" y="788" on="1"/>
        <pt x="233" y="788" on="0"/>
        <pt x="233" y="840" on="1"/>
        <pt x="233" y="875" on="0"/>
        <pt x="240" y="896" on="1"/>
        <pt x="273" y="903" on="0"/>
      </contour>
      <contour>
        <pt x="437" y="903" on="1"/>
        <pt x="468" y="903" on="0"/>
        <pt x="468" y="850" on="1"/>
        <pt x="468" y="815" on="0"/>
        <pt x="462" y="797" on="1"/>
        <pt x="430" y="788" on="0"/>
        <pt x="413" y="788" on="1"/>
        <pt x="381" y="788" on="0"/>
        <pt x="381" y="840" on="1"/>
        <pt x="381" y="875" on="0"/>
        <pt x="388" y="896" on="1"/>
        <pt x="421" y="903" on="0"/>
      </contour>
    </TTGlyph>
    <TTGlyph name="Agrave" xMin="-13" yMin="0" xMax="675" yMax="924">
      <contour>
        <pt x="124" y="52" on="1"/>
        <pt x="219" y="30" on="1"/>
        <pt x="219" y="0" on="0"/>
        <pt x="204" y="0" on="1"/>
        <pt x="201" y="0" on="0"/>
        <pt x="93" y="4" on="1"/>
        <pt x="2" y="0" on="1"/>
        <pt x="-13" y="0" on="0"/>
        <pt x="-13" y="30" on="1"/>
        <pt x="62" y="52" on="1"/>
        <pt x="292" y="700" on="1"/>
        <pt x="368" y="700" on="1"/>
        <pt x="600" y="52" on="1"/>
        <pt x="675" y="30" on="1"/>
        <pt x="675" y="0" on="0"/>
        <pt x="660" y="0" on="1"/>
        <pt x="648" y="0" on="0"/>
        <pt x="561" y="4" on="1"/>
        <pt x="442" y="0" on="1"/>
        <pt x="427" y="0" on="0"/>
        <pt x="427" y="30" on="1"/>
        <pt x="517" y="52" on="1"/>
        <pt x="454" y="229" on="1"/>
        <pt x="179" y="215" on="1"/>
      </contour>
      <contour>
        <pt x="317" y="619" on="1"/>
        <pt x="199" y="273" on="1"/>
        <pt x="439" y="273" on="1"/>
      </contour>
      <contour>
        <pt x="458" y="781" on="1"/>
        <pt x="447" y="762" on="1"/>
        <pt x="321" y="797" on="0"/>
        <pt x="246" y="845" on="1"/>
        <pt x="241" y="848" on="0"/>
        <pt x="241" y="870" on="0"/>
        <pt x="261" y="918" on="0"/>
        <pt x="266" y="924" on="1"/>
        <pt x="358" y="849" on="0"/>
        <pt x="431" y="800" on="1"/>
      </contour>
    </TTGlyph>
    <TTGlyph name="Aring" xMin="-13" yMin="0" xMax="675" yMax="935">
      <component glyphName="A" x="0" y="0" flags="0x1004"/>
      <component glyphName="ring" x="207" y="244" flags="0x1004"/>
    </TTGlyph>
    <TTGlyph name="Atilde" xMin="-13" yMin="0" xMax="675" yMax="895">
      <component glyphName="A" x="0" y="0" flags="0x1004"/>
      <component glyphName="tilde" x="142" y="244" flags="0x1004"/>
    </TTGlyph>
    <TTGlyph name="B" xMin="50" yMin="0" xMax="567" yMax="700">
      <contour>
        <pt x="511" y="529" on="1"/>
        <pt x="511" y="480" on="0"/>
        <pt x="454" y="396" on="0"/>
        <pt x="402" y="374" on="1"/>
        <pt x="482" y="355" on="0"/>
        <pt x="567" y="254" on="0"/>
        <pt x="567" y="192" on="1"/>
        <pt x="567" y="110" on="0"/>
        <pt x="455" y="0" on="0"/>
        <pt x="360" y="0" on="1"/>
        <pt x="353" y="0" on="0"/>
        <pt x="176" y="8" on="1"/>
        <pt x="65" y="0" on="1"/>
        <pt x="50" y="0" on="0"/>
        <pt x="50" y="30" on="1"/>
        <pt x="134" y="52" on="1"/>
        <pt x="134" y="648" on="1"/>
        <pt x="50" y="670" on="1"/>
        <pt x="50" y="700" on="0"/>
        <pt x="65" y="700" on="1"/>
        <pt x="74" y="700" on="0"/>
        <pt x="168" y="696" on="1"/>
        <pt x="290" y="700" on="0"/>
        <pt x="298" y="700" on="1"/>
        <pt x="398" y="700" on="0"/>
        <pt x="511" y="599" on="0"/>
      </contour>
      <contour>
        <pt x="334" y="44" on="1"/>
        <pt x="409" y="44" on="0"/>
        <pt x="487" y="130" on="0"/>
        <pt x="487" y="254" on="0"/>
        <pt x="398" y="348" on="0"/>
        <pt x="316" y="348" on="1"/>
        <pt x="214" y="336" on="1"/>
        <pt x="205" y="58" on="1"/>
        <pt x="279" y="44" on="0"/>
      </contour>
      <contour>
        <pt x="285" y="662" on="1"/>
        <pt x="205" y="648" on="1"/>
        <pt x="214" y="384" on="1"/>
        <pt x="296" y="384" on="1"/>
        <pt x="362" y="390" on="0"/>
        <pt x="436" y="473" on="0"/>
        <pt x="436" y="582" on="0"/>
        <pt x="356" y="662" on="0"/>
      </contour>
    </TTGlyph>
    <TTGlyph name="C" xMin="40" yMin="-12" xMax="592" yMax="712">
      <contour>
        <pt x="592" y="194" on="1"/>
        <pt x="584" y="51" on="1"/>
        <pt x="500" y="-12" on="0"/>
        <pt x="218" y="-12" on="0"/>
        <pt x="40" y="176" on="0"/>
        <pt x="40" y="523" on="0"/>
        <pt x="232" y="712" on="0"/>
        <pt x="379" y="712" on="1"/>
        <pt x="496" y="712" on="0"/>
        <pt x="585" y="652" on="1"/>
        <pt x="559" y="503" on="1"/>
        <pt x="514" y="503" on="0"/>
        <pt x="514" y="517" on="1"/>
        <pt x="514" y="628" on="1"/>
        <pt x="451" y="653" on="0"/>
        <pt x="301" y="653" on="0"/>
        <pt x="229" y="629" on="1"/>
        <pt x="182" y="594" on="0"/>
        <pt x="128" y="446" on="0"/>
        <pt x="128" y="352" on="1"/>
        <pt x="128" y="201" on="0"/>
        <pt x="264" y="41" on="0"/>
        <pt x="373" y="41" on="1"/>
        <pt x="463" y="41" on="0"/>
        <pt x="524" y="78" on="1"/>
        <pt x="547" y="180" on="1"/>
        <pt x="551" y="194" on="0"/>
      </contour>
    </TTGlyph>
    <TTGlyph name="Ccedilla" xMin="30" yMin="-233" xMax="582" yMax="712">
      <contour>
        <pt x="582" y="194" on="1"/>
        <pt x="574" y="51" on="1"/>
        <pt x="490" y="-12" on="0"/>
        <pt x="208" y="-12" on="0"/>
        <pt x="30" y="176" on="0"/>
        <pt x="30" y="523" on="0"/>
        <pt x="222" y="712" on="0"/>
        <pt x="369" y="712" on="1"/>
        <pt x="486" y="712" on="0"/>
        <pt x="575" y="652" on="1"/>
        <pt x="549" y="503" on="1"/>
        <pt x="504" y="503" on="0"/>
        <pt x="504" y="517" on="1"/>
        <pt x="504" y="628" on="1"/>
        <pt x="441" y="653" on="0"/>
        <pt x="291" y="653" on="0"/>
        <pt x="219" y="629" on="1"/>
        <pt x="172" y="594" on="0"/>
        <pt x="118" y="446" on="0"/>
        <pt x="118" y="352" on="1"/>
        <pt x="118" y="201" on="0"/>
        <pt x="254" y="41" on="0"/>
        <pt x="363" y="41" on="1"/>
        <pt x="453" y="41" on="0"/>
        <pt x="514" y="78" on="1"/>
        <pt x="537" y="180" on="1"/>
        <pt x="541" y="194" on="0"/>
      </contour>
      <contour>
        <pt x="266" y="-83" on="1"/>
        <pt x="300" y="0" on="1"/>
        <pt x="332" y="0" on="1"/>
        <pt x="315" y="-56" on="1"/>
        <pt x="360" y="-62" on="0"/>
        <pt x="405" y="-109" on="0"/>
        <pt x="405" y="-177" on="0"/>
        <pt x="347" y="-233" on="0"/>
        <pt x="251" y="-233" on="0"/>
        <pt x="216" y="-202" on="1"/>
        <pt x="235" y="-172" on="1"/>
        <pt x="259" y="-191" on="0"/>
        <pt x="314" y="-191" on="0"/>
        <pt x="342" y="-162" on="0"/>
        <pt x="342" y="-119" on="0"/>
        <pt x="303" y="-84" on="0"/>
      </contour>
    </TTGlyph>
    <TTGlyph name="D" xMin="50" yMin="-6" xMax="708" yMax="712">
      <contour>
        <pt x="134" y="648" on="1"/>
        <pt x="50" y="670" on="1"/>
        <pt x="50" y="700" on="0"/>
        <pt x="65" y="700" on="1"/>
        <pt x="82" y="700" on="0"/>
        <pt x="176" y="696" on="1"/>
        <pt x="380" y="712" on="1"/>
        <pt x="523" y="712" on="0"/>
        <pt x="708" y="531" on="0"/>
        <pt x="708" y="180" on="0"/>
        <pt x="521" y="-6" on="0"/>
        <pt x="364" y="-6" on="1"/>
        <pt x="176" y="8" on="1"/>
        <pt x="65" y="0" on="1"/>
        <pt x="50" y="0" on="0"/>
        <pt x="50" y="30" on="1"/>
        <pt x="134" y="52" on="1"/>
      </contour>
      <contour>
        <pt x="374" y="41" on="1"/>
        <pt x="484" y="41" on="0"/>
        <pt x="620" y="199" on="0"/>
        <pt x="620" y="500" on="0"/>
        <pt x="484" y="658" on="0"/>
        <pt x="374" y="658" on="1"/>
        <pt x="288" y="658" on="0"/>
        <pt x="208" y="639" on="1"/>
        <pt x="218" y="350" on="1"/>
        <pt x="208" y="61" on="1"/>
        <pt x="298" y="41" on="0"/>
      </contour>
    </TTGlyph>
    <TTGlyph name="Delta" xMin="40" yMin="0" xMax="613" yMax="700">
      <contour>
        <pt x="288" y="700" on="1"/>
        <pt x="364" y="700" on="1"/>
        <pt x="613" y="0" on="1"/>
        <pt x="40" y="0" on="1"/>
      </contour>
      <contour>
        <pt x="313" y="619" on="1"/>
        <pt x="121" y="58" on="1"/>
        <pt x="510" y="58" on="1"/>
      </contour>
    </TTGlyph>
    <TTGlyph name="E" xMin="50" yMin="0" xMax="551" yMax="700">
      <contour>
        <pt x="473" y="555" on="1"/>
        <pt x="473" y="649" on="1"/>
        <pt x="208" y="646" on="1"/>
        <pt x="217" y="382" on="1"/>
        <pt x="473" y="382" on="1"/>
        <pt x="473" y="339" on="1"/>
        <pt x="217" y="326" on="1"/>
        <pt x="208" y="55" on="1"/>
        <pt x="483" y="55" on="1"/>
        <pt x="509" y="149" on="1"/>
        <pt x="509" y="163" on="0"/>
        <pt x="551" y="163" on="1"/>
        <pt x="543" y="12" on="1"/>
        <pt x="542" y="0" on="0"/>
        <pt x="514" y="0" on="1"/>
        <pt x="170" y="8" on="1"/>
        <pt x="65" y="0" on="1"/>
        <pt x="50" y="0" on="0"/>
        <pt x="50" y="30" on="1"/>
        <pt x="134" y="52" on="1"/>
        <pt x="134" y="648" on="1"/>
        <pt x="50" y="670" on="1"/>
        <pt x="50" y="700" on="0"/>
        <pt x="65" y="700" on="1"/>
        <pt x="74" y="700" on="0"/>
        <pt x="168" y="696" on="1"/>
        <pt x="508" y="700" on="1"/>
        <pt x="539" y="700" on="0"/>
        <pt x="540" y="690" on="1"/>
        <pt x="516" y="541" on="1"/>
        <pt x="473" y="541" on="0"/>
      </contour>
    </TTGlyph>
    <TTGlyph name="Eacute" xMin="40" yMin="0" xMax="541" yMax="924">
      <contour>
        <pt x="463" y="555" on="1"/>
        <pt x="463" y="649" on="1"/>
        <pt x="198" y="646" on="1"/>
        <pt x="207" y="382" on="1"/>
        <pt x="463" y="382" on="1"/>
        <pt x="463" y="339" on="1"/>
        <pt x="207" y="326" on="1"/>
        <pt x="198" y="55" on="1"/>
        <pt x="473" y="55" on="1"/>
        <pt x="499" y="149" on="1"/>
        <pt x="499" y="163" on="0"/>
        <pt x="541" y="163" on="1"/>
        <pt x="533" y="12" on="1"/>
        <pt x="532" y="0" on="0"/>
        <pt x="504" y="0" on="1"/>
        <pt x="160" y="8" on="1"/>
        <pt x="55" y="0" on="1"/>
        <pt x="40" y="0" on="0"/>
        <pt x="40" y="30" on="1"/>
        <pt x="124" y="52" on="1"/>
        <pt x="124" y="648" on="1"/>
        <pt x="40" y="670" on="1"/>
        <pt x="40" y="700" on="0"/>
        <pt x="55" y="700" on="1"/>
        <pt x="64" y="700" on="0"/>
        <pt x="158" y="696" on="1"/>
        <pt x="498" y="700" on="1"/>
        <pt x="529" y="700" on="0"/>
        <pt x="530" y="690" on="1"/>
        <pt x="506" y="541" on="1"/>
        <pt x="463" y="541" on="0"/>
      </contour>
      <contour>
        <pt x="193" y="762" on="1"/>
        <pt x="182" y="781" on="1"/>
        <pt x="279" y="847" on="0"/>
        <pt x="374" y="924" on="1"/>
        <pt x="379" y="918" on="0"/>
        <pt x="399" y="870" on="0"/>
        <pt x="399" y="848" on="0"/>
        <pt x="394" y="845" on="1"/>
        <pt x="319" y="797" on="0"/>
      </contour>
    </TTGlyph>
    <TTGlyph name="Ecircumflex" xMin="40" yMin="0" xMax="541" yMax="929">
      <contour>
        <pt x="463" y="555" on="1"/>
        <pt x="463" y="649" on="1"/>
        <pt x="198" y="646" on="1"/>
        <pt x="207" y="382" on="1"/>
        <pt x="463" y="382" on="1"/>
        <pt x="463" y="339" on="1"/>
        <pt x="207" y="326" on="1"/>
        <pt x="198" y="55" on="1"/>
        <pt x="473" y="55" on="1"/>
        <pt x="499" y="149" on="1"/>
        <pt x="499" y="163" on="0"/>
        <pt x="541" y="163" on="1"/>
        <pt x="533" y="12" on="1"/>
        <pt x="532" y="0" on="0"/>
        <pt x="504" y="0" on="1"/>
        <pt x="160" y="8" on="1"/>
        <pt x="55" y="0" on="1"/>
        <pt x="40" y="0" on="0"/>
        <pt x="40" y="30" on="1"/>
        <pt x="124" y="52" on="1"/>
        <pt x="124" y="648" on="1"/>
        <pt x="40" y="670" on="1"/>
        <pt x="40" y="700" on="0"/>
        <pt x="55" y="700" on="1"/>
        <pt x="64" y="700" on="0"/>
        <pt x="158" y="696" on="1"/>
        <pt x="498" y="700" on="1"/>
        <pt x="529" y="700" on="0"/>
        <pt x="530" y="690" on="1"/>
        <pt x="506" y="541" on="1"/>
        <pt x="463" y="541" on="0"/>
      </contour>
      <contour>
        <pt x="291" y="855" on="1"/>
        <pt x="194" y="753" on="1"/>
        <pt x="168" y="770" on="1"/>
        <pt x="232" y="861" on="0"/>
        <pt x="268" y="929" on="1"/>
        <pt x="313" y="929" on="1"/>
        <pt x="349" y="861" on="0"/>
        <pt x="413" y="770" on="1"/>
        <pt x="387" y="753" on="1"/>
      </contour>
    </TTGlyph>
    <TTGlyph name="Edieresis" xMin="40" yMin="0" xMax="541" yMax="903">
      <contour>
        <pt x="463" y="555" on="1"/>
        <pt x="463" y="649" on="1"/>
        <pt x="198" y="646" on="1"/>
        <pt x="207" y="382" on="1"/>
        <pt x="463" y="382" on="1"/>
        <pt x="463" y="339" on="1"/>
        <pt x="207" y="326" on="1"/>
        <pt x="198" y="55" on="1"/>
        <pt x="473" y="55" on="1"/>
        <pt x="499" y="149" on="1"/>
        <pt x="499" y="163" on="0"/>
        <pt x="541" y="163" on="1"/>
        <pt x="533" y="12" on="1"/>
        <pt x="532" y="0" on="0"/>
        <pt x="504" y="0" on="1"/>
        <pt x="160" y="8" on="1"/>
        <pt x="55" y="0" on="1"/>
        <pt x="40" y="0" on="0"/>
        <pt x="40" y="30" on="1"/>
        <pt x="124" y="52" on="1"/>
        <pt x="124" y="648" on="1"/>
        <pt x="40" y="670" on="1"/>
        <pt x="40" y="700" on="0"/>
        <pt x="55" y="700" on="1"/>
        <pt x="64" y="700" on="0"/>
        <pt x="158" y="696" on="1"/>
        <pt x="498" y="700" on="1"/>
        <pt x="529" y="700" on="0"/>
        <pt x="530" y="690" on="1"/>
        <pt x="506" y="541" on="1"/>
        <pt x="463" y="541" on="0"/>
      </contour>
      <contour>
        <pt x="229" y="903" on="1"/>
        <pt x="260" y="903" on="0"/>
        <pt x="260" y="850" on="1"/>
        <pt x="260" y="815" on="0"/>
        <pt x="254" y="797" on="1"/>
        <pt x="222" y="788" on="0"/>
        <pt x="205" y="788" on="1"/>
        <pt x="173" y="788" on="0"/>
        <pt x="173" y="840" on="1"/>
        <pt x="173" y="875" on="0"/>
        <pt x="180" y="896" on="1"/>
        <pt x="213" y="903" on="0"/>
      </contour>
      <contour>
        <pt x="377" y="903" on="1"/>
        <pt x="408" y="903" on="0"/>
        <pt x="408" y="850" on="1"/>
        <pt x="408" y="815" on="0"/>
        <pt x="402" y="797" on="1"/>
        <pt x="370" y="788" on="0"/>
        <pt x="353" y="788" on="1"/>
        <pt x="321" y="788" on="0"/>
        <pt x="321" y="840" on="1"/>
        <pt x="321" y="875" on="0"/>
        <pt x="328" y="896" on="1"/>
        <pt x="361" y="903" on="0"/>
      </contour>
    </TTGlyph>
    <TTGlyph name="Egrave" xMin="40" yMin="0" xMax="541" yMax="924">
      <contour>
        <pt x="463" y="555" on="1"/>
        <pt x="463" y="649" on="1"/>
        <pt x="198" y="646" on="1"/>
        <pt x="207" y="382" on="1"/>
        <pt x="463" y="382" on="1"/>
        <pt x="463" y="339" on="1"/>
        <pt x="207" y="326" on="1"/>
        <pt x="198" y="55" on="1"/>
        <pt x="473" y="55" on="1"/>
        <pt x="499" y="149" on="1"/>
        <pt x="499" y="163" on="0"/>
        <pt x="541" y="163" on="1"/>
        <pt x="533" y="12" on="1"/>
        <pt x="532" y="0" on="0"/>
        <pt x="504" y="0" on="1"/>
        <pt x="160" y="8" on="1"/>
        <pt x="55" y="0" on="1"/>
        <pt x="40" y="0" on="0"/>
        <pt x="40" y="30" on="1"/>
        <pt x="124" y="52" on="1"/>
        <pt x="124" y="648" on="1"/>
        <pt x="40" y="670" on="1"/>
        <pt x="40" y="700" on="0"/>
        <pt x="55" y="700" on="1"/>
        <pt x="64" y="700" on="0"/>
        <pt x="158" y="696" on="1"/>
        <pt x="498" y="700" on="1"/>
        <pt x="529" y="700" on="0"/>
        <pt x="530" y="690" on="1"/>
        <pt x="506" y="541" on="1"/>
        <pt x="463" y="541" on="0"/>
      </contour>
      <contour>
        <pt x="399" y="781" on="1"/>
        <pt x="388" y="762" on="1"/>
        <pt x="262" y="797" on="0"/>
        <pt x="187" y="845" on="1"/>
        <pt x="182" y="848" on="0"/>
        <pt x="182" y="870" on="0"/>
        <pt x="202" y="918" on="0"/>
        <pt x="207" y="924" on="1"/>
        <pt x="299" y="849" on="0"/>
        <pt x="372" y="800" on="1"/>
      </contour>
    </TTGlyph>
    <TTGlyph name="Eth" xMin="50" yMin="-6" xMax="708" yMax="712">
      <contour>
        <pt x="67" y="324" on="1"/>
        <pt x="67" y="382" on="1"/>
        <pt x="403" y="382" on="1"/>
        <pt x="403" y="339" on="1"/>
      </contour>
      <contour>
        <pt x="134" y="648" on="1"/>
        <pt x="50" y="670" on="1"/>
        <pt x="50" y="700" on="0"/>
        <pt x="65" y="700" on="1"/>
        <pt x="82" y="700" on="0"/>
        <pt x="176" y="696" on="1"/>
        <pt x="380" y="712" on="1"/>
        <pt x="523" y="712" on="0"/>
        <pt x="708" y="531" on="0"/>
        <pt x="708" y="180" on="0"/>
        <pt x="521" y="-6" on="0"/>
        <pt x="364" y="-6" on="1"/>
        <pt x="176" y="8" on="1"/>
        <pt x="65" y="0" on="1"/>
        <pt x="50" y="0" on="0"/>
        <pt x="50" y="30" on="1"/>
        <pt x="134" y="52" on="1"/>
      </contour>
      <contour>
        <pt x="374" y="41" on="1"/>
        <pt x="484" y="41" on="0"/>
        <pt x="620" y="199" on="0"/>
        <pt x="620" y="500" on="0"/>
        <pt x="484" y="658" on="0"/>
        <pt x="374" y="658" on="1"/>
        <pt x="288" y="658" on="0"/>
        <pt x="208" y="639" on="1"/>
        <pt x="218" y="350" on="1"/>
        <pt x="208" y="61" on="1"/>
        <pt x="298" y="41" on="0"/>
      </contour>
    </TTGlyph>
    <TTGlyph name="Euro" xMin="39" yMin="-12" xMax="465" yMax="563">
      <contour>
        <pt x="325" y="251" on="1"/>
        <pt x="325" y="214" on="1"/>
        <pt x="178" y="214" on="1"/>
        <pt x="194" y="37" on="0"/>
        <pt x="309" y="37" on="1"/>
        <pt x="354" y="37" on="0"/>
        <pt x="398" y="64" on="1"/>
        <pt x="394" y="137" on="1"/>
        <pt x="394" y="145" on="0"/>
        <pt x="424" y="153" on="0"/>
        <pt x="434" y="153" on="1"/>
        <pt x="441" y="124" on="1"/>
        <pt x="460" y="46" on="0"/>
        <pt x="463" y="27" on="1"/>
        <pt x="390" y="-12" on="0"/>
        <pt x="219" y="-12" on="0"/>
        <pt x="109" y="103" on="0"/>
        <pt x="96" y="214" on="1"/>
        <pt x="39" y="214" on="1"/>
        <pt x="39" y="251" on="1"/>
        <pt x="93" y="251" on="1"/>
        <pt x="93" y="298" on="1"/>
        <pt x="39" y="298" on="1"/>
        <pt x="39" y="335" on="1"/>
        <pt x="96" y="335" on="1"/>
        <pt x="110" y="443" on="0"/>
        <pt x="229" y="563" on="0"/>
        <pt x="397" y="563" on="0"/>
        <pt x="465" y="524" on="1"/>
        <pt x="462" y="505" on="0"/>
        <pt x="443" y="426" on="1"/>
        <pt x="436" y="398" on="1"/>
        <pt x="426" y="398" on="0"/>
        <pt x="396" y="406" on="0"/>
        <pt x="396" y="414" on="1"/>
        <pt x="400" y="487" on="1"/>
        <pt x="363" y="513" on="0"/>
        <pt x="309" y="513" on="1"/>
        <pt x="194" y="513" on="0"/>
        <pt x="178" y="335" on="1"/>
        <pt x="325" y="335" on="1"/>
        <pt x="325" y="298" on="1"/>
        <pt x="176" y="298" on="1"/>
        <pt x="176" y="251" on="1"/>
      </contour>
    </TTGlyph>
    <TTGlyph name="F" xMin="50" yMin="0" xMax="510" yMax="700">
      <contour>
        <pt x="443" y="555" on="1"/>
        <pt x="443" y="649" on="1"/>
        <pt x="208" y="646" on="1"/>
        <pt x="217" y="367" on="1"/>
        <pt x="463" y="366" on="1"/>
        <pt x="463" y="323" on="1"/>
        <pt x="216" y="310" on="1"/>
        <pt x="208" y="52" on="1"/>
        <pt x="319" y="30" on="1"/>
        <pt x="319" y="0" on="0"/>
        <pt x="304" y="0" on="1"/>
        <pt x="261" y="0" on="0"/>
        <pt x="168" y="4" on="1"/>
        <pt x="65" y="0" on="1"/>
        <pt x="50" y="0" on="0"/>
        <pt x="50" y="30" on="1"/>
        <pt x="134" y="52" on="1"/>
        <pt x="134" y="648" on="1"/>
        <pt x="50" y="670" on="1"/>
        <pt x="50" y="700" on="0"/>
        <pt x="65" y="700" on="1"/>
        <pt x="74" y="700" on="0"/>
        <pt x="168" y="696" on="1"/>
        <pt x="478" y="700" on="1"/>
        <pt x="509" y="700" on="0"/>
        <pt x="510" y="690" on="1"/>
        <pt x="486" y="541" on="1"/>
        <pt x="443" y="541" on="0"/>
      </contour>
    </TTGlyph>
    <TTGlyph name="G" xMin="40" yMin="-12" xMax="605" yMax="712">
      <contour>
        <pt x="596" y="111" on="1"/>
        <pt x="605" y="72" on="1"/>
        <pt x="488" y="-12" on="0"/>
        <pt x="213" y="-12" on="0"/>
        <pt x="40" y="176" on="0"/>
        <pt x="40" y="523" on="0"/>
        <pt x="232" y="712" on="0"/>
        <pt x="379" y="712" on="1"/>
        <pt x="505" y="712" on="0"/>
        <pt x="600" y="652" on="1"/>
        <pt x="574" y="503" on="1"/>
        <pt x="529" y="503" on="0"/>
        <pt x="529" y="517" on="1"/>
        <pt x="529" y="628" on="1"/>
        <pt x="458" y="653" on="0"/>
        <pt x="301" y="653" on="0"/>
        <pt x="229" y="629" on="1"/>
        <pt x="182" y="594" on="0"/>
        <pt x="128" y="446" on="0"/>
        <pt x="128" y="352" on="1"/>
        <pt x="128" y="201" on="0"/>
        <pt x="259" y="41" on="0"/>
        <pt x="363" y="41" on="1"/>
        <pt x="408" y="41" on="0"/>
        <pt x="503" y="72" on="0"/>
        <pt x="536" y="97" on="1"/>
        <pt x="519" y="306" on="1"/>
        <pt x="334" y="317" on="1"/>
        <pt x="334" y="360" on="1"/>
        <pt x="596" y="360" on="1"/>
      </contour>
    </TTGlyph>
    <TTGlyph name="H" xMin="50" yMin="0" xMax="739" yMax="700">
      <contour>
        <pt x="739" y="670" on="1"/>
        <pt x="655" y="648" on="1"/>
        <pt x="655" y="52" on="1"/>
        <pt x="739" y="30" on="1"/>
        <pt x="739" y="0" on="0"/>
        <pt x="724" y="0" on="1"/>
        <pt x="715" y="0" on="0"/>
        <pt x="621" y="4" on="1"/>
        <pt x="516" y="0" on="1"/>
        <pt x="501" y="0" on="0"/>
        <pt x="501" y="30" on="1"/>
        <pt x="581" y="52" on="1"/>
        <pt x="571" y="340" on="1"/>
        <pt x="217" y="326" on="1"/>
        <pt x="208" y="52" on="1"/>
        <pt x="288" y="30" on="1"/>
        <pt x="288" y="0" on="0"/>
        <pt x="273" y="0" on="1"/>
        <pt x="261" y="0" on="0"/>
        <pt x="168" y="4" on="1"/>
        <pt x="65" y="0" on="1"/>
        <pt x="50" y="0" on="0"/>
        <pt x="50" y="30" on="1"/>
        <pt x="134" y="52" on="1"/>
        <pt x="134" y="648" on="1"/>
        <pt x="50" y="670" on="1"/>
        <pt x="50" y="700" on="0"/>
        <pt x="65" y="700" on="1"/>
        <pt x="74" y="700" on="0"/>
        <pt x="168" y="696" on="1"/>
        <pt x="273" y="700" on="1"/>
        <pt x="288" y="700" on="0"/>
        <pt x="288" y="670" on="1"/>
        <pt x="208" y="648" on="1"/>
        <pt x="217" y="384" on="1"/>
        <pt x="572" y="384" on="1"/>
        <pt x="581" y="648" on="1"/>
        <pt x="501" y="670" on="1"/>
        <pt x="501" y="700" on="0"/>
        <pt x="516" y="700" on="1"/>
        <pt x="528" y="700" on="0"/>
        <pt x="621" y="696" on="1"/>
        <pt x="724" y="700" on="1"/>
        <pt x="739" y="700" on="0"/>
      </contour>
    </TTGlyph>
    <TTGlyph name="I" xMin="50" yMin="0" xMax="295" yMax="700">
      <contour>
        <pt x="136" y="648" on="1"/>
        <pt x="50" y="670" on="1"/>
        <pt x="50" y="700" on="0"/>
        <pt x="65" y="700" on="1"/>
        <pt x="83" y="700" on="0"/>
        <pt x="177" y="696" on="1"/>
        <pt x="280" y="700" on="1"/>
        <pt x="295" y="700" on="0"/>
        <pt x="295" y="670" on="1"/>
        <pt x="209" y="648" on="1"/>
        <pt x="214" y="350" on="1"/>
        <pt x="209" y="52" on="1"/>
        <pt x="295" y="30" on="1"/>
        <pt x="295" y="0" on="0"/>
        <pt x="280" y="0" on="1"/>
        <pt x="270" y="0" on="0"/>
        <pt x="177" y="4" on="1"/>
        <pt x="65" y="0" on="1"/>
        <pt x="50" y="0" on="0"/>
        <pt x="50" y="30" on="1"/>
        <pt x="136" y="52" on="1"/>
        <pt x="131" y="350" on="1"/>
      </contour>
    </TTGlyph>
    <TTGlyph name="Iacute" xMin="39" yMin="0" xMax="284" yMax="924">
      <contour>
        <pt x="125" y="648" on="1"/>
        <pt x="39" y="670" on="1"/>
        <pt x="39" y="700" on="0"/>
        <pt x="54" y="700" on="1"/>
        <pt x="72" y="700" on="0"/>
        <pt x="166" y="696" on="1"/>
        <pt x="269" y="700" on="1"/>
        <pt x="284" y="700" on="0"/>
        <pt x="284" y="670" on="1"/>
        <pt x="198" y="648" on="1"/>
        <pt x="203" y="350" on="1"/>
        <pt x="198" y="52" on="1"/>
        <pt x="284" y="30" on="1"/>
        <pt x="284" y="0" on="0"/>
        <pt x="269" y="0" on="1"/>
        <pt x="259" y="0" on="0"/>
        <pt x="166" y="4" on="1"/>
        <pt x="54" y="0" on="1"/>
        <pt x="39" y="0" on="0"/>
        <pt x="39" y="30" on="1"/>
        <pt x="125" y="52" on="1"/>
        <pt x="120" y="350" on="1"/>
      </contour>
      <contour>
        <pt x="66" y="762" on="1"/>
        <pt x="55" y="781" on="1"/>
        <pt x="152" y="847" on="0"/>
        <pt x="247" y="924" on="1"/>
        <pt x="252" y="918" on="0"/>
        <pt x="272" y="870" on="0"/>
        <pt x="272" y="848" on="0"/>
        <pt x="267" y="845" on="1"/>
        <pt x="192" y="797" on="0"/>
      </contour>
    </TTGlyph>
    <TTGlyph name="Icircumflex" xMin="39" yMin="0" xMax="286" yMax="929">
      <contour>
        <pt x="125" y="648" on="1"/>
        <pt x="39" y="670" on="1"/>
        <pt x="39" y="700" on="0"/>
        <pt x="54" y="700" on="1"/>
        <pt x="72" y="700" on="0"/>
        <pt x="166" y="696" on="1"/>
        <pt x="269" y="700" on="1"/>
        <pt x="284" y="700" on="0"/>
        <pt x="284" y="670" on="1"/>
        <pt x="198" y="648" on="1"/>
        <pt x="203" y="350" on="1"/>
        <pt x="198" y="52" on="1"/>
        <pt x="284" y="30" on="1"/>
        <pt x="284" y="0" on="0"/>
        <pt x="269" y="0" on="1"/>
        <pt x="259" y="0" on="0"/>
        <pt x="166" y="4" on="1"/>
        <pt x="54" y="0" on="1"/>
        <pt x="39" y="0" on="0"/>
        <pt x="39" y="30" on="1"/>
        <pt x="125" y="52" on="1"/>
        <pt x="120" y="350" on="1"/>
      </contour>
      <contour>
        <pt x="164" y="855" on="1"/>
        <pt x="67" y="753" on="1"/>
        <pt x="41" y="770" on="1"/>
        <pt x="105" y="861" on="0"/>
        <pt x="141" y="929" on="1"/>
        <pt x="186" y="929" on="1"/>
        <pt x="222" y="861" on="0"/>
        <pt x="286" y="770" on="1"/>
        <pt x="260" y="753" on="1"/>
      </contour>
    </TTGlyph>
    <TTGlyph name="Idieresis" xMin="39" yMin="0" xMax="284" yMax="903">
      <contour>
        <pt x="125" y="648" on="1"/>
        <pt x="39" y="670" on="1"/>
        <pt x="39" y="700" on="0"/>
        <pt x="54" y="700" on="1"/>
        <pt x="72" y="700" on="0"/>
        <pt x="166" y="696" on="1"/>
        <pt x="269" y="700" on="1"/>
        <pt x="284" y="700" on="0"/>
        <pt x="284" y="670" on="1"/>
        <pt x="198" y="648" on="1"/>
        <pt x="203" y="350" on="1"/>
        <pt x="198" y="52" on="1"/>
        <pt x="284" y="30" on="1"/>
        <pt x="284" y="0" on="0"/>
        <pt x="269" y="0" on="1"/>
        <pt x="259" y="0" on="0"/>
        <pt x="166" y="4" on="1"/>
        <pt x="54" y="0" on="1"/>
        <pt x="39" y="0" on="0"/>
        <pt x="39" y="30" on="1"/>
        <pt x="125" y="52" on="1"/>
        <pt x="120" y="350" on="1"/>
      </contour>
      <contour>
        <pt x="102" y="903" on="1"/>
        <pt x="133" y="903" on="0"/>
        <pt x="133" y="850" on="1"/>
        <pt x="133" y="815" on="0"/>
        <pt x="127" y="797" on="1"/>
        <pt x="95" y="788" on="0"/>
        <pt x="78" y="788" on="1"/>
        <pt x="46" y="788" on="0"/>
        <pt x="46" y="840" on="1"/>
        <pt x="46" y="875" on="0"/>
        <pt x="53" y="896" on="1"/>
        <pt x="86" y="903" on="0"/>
      </contour>
      <contour>
        <pt x="250" y="903" on="1"/>
        <pt x="281" y="903" on="0"/>
        <pt x="281" y="850" on="1"/>
        <pt x="281" y="815" on="0"/>
        <pt x="275" y="797" on="1"/>
        <pt x="243" y="788" on="0"/>
        <pt x="226" y="788" on="1"/>
        <pt x="194" y="788" on="0"/>
        <pt x="194" y="840" on="1"/>
        <pt x="194" y="875" on="0"/>
        <pt x="201" y="896" on="1"/>
        <pt x="234" y="903" on="0"/>
      </contour>
    </TTGlyph>
    <TTGlyph name="Igrave" xMin="39" yMin="0" xMax="284" yMax="924">
      <contour>
        <pt x="125" y="648" on="1"/>
        <pt x="39" y="670" on="1"/>
        <pt x="39" y="700" on="0"/>
        <pt x="54" y="700" on="1"/>
        <pt x="72" y="700" on="0"/>
        <pt x="166" y="696" on="1"/>
        <pt x="269" y="700" on="1"/>
        <pt x="284" y="700" on="0"/>
        <pt x="284" y="670" on="1"/>
        <pt x="198" y="648" on="1"/>
        <pt x="203" y="350" on="1"/>
        <pt x="198" y="52" on="1"/>
        <pt x="284" y="30" on="1"/>
        <pt x="284" y="0" on="0"/>
        <pt x="269" y="0" on="1"/>
        <pt x="259" y="0" on="0"/>
        <pt x="166" y="4" on="1"/>
        <pt x="54" y="0" on="1"/>
        <pt x="39" y="0" on="0"/>
        <pt x="39" y="30" on="1"/>
        <pt x="125" y="52" on="1"/>
        <pt x="120" y="350" on="1"/>
      </contour>
      <contour>
        <pt x="272" y="781" on="1"/>
        <pt x="261" y="762" on="1"/>
        <pt x="135" y="797" on="0"/>
        <pt x="60" y="845" on="1"/>
        <pt x="55" y="848" on="0"/>
        <pt x="55" y="870" on="0"/>
        <pt x="75" y="918" on="0"/>
        <pt x="80" y="924" on="1"/>
        <pt x="172" y="849" on="0"/>
        <pt x="245" y="800" on="1"/>
      </contour>
    </TTGlyph>
    <TTGlyph name="J" xMin="-4" yMin="-204" xMax="296" yMax="700">
      <contour>
        <pt x="133" y="159" on="1"/>
        <pt x="133" y="648" on="1"/>
        <pt x="38" y="670" on="1"/>
        <pt x="38" y="700" on="0"/>
        <pt x="54" y="700" on="1"/>
        <pt x="77" y="700" on="0"/>
        <pt x="170" y="696" on="1"/>
        <pt x="281" y="700" on="1"/>
        <pt x="296" y="700" on="0"/>
        <pt x="296" y="669" on="1"/>
        <pt x="212" y="648" on="1"/>
        <pt x="212" y="186" on="1"/>
        <pt x="212" y="2" on="0"/>
        <pt x="26" y="-204" on="1"/>
        <pt x="-4" y="-183" on="1"/>
        <pt x="133" y="-3" on="0"/>
      </contour>
    </TTGlyph>
    <TTGlyph name="K" xMin="50" yMin="0" xMax="652" yMax="700">
      <contour>
        <pt x="414" y="700" on="1"/>
        <pt x="495" y="696" on="1"/>
        <pt x="590" y="700" on="1"/>
        <pt x="604" y="700" on="0"/>
        <pt x="604" y="670" on="1"/>
        <pt x="537" y="648" on="1"/>
        <pt x="371" y="357" on="1"/>
        <pt x="401" y="344" on="0"/>
        <pt x="427" y="299" on="1"/>
        <pt x="572" y="52" on="1"/>
        <pt x="652" y="30" on="1"/>
        <pt x="652" y="0" on="0"/>
        <pt x="637" y="0" on="1"/>
        <pt x="506" y="0" on="1"/>
        <pt x="345" y="295" on="1"/>
        <pt x="330" y="324" on="0"/>
        <pt x="315" y="336" on="1"/>
        <pt x="217" y="324" on="1"/>
        <pt x="208" y="52" on="1"/>
        <pt x="309" y="30" on="1"/>
        <pt x="309" y="0" on="0"/>
        <pt x="294" y="0" on="1"/>
        <pt x="261" y="0" on="0"/>
        <pt x="168" y="4" on="1"/>
        <pt x="65" y="0" on="1"/>
        <pt x="50" y="0" on="0"/>
        <pt x="50" y="30" on="1"/>
        <pt x="134" y="52" on="1"/>
        <pt x="134" y="648" on="1"/>
        <pt x="50" y="670" on="1"/>
        <pt x="50" y="700" on="0"/>
        <pt x="65" y="700" on="1"/>
        <pt x="74" y="700" on="0"/>
        <pt x="168" y="696" on="1"/>
        <pt x="273" y="700" on="1"/>
        <pt x="288" y="700" on="0"/>
        <pt x="288" y="670" on="1"/>
        <pt x="208" y="648" on="1"/>
        <pt x="217" y="372" on="1"/>
        <pt x="331" y="372" on="1"/>
        <pt x="471" y="650" on="1"/>
        <pt x="399" y="670" on="1"/>
        <pt x="399" y="700" on="0"/>
      </contour>
    </TTGlyph>
    <TTGlyph name="L" xMin="49" yMin="0" xMax="511" yMax="700">
      <contour>
        <pt x="135" y="648" on="1"/>
        <pt x="49" y="670" on="1"/>
        <pt x="49" y="700" on="0"/>
        <pt x="64" y="700" on="1"/>
        <pt x="82" y="700" on="0"/>
        <pt x="176" y="696" on="1"/>
        <pt x="279" y="700" on="1"/>
        <pt x="294" y="700" on="0"/>
        <pt x="294" y="670" on="1"/>
        <pt x="208" y="648" on="1"/>
        <pt x="213" y="350" on="1"/>
        <pt x="208" y="55" on="1"/>
        <pt x="443" y="55" on="1"/>
        <pt x="469" y="149" on="1"/>
        <pt x="473" y="163" on="0"/>
        <pt x="511" y="163" on="1"/>
        <pt x="503" y="12" on="1"/>
        <pt x="502" y="0" on="0"/>
        <pt x="474" y="0" on="1"/>
        <pt x="176" y="8" on="1"/>
        <pt x="64" y="0" on="1"/>
        <pt x="49" y="0" on="0"/>
        <pt x="49" y="30" on="1"/>
        <pt x="135" y="52" on="1"/>
        <pt x="130" y="350" on="1"/>
      </contour>
    </TTGlyph>
    <TTGlyph name="Lslash" xMin="27" yMin="0" xMax="511" yMax="700">
      <contour>
        <pt x="53" y="280" on="1"/>
        <pt x="27" y="332" on="1"/>
        <pt x="297" y="469" on="1"/>
        <pt x="316" y="431" on="1"/>
      </contour>
      <contour>
        <pt x="135" y="648" on="1"/>
        <pt x="49" y="670" on="1"/>
        <pt x="49" y="700" on="0"/>
        <pt x="64" y="700" on="1"/>
        <pt x="82" y="700" on="0"/>
        <pt x="176" y="696" on="1"/>
        <pt x="279" y="700" on="1"/>
        <pt x="294" y="700" on="0"/>
        <pt x="294" y="670" on="1"/>
        <pt x="208" y="648" on="1"/>
        <pt x="213" y="350" on="1"/>
        <pt x="208" y="55" on="1"/>
        <pt x="443" y="55" on="1"/>
        <pt x="469" y="149" on="1"/>
        <pt x="473" y="163" on="0"/>
        <pt x="511" y="163" on="1"/>
        <pt x="503" y="12" on="1"/>
        <pt x="502" y="0" on="0"/>
        <pt x="474" y="0" on="1"/>
        <pt x="176" y="8" on="1"/>
        <pt x="64" y="0" on="1"/>
        <pt x="49" y="0" on="0"/>
        <pt x="49" y="30" on="1"/>
        <pt x="135" y="52" on="1"/>
        <pt x="130" y="350" on="1"/>
      </contour>
    </TTGlyph>
    <TTGlyph name="M" xMin="25" yMin="0" xMax="883" yMax="700">
      <contour>
        <pt x="138" y="4" on="1"/>
        <pt x="40" y="0" on="1"/>
        <pt x="25" y="0" on="0"/>
        <pt x="25" y="30" on="1"/>
        <pt x="110" y="52" on="1"/>
        <pt x="141" y="647" on="1"/>
        <pt x="59" y="669" on="1"/>
        <pt x="59" y="700" on="0"/>
        <pt x="74" y="700" on="1"/>
        <pt x="113" y="700" on="0"/>
        <pt x="236" y="696" on="1"/>
        <pt x="445" y="184" on="1"/>
        <pt x="676" y="696" on="1"/>
        <pt x="834" y="700" on="1"/>
        <pt x="849" y="700" on="0"/>
        <pt x="849" y="669" on="1"/>
        <pt x="767" y="647" on="1"/>
        <pt x="798" y="52" on="1"/>
        <pt x="883" y="30" on="1"/>
        <pt x="883" y="0" on="0"/>
        <pt x="868" y="0" on="1"/>
        <pt x="837" y="0" on="0"/>
        <pt x="750" y="4" on="1"/>
        <pt x="637" y="0" on="1"/>
        <pt x="621" y="0" on="0"/>
        <pt x="621" y="30" on="1"/>
        <pt x="716" y="52" on="1"/>
        <pt x="695" y="601" on="1"/>
        <pt x="442" y="50" on="1"/>
        <pt x="423" y="50" on="1"/>
        <pt x="192" y="594" on="1"/>
        <pt x="169" y="52" on="1"/>
        <pt x="264" y="30" on="1"/>
        <pt x="264" y="0" on="0"/>
        <pt x="248" y="0" on="1"/>
      </contour>
    </TTGlyph>
    <TTGlyph name="N" xMin="50" yMin="0" xMax="750" yMax="700">
      <contour>
        <pt x="615" y="648" on="1"/>
        <pt x="510" y="670" on="1"/>
        <pt x="510" y="700" on="0"/>
        <pt x="526" y="700" on="1"/>
        <pt x="647" y="696" on="1"/>
        <pt x="735" y="700" on="1"/>
        <pt x="750" y="700" on="0"/>
        <pt x="750" y="670" on="1"/>
        <pt x="675" y="648" on="1"/>
        <pt x="672" y="0" on="1"/>
        <pt x="616" y="0" on="1"/>
        <pt x="186" y="583" on="1"/>
        <pt x="194" y="52" on="1"/>
        <pt x="300" y="30" on="1"/>
        <pt x="300" y="0" on="0"/>
        <pt x="284" y="0" on="1"/>
        <pt x="163" y="4" on="1"/>
        <pt x="65" y="0" on="1"/>
        <pt x="50" y="0" on="0"/>
        <pt x="50" y="30" on="1"/>
        <pt x="132" y="52" on="1"/>
        <pt x="132" y="647" on="1"/>
        <pt x="50" y="669" on="1"/>
        <pt x="50" y="700" on="0"/>
        <pt x="77" y="700" on="0"/>
        <pt x="200" y="696" on="1"/>
        <pt x="621" y="126" on="1"/>
      </contour>
    </TTGlyph>
    <TTGlyph name="Ntilde" xMin="50" yMin="0" xMax="750" yMax="895">
      <component glyphName="N" x="0" y="0" flags="0x1004"/>
      <component glyphName="tilde" x="192" y="244" flags="0x1004"/>
    </TTGlyph>
    <TTGlyph name="O" xMin="40" yMin="-12" xMax="707" yMax="712">
      <contour>
        <pt x="522" y="712" on="0"/>
        <pt x="707" y="531" on="0"/>
        <pt x="707" y="179" on="0"/>
        <pt x="519" y="-12" on="0"/>
        <pt x="218" y="-12" on="0"/>
        <pt x="40" y="176" on="0"/>
        <pt x="40" y="523" on="0"/>
        <pt x="232" y="712" on="0"/>
      </contour>
      <contour>
        <pt x="128" y="352" on="1"/>
        <pt x="128" y="199" on="0"/>
        <pt x="264" y="36" on="0"/>
        <pt x="483" y="36" on="0"/>
        <pt x="619" y="199" on="0"/>
        <pt x="619" y="500" on="0"/>
        <pt x="483" y="658" on="0"/>
        <pt x="373" y="658" on="1"/>
        <pt x="301" y="658" on="0"/>
        <pt x="229" y="634" on="1"/>
        <pt x="182" y="599" on="0"/>
        <pt x="128" y="448" on="0"/>
      </contour>
    </TTGlyph>
    <TTGlyph name="OE" xMin="40" yMin="-12" xMax="906" yMax="712">
      <contour>
        <pt x="508" y="638" on="1"/>
        <pt x="424" y="661" on="0"/>
        <pt x="293" y="661" on="0"/>
        <pt x="230" y="639" on="1"/>
        <pt x="183" y="603" on="0"/>
        <pt x="128" y="451" on="0"/>
        <pt x="128" y="355" on="1"/>
        <pt x="128" y="200" on="0"/>
        <pt x="265" y="36" on="0"/>
        <pt x="375" y="36" on="1"/>
        <pt x="436" y="36" on="0"/>
        <pt x="518" y="68" on="1"/>
        <pt x="545" y="52" on="1"/>
        <pt x="525" y="8" on="1"/>
        <pt x="443" y="-12" on="0"/>
        <pt x="361" y="-12" on="1"/>
        <pt x="217" y="-12" on="0"/>
        <pt x="40" y="166" on="0"/>
        <pt x="40" y="523" on="0"/>
        <pt x="215" y="712" on="0"/>
        <pt x="355" y="712" on="1"/>
        <pt x="423" y="712" on="0"/>
        <pt x="523" y="696" on="1"/>
      </contour>
      <contour>
        <pt x="828" y="555" on="1"/>
        <pt x="828" y="649" on="1"/>
        <pt x="563" y="646" on="1"/>
        <pt x="572" y="382" on="1"/>
        <pt x="828" y="382" on="1"/>
        <pt x="828" y="339" on="1"/>
        <pt x="572" y="326" on="1"/>
        <pt x="563" y="55" on="1"/>
        <pt x="838" y="55" on="1"/>
        <pt x="864" y="149" on="1"/>
        <pt x="864" y="163" on="0"/>
        <pt x="906" y="163" on="1"/>
        <pt x="898" y="12" on="1"/>
        <pt x="897" y="0" on="0"/>
        <pt x="869" y="0" on="1"/>
        <pt x="525" y="8" on="1"/>
        <pt x="420" y="0" on="1"/>
        <pt x="405" y="0" on="0"/>
        <pt x="405" y="30" on="1"/>
        <pt x="489" y="52" on="1"/>
        <pt x="489" y="648" on="1"/>
        <pt x="405" y="670" on="1"/>
        <pt x="405" y="700" on="0"/>
        <pt x="420" y="700" on="1"/>
        <pt x="429" y="700" on="0"/>
        <pt x="523" y="696" on="1"/>
        <pt x="863" y="700" on="1"/>
        <pt x="894" y="700" on="0"/>
        <pt x="895" y="690" on="1"/>
        <pt x="871" y="541" on="1"/>
        <pt x="828" y="541" on="0"/>
      </contour>
    </TTGlyph>
    <TTGlyph name="Oacute" xMin="30" yMin="-12" xMax="697" yMax="924">
      <contour>
        <pt x="512" y="712" on="0"/>
        <pt x="697" y="531" on="0"/>
        <pt x="697" y="179" on="0"/>
        <pt x="509" y="-12" on="0"/>
        <pt x="208" y="-12" on="0"/>
        <pt x="30" y="176" on="0"/>
        <pt x="30" y="523" on="0"/>
        <pt x="222" y="712" on="0"/>
      </contour>
      <contour>
        <pt x="118" y="352" on="1"/>
        <pt x="118" y="199" on="0"/>
        <pt x="254" y="36" on="0"/>
        <pt x="473" y="36" on="0"/>
        <pt x="609" y="199" on="0"/>
        <pt x="609" y="500" on="0"/>
        <pt x="473" y="658" on="0"/>
        <pt x="363" y="658" on="1"/>
        <pt x="291" y="658" on="0"/>
        <pt x="219" y="634" on="1"/>
        <pt x="172" y="599" on="0"/>
        <pt x="118" y="448" on="0"/>
      </contour>
      <contour>
        <pt x="266" y="762" on="1"/>
        <pt x="255" y="781" on="1"/>
        <pt x="352" y="847" on="0"/>
        <pt x="447" y="924" on="1"/>
        <pt x="452" y="918" on="0"/>
        <pt x="472" y="870" on="0"/>
        <pt x="472" y="848" on="0"/>
        <pt x="467" y="845" on="1"/>
        <pt x="392" y="797" on="0"/>
      </contour>
    </TTGlyph>
    <TTGlyph name="Ocircumflex" xMin="30" yMin="-12" xMax="697" yMax="929">
      <contour>
        <pt x="512" y="712" on="0"/>
        <pt x="697" y="531" on="0"/>
        <pt x="697" y="179" on="0"/>
        <pt x="509" y="-12" on="0"/>
        <pt x="208" y="-12" on="0"/>
        <pt x="30" y="176" on="0"/>
        <pt x="30" y="523" on="0"/>
        <pt x="222" y="712" on="0"/>
      </contour>
      <contour>
        <pt x="118" y="352" on="1"/>
        <pt x="118" y="199" on="0"/>
        <pt x="254" y="36" on="0"/>
        <pt x="473" y="36" on="0"/>
        <pt x="609" y="199" on="0"/>
        <pt x="609" y="500" on="0"/>
        <pt x="473" y="658" on="0"/>
        <pt x="363" y="658" on="1"/>
        <pt x="291" y="658" on="0"/>
        <pt x="219" y="634" on="1"/>
        <pt x="172" y="599" on="0"/>
        <pt x="118" y="448" on="0"/>
      </contour>
      <contour>
        <pt x="364" y="855" on="1"/>
        <pt x="267" y="753" on="1"/>
        <pt x="241" y="770" on="1"/>
        <pt x="305" y="861" on="0"/>
        <pt x="341" y="929" on="1"/>
        <pt x="386" y="929" on="1"/>
        <pt x="422" y="861" on="0"/>
        <pt x="486" y="770" on="1"/>
        <pt x="460" y="753" on="1"/>
      </contour>
    </TTGlyph>
    <TTGlyph name="Odieresis" xMin="30" yMin="-12" xMax="697" yMax="903">
      <contour>
        <pt x="512" y="712" on="0"/>
        <pt x="697" y="531" on="0"/>
        <pt x="697" y="179" on="0"/>
        <pt x="509" y="-12" on="0"/>
        <pt x="208" y="-12" on="0"/>
        <pt x="30" y="176" on="0"/>
        <pt x="30" y="523" on="0"/>
        <pt x="222" y="712" on="0"/>
      </contour>
      <contour>
        <pt x="118" y="352" on="1"/>
        <pt x="118" y="199" on="0"/>
        <pt x="254" y="36" on="0"/>
        <pt x="473" y="36" on="0"/>
        <pt x="609" y="199" on="0"/>
        <pt x="609" y="500" on="0"/>
        <pt x="473" y="658" on="0"/>
        <pt x="363" y="658" on="1"/>
        <pt x="291" y="658" on="0"/>
        <pt x="219" y="634" on="1"/>
        <pt x="172" y="599" on="0"/>
        <pt x="118" y="448" on="0"/>
      </contour>
      <contour>
        <pt x="302" y="903" on="1"/>
        <pt x="333" y="903" on="0"/>
        <pt x="333" y="850" on="1"/>
        <pt x="333" y="815" on="0"/>
        <pt x="327" y="797" on="1"/>
        <pt x="295" y="788" on="0"/>
        <pt x="278" y="788" on="1"/>
        <pt x="246" y="788" on="0"/>
        <pt x="246" y="840" on="1"/>
        <pt x="246" y="875" on="0"/>
        <pt x="253" y="896" on="1"/>
        <pt x="286" y="903" on="0"/>
      </contour>
      <contour>
        <pt x="450" y="903" on="1"/>
        <pt x="481" y="903" on="0"/>
        <pt x="481" y="850" on="1"/>
        <pt x="481" y="815" on="0"/>
        <pt x="475" y="797" on="1"/>
        <pt x="443" y="788" on="0"/>
        <pt x="426" y="788" on="1"/>
        <pt x="394" y="788" on="0"/>
        <pt x="394" y="840" on="1"/>
        <pt x="394" y="875" on="0"/>
        <pt x="401" y="896" on="1"/>
        <pt x="434" y="903" on="0"/>
      </contour>
    </TTGlyph>
    <TTGlyph name="Ograve" xMin="30" yMin="-12" xMax="697" yMax="924">
      <contour>
        <pt x="512" y="712" on="0"/>
        <pt x="697" y="531" on="0"/>
        <pt x="697" y="179" on="0"/>
        <pt x="509" y="-12" on="0"/>
        <pt x="208" y="-12" on="0"/>
        <pt x="30" y="176" on="0"/>
        <pt x="30" y="523" on="0"/>
        <pt x="222" y="712" on="0"/>
      </contour>
      <contour>
        <pt x="118" y="352" on="1"/>
        <pt x="118" y="199" on="0"/>
        <pt x="254" y="36" on="0"/>
        <pt x="473" y="36" on="0"/>
        <pt x="609" y="199" on="0"/>
        <pt x="609" y="500" on="0"/>
        <pt x="473" y="658" on="0"/>
        <pt x="363" y="658" on="1"/>
        <pt x="291" y="658" on="0"/>
        <pt x="219" y="634" on="1"/>
        <pt x="172" y="599" on="0"/>
        <pt x="118" y="448" on="0"/>
      </contour>
      <contour>
        <pt x="472" y="781" on="1"/>
        <pt x="461" y="762" on="1"/>
        <pt x="335" y="797" on="0"/>
        <pt x="260" y="845" on="1"/>
        <pt x="255" y="848" on="0"/>
        <pt x="255" y="870" on="0"/>
        <pt x="275" y="918" on="0"/>
        <pt x="280" y="924" on="1"/>
        <pt x="372" y="849" on="0"/>
        <pt x="445" y="800" on="1"/>
      </contour>
    </TTGlyph>
    <TTGlyph name="Omega" xMin="40" yMin="0" xMax="707" yMax="712">
      <contour>
        <pt x="689" y="0" on="1"/>
        <pt x="486" y="0" on="1"/>
        <pt x="460" y="142" on="1"/>
        <pt x="619" y="236" on="0"/>
        <pt x="619" y="407" on="1"/>
        <pt x="619" y="519" on="0"/>
        <pt x="479" y="658" on="0"/>
        <pt x="267" y="658" on="0"/>
        <pt x="127" y="513" on="0"/>
        <pt x="127" y="397" on="1"/>
        <pt x="127" y="235" on="0"/>
        <pt x="284" y="142" on="1"/>
        <pt x="258" y="0" on="1"/>
        <pt x="55" y="0" on="1"/>
        <pt x="41" y="0" on="0"/>
        <pt x="41" y="30" on="1"/>
        <pt x="197" y="52" on="1"/>
        <pt x="211" y="125" on="1"/>
        <pt x="132" y="158" on="0"/>
        <pt x="40" y="311" on="0"/>
        <pt x="40" y="409" on="1"/>
        <pt x="40" y="541" on="0"/>
        <pt x="237" y="712" on="0"/>
        <pt x="518" y="712" on="0"/>
        <pt x="707" y="548" on="0"/>
        <pt x="707" y="416" on="1"/>
        <pt x="707" y="317" on="0"/>
        <pt x="613" y="163" on="0"/>
        <pt x="532" y="128" on="1"/>
        <pt x="547" y="52" on="1"/>
        <pt x="703" y="30" on="1"/>
        <pt x="703" y="0" on="0"/>
      </contour>
    </TTGlyph>
    <TTGlyph name="Oslash" xMin="30" yMin="-50" xMax="697" yMax="750">
      <contour>
        <pt x="512" y="712" on="0"/>
        <pt x="697" y="531" on="0"/>
        <pt x="697" y="179" on="0"/>
        <pt x="509" y="-12" on="0"/>
        <pt x="208" y="-12" on="0"/>
        <pt x="30" y="176" on="0"/>
        <pt x="30" y="523" on="0"/>
        <pt x="222" y="712" on="0"/>
      </contour>
      <contour>
        <pt x="118" y="352" on="1"/>
        <pt x="118" y="199" on="0"/>
        <pt x="254" y="36" on="0"/>
        <pt x="473" y="36" on="0"/>
        <pt x="609" y="199" on="0"/>
        <pt x="609" y="500" on="0"/>
        <pt x="473" y="658" on="0"/>
        <pt x="363" y="658" on="1"/>
        <pt x="291" y="658" on="0"/>
        <pt x="219" y="634" on="1"/>
        <pt x="172" y="599" on="0"/>
        <pt x="118" y="448" on="0"/>
      </contour>
      <contour>
        <pt x="170" y="-50" on="1"/>
        <pt x="503" y="750" on="1"/>
        <pt x="557" y="750" on="1"/>
        <pt x="224" y="-50" on="1"/>
      </contour>
    </TTGlyph>
    <TTGlyph name="Otilde" xMin="30" yMin="-12" xMax="697" yMax="895">
      <contour>
        <pt x="512" y="712" on="0"/>
        <pt x="697" y="531" on="0"/>
        <pt x="697" y="179" on="0"/>
        <pt x="509" y="-12" on="0"/>
        <pt x="208" y="-12" on="0"/>
        <pt x="30" y="176" on="0"/>
        <pt x="30" y="523" on="0"/>
        <pt x="222" y="712" on="0"/>
      </contour>
      <contour>
        <pt x="118" y="352" on="1"/>
        <pt x="118" y="199" on="0"/>
        <pt x="254" y="36" on="0"/>
        <pt x="473" y="36" on="0"/>
        <pt x="609" y="199" on="0"/>
        <pt x="609" y="500" on="0"/>
        <pt x="473" y="658" on="0"/>
        <pt x="363" y="658" on="1"/>
        <pt x="291" y="658" on="0"/>
        <pt x="219" y="634" on="1"/>
        <pt x="172" y="599" on="0"/>
        <pt x="118" y="448" on="0"/>
      </contour>
      <contour>
        <pt x="504" y="895" on="1"/>
        <pt x="521" y="876" on="1"/>
        <pt x="478" y="801" on="0"/>
        <pt x="420" y="801" on="1"/>
        <pt x="396" y="801" on="0"/>
        <pt x="307" y="828" on="0"/>
        <pt x="254" y="828" on="0"/>
        <pt x="222" y="798" on="1"/>
        <pt x="205" y="817" on="1"/>
        <pt x="248" y="892" on="0"/>
        <pt x="306" y="892" on="1"/>
        <pt x="330" y="892" on="0"/>
        <pt x="419" y="865" on="0"/>
        <pt x="472" y="865" on="0"/>
      </contour>
    </TTGlyph>
    <TTGlyph name="P" xMin="50" yMin="0" xMax="533" yMax="700">
      <contour>
        <pt x="134" y="648" on="1"/>
        <pt x="50" y="670" on="1"/>
        <pt x="50" y="700" on="0"/>
        <pt x="65" y="700" on="1"/>
        <pt x="74" y="700" on="0"/>
        <pt x="168" y="696" on="1"/>
        <pt x="326" y="700" on="1"/>
        <pt x="421" y="700" on="0"/>
        <pt x="533" y="584" on="0"/>
        <pt x="533" y="415" on="0"/>
        <pt x="403" y="293" on="0"/>
        <pt x="282" y="282" on="1"/>
        <pt x="215" y="276" on="1"/>
        <pt x="208" y="52" on="1"/>
        <pt x="319" y="30" on="1"/>
        <pt x="319" y="0" on="0"/>
        <pt x="304" y="0" on="1"/>
        <pt x="261" y="0" on="0"/>
        <pt x="168" y="4" on="1"/>
        <pt x="65" y="0" on="1"/>
        <pt x="50" y="0" on="0"/>
        <pt x="50" y="30" on="1"/>
        <pt x="134" y="52" on="1"/>
      </contour>
      <contour>
        <pt x="308" y="658" on="1"/>
        <pt x="208" y="648" on="1"/>
        <pt x="218" y="350" on="1"/>
        <pt x="217" y="331" on="1"/>
        <pt x="290" y="327" on="1"/>
        <pt x="374" y="327" on="0"/>
        <pt x="461" y="429" on="0"/>
        <pt x="461" y="564" on="0"/>
        <pt x="383" y="658" on="0"/>
      </contour>
    </TTGlyph>
    <TTGlyph name="Q" xMin="40" yMin="-231" xMax="707" yMax="712">
      <contour>
        <pt x="460" y="-212" on="1"/>
        <pt x="368" y="-12" on="1"/>
        <pt x="220" y="-12" on="0"/>
        <pt x="40" y="176" on="0"/>
        <pt x="40" y="523" on="0"/>
        <pt x="232" y="712" on="0"/>
        <pt x="522" y="712" on="0"/>
        <pt x="707" y="531" on="0"/>
        <pt x="707" y="199" on="0"/>
        <pt x="555" y="11" on="0"/>
        <pt x="426" y="-8" on="1"/>
        <pt x="553" y="-210" on="1"/>
        <pt x="519" y="-231" on="0"/>
        <pt x="468" y="-231" on="0"/>
      </contour>
      <contour>
        <pt x="128" y="352" on="1"/>
        <pt x="128" y="199" on="0"/>
        <pt x="264" y="36" on="0"/>
        <pt x="483" y="36" on="0"/>
        <pt x="619" y="199" on="0"/>
        <pt x="619" y="500" on="0"/>
        <pt x="483" y="658" on="0"/>
        <pt x="373" y="658" on="1"/>
        <pt x="301" y="658" on="0"/>
        <pt x="229" y="634" on="1"/>
        <pt x="182" y="599" on="0"/>
        <pt x="128" y="448" on="0"/>
      </contour>
    </TTGlyph>
    <TTGlyph name="R" xMin="50" yMin="0" xMax="635" yMax="700">
      <contour>
        <pt x="134" y="648" on="1"/>
        <pt x="50" y="670" on="1"/>
        <pt x="50" y="700" on="0"/>
        <pt x="65" y="700" on="1"/>
        <pt x="74" y="700" on="0"/>
        <pt x="168" y="696" on="1"/>
        <pt x="319" y="700" on="0"/>
        <pt x="324" y="700" on="1"/>
        <pt x="415" y="700" on="0"/>
        <pt x="523" y="588" on="0"/>
        <pt x="523" y="508" on="1"/>
        <pt x="523" y="454" on="0"/>
        <pt x="447" y="353" on="0"/>
        <pt x="379" y="330" on="1"/>
        <pt x="404" y="315" on="0"/>
        <pt x="427" y="276" on="1"/>
        <pt x="555" y="52" on="1"/>
        <pt x="635" y="30" on="1"/>
        <pt x="635" y="0" on="0"/>
        <pt x="620" y="0" on="1"/>
        <pt x="489" y="0" on="1"/>
        <pt x="345" y="272" on="1"/>
        <pt x="327" y="304" on="0"/>
        <pt x="310" y="316" on="1"/>
        <pt x="216" y="301" on="1"/>
        <pt x="208" y="52" on="1"/>
        <pt x="309" y="30" on="1"/>
        <pt x="309" y="0" on="0"/>
        <pt x="294" y="0" on="1"/>
        <pt x="261" y="0" on="0"/>
        <pt x="168" y="4" on="1"/>
        <pt x="65" y="0" on="1"/>
        <pt x="50" y="0" on="0"/>
        <pt x="50" y="30" on="1"/>
        <pt x="134" y="52" on="1"/>
      </contour>
      <contour>
        <pt x="298" y="658" on="1"/>
        <pt x="208" y="648" on="1"/>
        <pt x="217" y="358" on="1"/>
        <pt x="280" y="354" on="1"/>
        <pt x="365" y="354" on="0"/>
        <pt x="451" y="446" on="0"/>
        <pt x="451" y="570" on="0"/>
        <pt x="372" y="658" on="0"/>
      </contour>
    </TTGlyph>
    <TTGlyph name="S" xMin="55" yMin="-12" xMax="504" yMax="712">
      <contour>
        <pt x="504" y="170" on="1"/>
        <pt x="504" y="83" on="0"/>
        <pt x="372" y="-12" on="0"/>
        <pt x="167" y="-12" on="0"/>
        <pt x="55" y="36" on="1"/>
        <pt x="74" y="201" on="0"/>
        <pt x="78" y="201" on="1"/>
        <pt x="121" y="201" on="0"/>
        <pt x="121" y="189" on="1"/>
        <pt x="121" y="78" on="1"/>
        <pt x="186" y="36" on="0"/>
        <pt x="347" y="36" on="0"/>
        <pt x="419" y="104" on="0"/>
        <pt x="419" y="157" on="1"/>
        <pt x="419" y="226" on="0"/>
        <pt x="348" y="267" on="1"/>
        <pt x="171" y="368" on="1"/>
        <pt x="121" y="396" on="0"/>
        <pt x="69" y="481" on="0"/>
        <pt x="69" y="528" on="1"/>
        <pt x="69" y="603" on="0"/>
        <pt x="192" y="712" on="0"/>
        <pt x="298" y="712" on="1"/>
        <pt x="375" y="712" on="0"/>
        <pt x="471" y="676" on="1"/>
        <pt x="445" y="522" on="1"/>
        <pt x="403" y="522" on="0"/>
        <pt x="403" y="536" on="1"/>
        <pt x="403" y="637" on="1"/>
        <pt x="349" y="662" on="0"/>
        <pt x="292" y="662" on="1"/>
        <pt x="190" y="662" on="0"/>
        <pt x="144" y="587" on="1"/>
        <pt x="139" y="570" on="0"/>
        <pt x="139" y="547" on="1"/>
        <pt x="139" y="478" on="0"/>
        <pt x="214" y="435" on="1"/>
        <pt x="386" y="337" on="1"/>
        <pt x="443" y="304" on="0"/>
        <pt x="504" y="214" on="0"/>
      </contour>
    </TTGlyph>
    <TTGlyph name="Scaron" xMin="45" yMin="-12" xMax="494" yMax="929">
      <contour>
        <pt x="494" y="170" on="1"/>
        <pt x="494" y="83" on="0"/>
        <pt x="362" y="-12" on="0"/>
        <pt x="157" y="-12" on="0"/>
        <pt x="45" y="36" on="1"/>
        <pt x="64" y="201" on="0"/>
        <pt x="68" y="201" on="1"/>
        <pt x="111" y="201" on="0"/>
        <pt x="111" y="189" on="1"/>
        <pt x="111" y="78" on="1"/>
        <pt x="176" y="36" on="0"/>
        <pt x="337" y="36" on="0"/>
        <pt x="409" y="104" on="0"/>
        <pt x="409" y="157" on="1"/>
        <pt x="409" y="226" on="0"/>
        <pt x="338" y="267" on="1"/>
        <pt x="161" y="368" on="1"/>
        <pt x="111" y="396" on="0"/>
        <pt x="59" y="481" on="0"/>
        <pt x="59" y="528" on="1"/>
        <pt x="59" y="603" on="0"/>
        <pt x="182" y="712" on="0"/>
        <pt x="288" y="712" on="1"/>
        <pt x="365" y="712" on="0"/>
        <pt x="461" y="676" on="1"/>
        <pt x="435" y="522" on="1"/>
        <pt x="393" y="522" on="0"/>
        <pt x="393" y="536" on="1"/>
        <pt x="393" y="637" on="1"/>
        <pt x="339" y="662" on="0"/>
        <pt x="282" y="662" on="1"/>
        <pt x="180" y="662" on="0"/>
        <pt x="134" y="587" on="1"/>
        <pt x="129" y="570" on="0"/>
        <pt x="129" y="547" on="1"/>
        <pt x="129" y="478" on="0"/>
        <pt x="204" y="435" on="1"/>
        <pt x="376" y="337" on="1"/>
        <pt x="433" y="304" on="0"/>
        <pt x="494" y="214" on="0"/>
      </contour>
      <contour>
        <pt x="285" y="827" on="1"/>
        <pt x="388" y="929" on="1"/>
        <pt x="413" y="912" on="1"/>
        <pt x="341" y="818" on="0"/>
        <pt x="302" y="753" on="1"/>
        <pt x="257" y="753" on="1"/>
        <pt x="230" y="815" on="0"/>
        <pt x="168" y="912" on="1"/>
        <pt x="195" y="929" on="1"/>
      </contour>
    </TTGlyph>
    <TTGlyph name="T" xMin="5" yMin="0" xMax="558" yMax="700">
      <contour>
        <pt x="281" y="695" on="1"/>
        <pt x="526" y="700" on="1"/>
        <pt x="557" y="700" on="0"/>
        <pt x="558" y="690" on="1"/>
        <pt x="547" y="533" on="1"/>
        <pt x="505" y="533" on="0"/>
        <pt x="505" y="547" on="1"/>
        <pt x="490" y="650" on="1"/>
        <pt x="318" y="646" on="1"/>
        <pt x="323" y="350" on="1"/>
        <pt x="318" y="52" on="1"/>
        <pt x="431" y="30" on="1"/>
        <pt x="431" y="0" on="0"/>
        <pt x="416" y="0" on="1"/>
        <pt x="377" y="0" on="0"/>
        <pt x="284" y="4" on="1"/>
        <pt x="147" y="0" on="1"/>
        <pt x="132" y="0" on="0"/>
        <pt x="132" y="30" on="1"/>
        <pt x="245" y="52" on="1"/>
        <pt x="240" y="350" on="1"/>
        <pt x="245" y="646" on="1"/>
        <pt x="73" y="650" on="1"/>
        <pt x="58" y="547" on="1"/>
        <pt x="58" y="533" on="0"/>
        <pt x="16" y="533" on="1"/>
        <pt x="5" y="690" on="1"/>
        <pt x="6" y="700" on="0"/>
        <pt x="37" y="700" on="1"/>
      </contour>
    </TTGlyph>
    <TTGlyph name="Thorn" xMin="50" yMin="0" xMax="532" yMax="700">
      <contour>
        <pt x="307" y="534" on="1"/>
        <pt x="207" y="524" on="1"/>
        <pt x="167" y="572" on="1"/>
        <pt x="325" y="576" on="1"/>
        <pt x="420" y="576" on="0"/>
        <pt x="532" y="460" on="0"/>
        <pt x="532" y="290" on="0"/>
        <pt x="402" y="167" on="0"/>
        <pt x="281" y="161" on="1"/>
        <pt x="153" y="154" on="1"/>
        <pt x="212" y="208" on="1"/>
        <pt x="289" y="203" on="1"/>
        <pt x="373" y="203" on="0"/>
        <pt x="460" y="305" on="0"/>
        <pt x="460" y="440" on="0"/>
        <pt x="382" y="534" on="0"/>
      </contour>
      <contour>
        <pt x="136" y="648" on="1"/>
        <pt x="50" y="670" on="1"/>
        <pt x="50" y="700" on="0"/>
        <pt x="65" y="700" on="1"/>
        <pt x="83" y="700" on="0"/>
        <pt x="177" y="696" on="1"/>
        <pt x="280" y="700" on="1"/>
        <pt x="295" y="700" on="0"/>
        <pt x="295" y="670" on="1"/>
        <pt x="209" y="648" on="1"/>
        <pt x="214" y="350" on="1"/>
        <pt x="209" y="52" on="1"/>
        <pt x="295" y="30" on="1"/>
        <pt x="295" y="0" on="0"/>
        <pt x="280" y="0" on="1"/>
        <pt x="270" y="0" on="0"/>
        <pt x="177" y="4" on="1"/>
        <pt x="65" y="0" on="1"/>
        <pt x="50" y="0" on="0"/>
        <pt x="50" y="30" on="1"/>
        <pt x="136" y="52" on="1"/>
        <pt x="131" y="350" on="1"/>
      </contour>
    </TTGlyph>
    <TTGlyph name="U" xMin="40" yMin="-12" xMax="698" yMax="700">
      <contour>
        <pt x="271" y="700" on="1"/>
        <pt x="287" y="700" on="0"/>
        <pt x="287" y="670" on="1"/>
        <pt x="192" y="648" on="1"/>
        <pt x="192" y="215" on="1"/>
        <pt x="192" y="136" on="0"/>
        <pt x="285" y="43" on="0"/>
        <pt x="476" y="43" on="0"/>
        <pt x="575" y="143" on="0"/>
        <pt x="575" y="216" on="1"/>
        <pt x="575" y="648" on="1"/>
        <pt x="480" y="670" on="1"/>
        <pt x="480" y="700" on="0"/>
        <pt x="496" y="700" on="1"/>
        <pt x="605" y="696" on="1"/>
        <pt x="683" y="700" on="1"/>
        <pt x="698" y="700" on="0"/>
        <pt x="698" y="670" on="1"/>
        <pt x="633" y="648" on="1"/>
        <pt x="633" y="218" on="1"/>
        <pt x="633" y="114" on="0"/>
        <pt x="498" y="-12" on="0"/>
        <pt x="380" y="-12" on="1"/>
        <pt x="114" y="-12" on="0"/>
        <pt x="114" y="218" on="1"/>
        <pt x="114" y="648" on="1"/>
        <pt x="40" y="669" on="1"/>
        <pt x="40" y="700" on="0"/>
        <pt x="55" y="700" on="1"/>
        <pt x="62" y="700" on="0"/>
        <pt x="156" y="696" on="1"/>
      </contour>
    </TTGlyph>
    <TTGlyph name="Uacute" xMin="40" yMin="-12" xMax="698" yMax="924">
      <component glyphName="U" x="0" y="0" flags="0x1004"/>
      <component glyphName="acute" x="264" y="244" flags="0x1004"/>
    </TTGlyph>
    <TTGlyph name="Ucircumflex" xMin="40" yMin="-12" xMax="698" yMax="929">
      <contour>
        <pt x="271" y="700" on="1"/>
        <pt x="287" y="700" on="0"/>
        <pt x="287" y="670" on="1"/>
        <pt x="192" y="648" on="1"/>
        <pt x="192" y="215" on="1"/>
        <pt x="192" y="136" on="0"/>
        <pt x="285" y="43" on="0"/>
        <pt x="476" y="43" on="0"/>
        <pt x="575" y="143" on="0"/>
        <pt x="575" y="216" on="1"/>
        <pt x="575" y="648" on="1"/>
        <pt x="480" y="670" on="1"/>
        <pt x="480" y="700" on="0"/>
        <pt x="496" y="700" on="1"/>
        <pt x="605" y="696" on="1"/>
        <pt x="683" y="700" on="1"/>
        <pt x="698" y="700" on="0"/>
        <pt x="698" y="670" on="1"/>
        <pt x="633" y="648" on="1"/>
        <pt x="633" y="218" on="1"/>
        <pt x="633" y="114" on="0"/>
        <pt x="498" y="-12" on="0"/>
        <pt x="380" y="-12" on="1"/>
        <pt x="114" y="-12" on="0"/>
        <pt x="114" y="218" on="1"/>
        <pt x="114" y="648" on="1"/>
        <pt x="40" y="669" on="1"/>
        <pt x="40" y="700" on="0"/>
        <pt x="55" y="700" on="1"/>
        <pt x="62" y="700" on="0"/>
        <pt x="156" y="696" on="1"/>
      </contour>
      <contour>
        <pt x="391" y="855" on="1"/>
        <pt x="294" y="753" on="1"/>
        <pt x="268" y="770" on="1"/>
        <pt x="332" y="861" on="0"/>
        <pt x="368" y="929" on="1"/>
        <pt x="413" y="929" on="1"/>
        <pt x="449" y="861" on="0"/>
        <pt x="513" y="770" on="1"/>
        <pt x="487" y="753" on="1"/>
      </contour>
    </TTGlyph>
    <TTGlyph name="Udieresis" xMin="40" yMin="-12" xMax="698" yMax="903">
      <component glyphName="U" x="0" y="0" flags="0x1004"/>
      <component glyphName="dieresis" x="202" y="244" flags="0x1004"/>
    </TTGlyph>
    <TTGlyph name="Ugrave" xMin="40" yMin="-12" xMax="698" yMax="924">
      <contour>
        <pt x="271" y="700" on="1"/>
        <pt x="287" y="700" on="0"/>
        <pt x="287" y="670" on="1"/>
        <pt x="192" y="648" on="1"/>
        <pt x="192" y="215" on="1"/>
        <pt x="192" y="136" on="0"/>
        <pt x="285" y="43" on="0"/>
        <pt x="476" y="43" on="0"/>
        <pt x="575" y="143" on="0"/>
        <pt x="575" y="216" on="1"/>
        <pt x="575" y="648" on="1"/>
        <pt x="480" y="670" on="1"/>
        <pt x="480" y="700" on="0"/>
        <pt x="496" y="700" on="1"/>
        <pt x="605" y="696" on="1"/>
        <pt x="683" y="700" on="1"/>
        <pt x="698" y="700" on="0"/>
        <pt x="698" y="670" on="1"/>
        <pt x="633" y="648" on="1"/>
        <pt x="633" y="218" on="1"/>
        <pt x="633" y="114" on="0"/>
        <pt x="498" y="-12" on="0"/>
        <pt x="380" y="-12" on="1"/>
        <pt x="114" y="-12" on="0"/>
        <pt x="114" y="218" on="1"/>
        <pt x="114" y="648" on="1"/>
        <pt x="40" y="669" on="1"/>
        <pt x="40" y="700" on="0"/>
        <pt x="55" y="700" on="1"/>
        <pt x="62" y="700" on="0"/>
        <pt x="156" y="696" on="1"/>
      </contour>
      <contour>
        <pt x="475" y="781" on="1"/>
        <pt x="464" y="762" on="1"/>
        <pt x="338" y="797" on="0"/>
        <pt x="263" y="845" on="1"/>
        <pt x="258" y="848" on="0"/>
        <pt x="258" y="870" on="0"/>
        <pt x="278" y="918" on="0"/>
        <pt x="283" y="924" on="1"/>
        <pt x="375" y="849" on="0"/>
        <pt x="448" y="800" on="1"/>
      </contour>
    </TTGlyph>
    <TTGlyph name="V" xMin="0" yMin="0" xMax="643" yMax="700">
      <contour>
        <pt x="237" y="670" on="1"/>
        <pt x="153" y="648" on="1"/>
        <pt x="338" y="95" on="1"/>
        <pt x="516" y="648" on="1"/>
        <pt x="431" y="670" on="1"/>
        <pt x="431" y="700" on="0"/>
        <pt x="446" y="700" on="1"/>
        <pt x="550" y="696" on="1"/>
        <pt x="628" y="700" on="1"/>
        <pt x="643" y="699" on="0"/>
        <pt x="643" y="670" on="1"/>
        <pt x="578" y="648" on="1"/>
        <pt x="360" y="0" on="1"/>
        <pt x="290" y="0" on="1"/>
        <pt x="65" y="648" on="1"/>
        <pt x="0" y="670" on="1"/>
        <pt x="0" y="700" on="0"/>
        <pt x="28" y="700" on="0"/>
        <pt x="115" y="696" on="1"/>
        <pt x="222" y="700" on="1"/>
        <pt x="237" y="700" on="0"/>
      </contour>
    </TTGlyph>
    <TTGlyph name="W" xMin="0" yMin="0" xMax="920" yMax="700">
      <contour>
        <pt x="237" y="670" on="1"/>
        <pt x="152" y="648" on="1"/>
        <pt x="297" y="113" on="1"/>
        <pt x="463" y="651" on="1"/>
        <pt x="498" y="651" on="1"/>
        <pt x="498" y="584" on="1"/>
        <pt x="645" y="113" on="1"/>
        <pt x="794" y="648" on="1"/>
        <pt x="709" y="670" on="1"/>
        <pt x="709" y="700" on="0"/>
        <pt x="724" y="700" on="1"/>
        <pt x="827" y="696" on="1"/>
        <pt x="905" y="700" on="1"/>
        <pt x="920" y="698" on="0"/>
        <pt x="920" y="670" on="1"/>
        <pt x="855" y="648" on="1"/>
        <pt x="675" y="0" on="1"/>
        <pt x="599" y="0" on="1"/>
        <pt x="460" y="447" on="1"/>
        <pt x="323" y="0" on="1"/>
        <pt x="247" y="0" on="1"/>
        <pt x="65" y="648" on="1"/>
        <pt x="0" y="670" on="1"/>
        <pt x="0" y="700" on="0"/>
        <pt x="28" y="700" on="0"/>
        <pt x="115" y="696" on="1"/>
        <pt x="222" y="700" on="1"/>
        <pt x="237" y="700" on="0"/>
      </contour>
    </TTGlyph>
    <TTGlyph name="X" xMin="15" yMin="0" xMax="681" yMax="700">
      <contour>
        <pt x="416" y="30" on="1"/>
        <pt x="508" y="52" on="1"/>
        <pt x="339" y="305" on="1"/>
        <pt x="162" y="52" on="1"/>
        <pt x="254" y="30" on="1"/>
        <pt x="254" y="0" on="0"/>
        <pt x="239" y="0" on="1"/>
        <pt x="118" y="4" on="1"/>
        <pt x="29" y="0" on="1"/>
        <pt x="15" y="0" on="0"/>
        <pt x="15" y="30" on="1"/>
        <pt x="90" y="52" on="1"/>
        <pt x="307" y="353" on="1"/>
        <pt x="111" y="648" on="1"/>
        <pt x="36" y="670" on="1"/>
        <pt x="36" y="700" on="0"/>
        <pt x="51" y="700" on="1"/>
        <pt x="72" y="700" on="0"/>
        <pt x="159" y="696" on="1"/>
        <pt x="266" y="700" on="1"/>
        <pt x="281" y="700" on="0"/>
        <pt x="281" y="670" on="1"/>
        <pt x="204" y="648" on="1"/>
        <pt x="359" y="414" on="1"/>
        <pt x="523" y="648" on="1"/>
        <pt x="441" y="670" on="1"/>
        <pt x="441" y="700" on="0"/>
        <pt x="456" y="700" on="1"/>
        <pt x="567" y="696" on="1"/>
        <pt x="645" y="700" on="1"/>
        <pt x="660" y="699" on="0"/>
        <pt x="660" y="670" on="1"/>
        <pt x="595" y="648" on="1"/>
        <pt x="392" y="365" on="1"/>
        <pt x="601" y="52" on="1"/>
        <pt x="681" y="30" on="1"/>
        <pt x="681" y="0" on="0"/>
        <pt x="666" y="0" on="1"/>
        <pt x="646" y="0" on="0"/>
        <pt x="559" y="4" on="1"/>
        <pt x="431" y="0" on="1"/>
        <pt x="416" y="0" on="0"/>
      </contour>
    </TTGlyph>
    <TTGlyph name="Y" xMin="0" yMin="0" xMax="580" yMax="700">
      <contour>
        <pt x="232" y="670" on="1"/>
        <pt x="147" y="648" on="1"/>
        <pt x="307" y="321" on="1"/>
        <pt x="450" y="648" on="1"/>
        <pt x="368" y="670" on="1"/>
        <pt x="368" y="700" on="0"/>
        <pt x="383" y="700" on="1"/>
        <pt x="487" y="696" on="1"/>
        <pt x="565" y="700" on="1"/>
        <pt x="580" y="699" on="0"/>
        <pt x="580" y="670" on="1"/>
        <pt x="515" y="648" on="1"/>
        <pt x="337" y="279" on="1"/>
        <pt x="337" y="52" on="1"/>
        <pt x="442" y="30" on="1"/>
        <pt x="442" y="0" on="0"/>
        <pt x="427" y="0" on="1"/>
        <pt x="394" y="0" on="0"/>
        <pt x="301" y="4" on="1"/>
        <pt x="169" y="0" on="1"/>
        <pt x="154" y="0" on="0"/>
        <pt x="154" y="30" on="1"/>
        <pt x="259" y="52" on="1"/>
        <pt x="259" y="277" on="1"/>
        <pt x="65" y="648" on="1"/>
        <pt x="0" y="670" on="1"/>
        <pt x="0" y="700" on="0"/>
        <pt x="15" y="700" on="1"/>
        <pt x="25" y="700" on="0"/>
        <pt x="112" y="696" on="1"/>
        <pt x="217" y="700" on="1"/>
        <pt x="232" y="700" on="0"/>
      </contour>
    </TTGlyph>
    <TTGlyph name="Yacute" xMin="-10" yMin="0" xMax="570" yMax="924">
      <contour>
        <pt x="222" y="670" on="1"/>
        <pt x="137" y="648" on="1"/>
        <pt x="297" y="321" on="1"/>
        <pt x="440" y="648" on="1"/>
        <pt x="358" y="670" on="1"/>
        <pt x="358" y="700" on="0"/>
        <pt x="373" y="700" on="1"/>
        <pt x="477" y="696" on="1"/>
        <pt x="555" y="700" on="1"/>
        <pt x="570" y="699" on="0"/>
        <pt x="570" y="670" on="1"/>
        <pt x="505" y="648" on="1"/>
        <pt x="327" y="279" on="1"/>
        <pt x="327" y="52" on="1"/>
        <pt x="432" y="30" on="1"/>
        <pt x="432" y="0" on="0"/>
        <pt x="417" y="0" on="1"/>
        <pt x="384" y="0" on="0"/>
        <pt x="291" y="4" on="1"/>
        <pt x="159" y="0" on="1"/>
        <pt x="144" y="0" on="0"/>
        <pt x="144" y="30" on="1"/>
        <pt x="249" y="52" on="1"/>
        <pt x="249" y="277" on="1"/>
        <pt x="55" y="648" on="1"/>
        <pt x="-10" y="670" on="1"/>
        <pt x="-10" y="700" on="0"/>
        <pt x="5" y="700" on="1"/>
        <pt x="15" y="700" on="0"/>
        <pt x="102" y="696" on="1"/>
        <pt x="207" y="700" on="1"/>
        <pt x="222" y="700" on="0"/>
      </contour>
      <contour>
        <pt x="182" y="762" on="1"/>
        <pt x="171" y="781" on="1"/>
        <pt x="268" y="847" on="0"/>
        <pt x="363" y="924" on="1"/>
        <pt x="368" y="918" on="0"/>
        <pt x="388" y="870" on="0"/>
        <pt x="388" y="848" on="0"/>
        <pt x="383" y="845" on="1"/>
        <pt x="308" y="797" on="0"/>
      </contour>
    </TTGlyph>
    <TTGlyph name="Ydieresis" xMin="-10" yMin="0" xMax="570" yMax="903">
      <contour>
        <pt x="222" y="670" on="1"/>
        <pt x="137" y="648" on="1"/>
        <pt x="297" y="321" on="1"/>
        <pt x="440" y="648" on="1"/>
        <pt x="358" y="670" on="1"/>
        <pt x="358" y="700" on="0"/>
        <pt x="373" y="700" on="1"/>
        <pt x="477" y="696" on="1"/>
        <pt x="555" y="700" on="1"/>
        <pt x="570" y="699" on="0"/>
        <pt x="570" y="670" on="1"/>
        <pt x="505" y="648" on="1"/>
        <pt x="327" y="279" on="1"/>
        <pt x="327" y="52" on="1"/>
        <pt x="432" y="30" on="1"/>
        <pt x="432" y="0" on="0"/>
        <pt x="417" y="0" on="1"/>
        <pt x="384" y="0" on="0"/>
        <pt x="291" y="4" on="1"/>
        <pt x="159" y="0" on="1"/>
        <pt x="144" y="0" on="0"/>
        <pt x="144" y="30" on="1"/>
        <pt x="249" y="52" on="1"/>
        <pt x="249" y="277" on="1"/>
        <pt x="55" y="648" on="1"/>
        <pt x="-10" y="670" on="1"/>
        <pt x="-10" y="700" on="0"/>
        <pt x="5" y="700" on="1"/>
        <pt x="15" y="700" on="0"/>
        <pt x="102" y="696" on="1"/>
        <pt x="207" y="700" on="1"/>
        <pt x="222" y="700" on="0"/>
      </contour>
      <contour>
        <pt x="238" y="903" on="1"/>
        <pt x="269" y="903" on="0"/>
        <pt x="269" y="850" on="1"/>
        <pt x="269" y="815" on="0"/>
        <pt x="263" y="797" on="1"/>
        <pt x="231" y="788" on="0"/>
        <pt x="214" y="788" on="1"/>
        <pt x="182" y="788" on="0"/>
        <pt x="182" y="840" on="1"/>
        <pt x="182" y="875" on="0"/>
        <pt x="189" y="896" on="1"/>
        <pt x="222" y="903" on="0"/>
      </contour>
      <contour>
        <pt x="386" y="903" on="1"/>
        <pt x="417" y="903" on="0"/>
        <pt x="417" y="850" on="1"/>
        <pt x="417" y="815" on="0"/>
        <pt x="411" y="797" on="1"/>
        <pt x="379" y="788" on="0"/>
        <pt x="362" y="788" on="1"/>
        <pt x="330" y="788" on="0"/>
        <pt x="330" y="840" on="1"/>
        <pt x="330" y="875" on="0"/>
        <pt x="337" y="896" on="1"/>
        <pt x="370" y="903" on="0"/>
      </contour>
    </TTGlyph>
    <TTGlyph name="Z" xMin="28" yMin="-12" xMax="577" yMax="712">
      <contour>
        <pt x="489" y="55" on="1"/>
        <pt x="489" y="151" on="1"/>
        <pt x="489" y="165" on="0"/>
        <pt x="531" y="165" on="1"/>
        <pt x="556" y="12" on="1"/>
        <pt x="555" y="0" on="0"/>
        <pt x="527" y="0" on="1"/>
        <pt x="77" y="5" on="1"/>
        <pt x="45" y="-12" on="1"/>
        <pt x="28" y="8" on="1"/>
        <pt x="456" y="642" on="1"/>
        <pt x="146" y="642" on="1"/>
        <pt x="146" y="551" on="1"/>
        <pt x="146" y="537" on="0"/>
        <pt x="104" y="537" on="1"/>
        <pt x="79" y="688" on="1"/>
        <pt x="80" y="700" on="0"/>
        <pt x="100" y="700" on="1"/>
        <pt x="106" y="700" on="0"/>
        <pt x="520" y="689" on="1"/>
        <pt x="555" y="712" on="1"/>
        <pt x="577" y="695" on="1"/>
        <pt x="146" y="55" on="1"/>
      </contour>
    </TTGlyph>
    <TTGlyph name="Zcaron" xMin="18" yMin="-12" xMax="567" yMax="929">
      <contour>
        <pt x="479" y="55" on="1"/>
        <pt x="479" y="151" on="1"/>
        <pt x="479" y="165" on="0"/>
        <pt x="521" y="165" on="1"/>
        <pt x="546" y="12" on="1"/>
        <pt x="545" y="0" on="0"/>
        <pt x="517" y="0" on="1"/>
        <pt x="67" y="5" on="1"/>
        <pt x="35" y="-12" on="1"/>
        <pt x="18" y="8" on="1"/>
        <pt x="446" y="642" on="1"/>
        <pt x="136" y="642" on="1"/>
        <pt x="136" y="551" on="1"/>
        <pt x="136" y="537" on="0"/>
        <pt x="94" y="537" on="1"/>
        <pt x="69" y="688" on="1"/>
        <pt x="70" y="700" on="0"/>
        <pt x="90" y="700" on="1"/>
        <pt x="96" y="700" on="0"/>
        <pt x="510" y="689" on="1"/>
        <pt x="545" y="712" on="1"/>
        <pt x="567" y="695" on="1"/>
        <pt x="136" y="55" on="1"/>
      </contour>
      <contour>
        <pt x="309" y="827" on="1"/>
        <pt x="412" y="929" on="1"/>
        <pt x="437" y="912" on="1"/>
        <pt x="365" y="818" on="0"/>
        <pt x="326" y="753" on="1"/>
        <pt x="281" y="753" on="1"/>
        <pt x="254" y="815" on="0"/>
        <pt x="192" y="912" on="1"/>
        <pt x="219" y="929" on="1"/>
      </contour>
    </TTGlyph>
    <TTGlyph name="a" xMin="0" yMin="0" xMax="521" yMax="489">
      <contour>
        <pt x="124" y="45" on="1"/>
        <pt x="191" y="31" on="1"/>
        <pt x="191" y="0" on="0"/>
        <pt x="173" y="0" on="1"/>
        <pt x="165" y="0" on="0"/>
        <pt x="86" y="3" on="1"/>
        <pt x="17" y="0" on="1"/>
        <pt x="0" y="0" on="0"/>
        <pt x="0" y="30" on="1"/>
        <pt x="58" y="45" on="1"/>
        <pt x="227" y="489" on="1"/>
        <pt x="292" y="489" on="1"/>
        <pt x="463" y="46" on="1"/>
        <pt x="521" y="30" on="1"/>
        <pt x="521" y="0" on="0"/>
        <pt x="486" y="0" on="0"/>
        <pt x="423" y="3" on="1"/>
        <pt x="336" y="0" on="1"/>
        <pt x="318" y="0" on="0"/>
        <pt x="318" y="31" on="1"/>
        <pt x="386" y="45" on="1"/>
        <pt x="346" y="156" on="1"/>
        <pt x="160" y="146" on="1"/>
      </contour>
      <contour>
        <pt x="253" y="412" on="1"/>
        <pt x="177" y="198" on="1"/>
        <pt x="330" y="198" on="1"/>
      </contour>
    </TTGlyph>
    <TTGlyph name="aacute" xMin="2" yMin="0" xMax="523" yMax="680">
      <contour>
        <pt x="163" y="518" on="1"/>
        <pt x="152" y="537" on="1"/>
        <pt x="249" y="603" on="0"/>
        <pt x="344" y="680" on="1"/>
        <pt x="349" y="674" on="0"/>
        <pt x="369" y="626" on="0"/>
        <pt x="369" y="604" on="0"/>
        <pt x="364" y="601" on="1"/>
        <pt x="289" y="553" on="0"/>
      </contour>
      <contour>
        <pt x="126" y="45" on="1"/>
        <pt x="193" y="31" on="1"/>
        <pt x="193" y="0" on="0"/>
        <pt x="175" y="0" on="1"/>
        <pt x="167" y="0" on="0"/>
        <pt x="88" y="3" on="1"/>
        <pt x="19" y="0" on="1"/>
        <pt x="2" y="0" on="0"/>
        <pt x="2" y="30" on="1"/>
        <pt x="60" y="45" on="1"/>
        <pt x="229" y="489" on="1"/>
        <pt x="294" y="489" on="1"/>
        <pt x="465" y="46" on="1"/>
        <pt x="523" y="30" on="1"/>
        <pt x="523" y="0" on="0"/>
        <pt x="488" y="0" on="0"/>
        <pt x="425" y="3" on="1"/>
        <pt x="338" y="0" on="1"/>
        <pt x="320" y="0" on="0"/>
        <pt x="320" y="31" on="1"/>
        <pt x="388" y="45" on="1"/>
        <pt x="348" y="156" on="1"/>
        <pt x="162" y="146" on="1"/>
      </contour>
      <contour>
        <pt x="255" y="412" on="1"/>
        <pt x="179" y="198" on="1"/>
        <pt x="332" y="198" on="1"/>
      </contour>
    </TTGlyph>
    <TTGlyph name="acircumflex" xMin="0" yMin="0" xMax="521" yMax="685">
      <contour>
        <pt x="254" y="611" on="1"/>
        <pt x="157" y="509" on="1"/>
        <pt x="131" y="526" on="1"/>
        <pt x="195" y="617" on="0"/>
        <pt x="231" y="685" on="1"/>
        <pt x="276" y="685" on="1"/>
        <pt x="312" y="617" on="0"/>
        <pt x="376" y="526" on="1"/>
        <pt x="350" y="509" on="1"/>
      </contour>
      <contour>
        <pt x="124" y="45" on="1"/>
        <pt x="191" y="31" on="1"/>
        <pt x="191" y="0" on="0"/>
        <pt x="173" y="0" on="1"/>
        <pt x="165" y="0" on="0"/>
        <pt x="86" y="3" on="1"/>
        <pt x="17" y="0" on="1"/>
        <pt x="0" y="0" on="0"/>
        <pt x="0" y="30" on="1"/>
        <pt x="58" y="45" on="1"/>
        <pt x="227" y="489" on="1"/>
        <pt x="292" y="489" on="1"/>
        <pt x="463" y="46" on="1"/>
        <pt x="521" y="30" on="1"/>
        <pt x="521" y="0" on="0"/>
        <pt x="486" y="0" on="0"/>
        <pt x="423" y="3" on="1"/>
        <pt x="336" y="0" on="1"/>
        <pt x="318" y="0" on="0"/>
        <pt x="318" y="31" on="1"/>
        <pt x="386" y="45" on="1"/>
        <pt x="346" y="156" on="1"/>
        <pt x="160" y="146" on="1"/>
      </contour>
      <contour>
        <pt x="253" y="412" on="1"/>
        <pt x="177" y="198" on="1"/>
        <pt x="330" y="198" on="1"/>
      </contour>
    </TTGlyph>
    <TTGlyph name="acute" xMin="50" yMin="518" xMax="267" yMax="680">
      <contour>
        <pt x="61" y="518" on="1"/>
        <pt x="50" y="537" on="1"/>
        <pt x="147" y="603" on="0"/>
        <pt x="242" y="680" on="1"/>
        <pt x="247" y="674" on="0"/>
        <pt x="267" y="626" on="0"/>
        <pt x="267" y="604" on="0"/>
        <pt x="262" y="601" on="1"/>
        <pt x="187" y="553" on="0"/>
      </contour>
    </TTGlyph>
    <TTGlyph name="adieresis" xMin="0" yMin="0" xMax="521" yMax="659">
      <contour>
        <pt x="192" y="659" on="1"/>
        <pt x="223" y="659" on="0"/>
        <pt x="223" y="606" on="1"/>
        <pt x="223" y="571" on="0"/>
        <pt x="217" y="553" on="1"/>
        <pt x="185" y="544" on="0"/>
        <pt x="168" y="544" on="1"/>
        <pt x="136" y="544" on="0"/>
        <pt x="136" y="596" on="1"/>
        <pt x="136" y="631" on="0"/>
        <pt x="143" y="652" on="1"/>
        <pt x="176" y="659" on="0"/>
      </contour>
      <contour>
        <pt x="340" y="659" on="1"/>
        <pt x="371" y="659" on="0"/>
        <pt x="371" y="606" on="1"/>
        <pt x="371" y="571" on="0"/>
        <pt x="365" y="553" on="1"/>
        <pt x="333" y="544" on="0"/>
        <pt x="316" y="544" on="1"/>
        <pt x="284" y="544" on="0"/>
        <pt x="284" y="596" on="1"/>
        <pt x="284" y="631" on="0"/>
        <pt x="291" y="652" on="1"/>
        <pt x="324" y="659" on="0"/>
      </contour>
      <contour>
        <pt x="124" y="45" on="1"/>
        <pt x="191" y="31" on="1"/>
        <pt x="191" y="0" on="0"/>
        <pt x="173" y="0" on="1"/>
        <pt x="165" y="0" on="0"/>
        <pt x="86" y="3" on="1"/>
        <pt x="17" y="0" on="1"/>
        <pt x="0" y="0" on="0"/>
        <pt x="0" y="30" on="1"/>
        <pt x="58" y="45" on="1"/>
        <pt x="227" y="489" on="1"/>
        <pt x="292" y="489" on="1"/>
        <pt x="463" y="46" on="1"/>
        <pt x="521" y="30" on="1"/>
        <pt x="521" y="0" on="0"/>
        <pt x="486" y="0" on="0"/>
        <pt x="423" y="3" on="1"/>
        <pt x="336" y="0" on="1"/>
        <pt x="318" y="0" on="0"/>
        <pt x="318" y="31" on="1"/>
        <pt x="386" y="45" on="1"/>
        <pt x="346" y="156" on="1"/>
        <pt x="160" y="146" on="1"/>
      </contour>
      <contour>
        <pt x="253" y="412" on="1"/>
        <pt x="177" y="198" on="1"/>
        <pt x="330" y="198" on="1"/>
      </contour>
    </TTGlyph>
    <TTGlyph name="ae" xMin="-10" yMin="0" xMax="635" yMax="489">
      <contour>
        <pt x="391" y="6" on="1"/>
        <pt x="303" y="0" on="1"/>
        <pt x="286" y="0" on="0"/>
        <pt x="286" y="31" on="1"/>
        <pt x="351" y="46" on="1"/>
        <pt x="325" y="156" on="1"/>
        <pt x="151" y="147" on="1"/>
        <pt x="106" y="45" on="1"/>
        <pt x="174" y="31" on="1"/>
        <pt x="174" y="0" on="0"/>
        <pt x="157" y="0" on="1"/>
        <pt x="156" y="0" on="0"/>
        <pt x="75" y="3" on="1"/>
        <pt x="7" y="0" on="1"/>
        <pt x="-10" y="0" on="0"/>
        <pt x="-10" y="31" on="1"/>
        <pt x="47" y="46" on="1"/>
        <pt x="250" y="489" on="1"/>
        <pt x="320" y="486" on="1"/>
        <pt x="562" y="489" on="1"/>
        <pt x="582" y="489" on="0"/>
        <pt x="592" y="482" on="0"/>
        <pt x="592" y="475" on="1"/>
        <pt x="574" y="369" on="1"/>
        <pt x="533" y="369" on="0"/>
        <pt x="533" y="384" on="1"/>
        <pt x="533" y="442" on="1"/>
        <pt x="331" y="440" on="1"/>
        <pt x="370" y="274" on="1"/>
        <pt x="544" y="274" on="1"/>
        <pt x="544" y="233" on="1"/>
        <pt x="382" y="223" on="1"/>
        <pt x="423" y="49" on="1"/>
        <pt x="576" y="49" on="1"/>
        <pt x="593" y="106" on="1"/>
        <pt x="596" y="117" on="0"/>
        <pt x="613" y="123" on="0"/>
        <pt x="635" y="123" on="1"/>
        <pt x="629" y="12" on="1"/>
        <pt x="626" y="0" on="0"/>
        <pt x="609" y="0" on="1"/>
        <pt x="604" y="0" on="0"/>
      </contour>
      <contour>
        <pt x="266" y="410" on="1"/>
        <pt x="174" y="198" on="1"/>
        <pt x="316" y="198" on="1"/>
      </contour>
    </TTGlyph>
    <TTGlyph name="agrave" xMin="0" yMin="0" xMax="521" yMax="680">
      <contour>
        <pt x="348" y="537" on="1"/>
        <pt x="337" y="518" on="1"/>
        <pt x="211" y="553" on="0"/>
        <pt x="136" y="601" on="1"/>
        <pt x="131" y="604" on="0"/>
        <pt x="131" y="626" on="0"/>
        <pt x="151" y="674" on="0"/>
        <pt x="156" y="680" on="1"/>
        <pt x="248" y="605" on="0"/>
        <pt x="321" y="556" on="1"/>
      </contour>
      <contour>
        <pt x="124" y="45" on="1"/>
        <pt x="191" y="31" on="1"/>
        <pt x="191" y="0" on="0"/>
        <pt x="173" y="0" on="1"/>
        <pt x="165" y="0" on="0"/>
        <pt x="86" y="3" on="1"/>
        <pt x="17" y="0" on="1"/>
        <pt x="0" y="0" on="0"/>
        <pt x="0" y="30" on="1"/>
        <pt x="58" y="45" on="1"/>
        <pt x="227" y="489" on="1"/>
        <pt x="292" y="489" on="1"/>
        <pt x="463" y="46" on="1"/>
        <pt x="521" y="30" on="1"/>
        <pt x="521" y="0" on="0"/>
        <pt x="486" y="0" on="0"/>
        <pt x="423" y="3" on="1"/>
        <pt x="336" y="0" on="1"/>
        <pt x="318" y="0" on="0"/>
        <pt x="318" y="31" on="1"/>
        <pt x="386" y="45" on="1"/>
        <pt x="346" y="156" on="1"/>
        <pt x="160" y="146" on="1"/>
      </contour>
      <contour>
        <pt x="253" y="412" on="1"/>
        <pt x="177" y="198" on="1"/>
        <pt x="330" y="198" on="1"/>
      </contour>
    </TTGlyph>
    <TTGlyph name="ampersand" xMin="7" yMin="-13" xMax="580" yMax="681">
      <contour>
        <pt x="230" y="611" on="1"/>
        <pt x="210" y="580" on="0"/>
        <pt x="210" y="491" on="0"/>
        <pt x="249" y="433" on="1"/>
        <pt x="416" y="176" on="1"/>
        <pt x="468" y="255" on="0"/>
        <pt x="471" y="328" on="1"/>
        <pt x="403" y="363" on="1"/>
        <pt x="398" y="366" on="0"/>
        <pt x="398" y="379" on="0"/>
        <pt x="400" y="387" on="1"/>
        <pt x="407" y="407" on="0"/>
        <pt x="409" y="407" on="1"/>
        <pt x="414" y="407" on="0"/>
        <pt x="529" y="372" on="0"/>
        <pt x="539" y="367" on="1"/>
        <pt x="525" y="244" on="0"/>
        <pt x="446" y="131" on="1"/>
        <pt x="496" y="55" on="1"/>
        <pt x="580" y="31" on="1"/>
        <pt x="580" y="0" on="0"/>
        <pt x="564" y="0" on="1"/>
        <pt x="436" y="0" on="1"/>
        <pt x="391" y="68" on="1"/>
        <pt x="308" y="-13" on="0"/>
        <pt x="112" y="-13" on="0"/>
        <pt x="7" y="83" on="0"/>
        <pt x="7" y="215" on="0"/>
        <pt x="82" y="333" on="0"/>
        <pt x="152" y="373" on="1"/>
        <pt x="182" y="390" on="1"/>
        <pt x="133" y="470" on="0"/>
        <pt x="133" y="525" on="1"/>
        <pt x="133" y="607" on="0"/>
        <pt x="230" y="681" on="0"/>
        <pt x="401" y="681" on="0"/>
        <pt x="488" y="641" on="1"/>
        <pt x="462" y="492" on="1"/>
        <pt x="417" y="492" on="0"/>
        <pt x="417" y="506" on="1"/>
        <pt x="417" y="610" on="1"/>
        <pt x="366" y="628" on="0"/>
        <pt x="270" y="628" on="0"/>
      </contour>
      <contour>
        <pt x="215" y="45" on="1"/>
        <pt x="294" y="45" on="0"/>
        <pt x="363" y="111" on="1"/>
        <pt x="206" y="353" on="1"/>
        <pt x="169" y="329" on="1"/>
        <pt x="127" y="302" on="0"/>
        <pt x="83" y="222" on="0"/>
        <pt x="83" y="124" on="0"/>
        <pt x="154" y="45" on="0"/>
      </contour>
    </TTGlyph>
    <TTGlyph name="apple" xMin="100" yMin="-114" xMax="823" yMax="608">
      <contour>
        <pt x="589" y="-89" on="1"/>
        <pt x="566" y="-88" on="1"/>
        <pt x="552" y="-88" on="0"/>
        <pt x="517" y="-112" on="0"/>
        <pt x="508" y="-112" on="1"/>
        <pt x="462" y="-102" on="1"/>
        <pt x="454" y="-102" on="0"/>
        <pt x="423" y="-114" on="0"/>
        <pt x="406" y="-114" on="0"/>
        <pt x="374" y="-89" on="0"/>
        <pt x="361" y="-89" on="1"/>
        <pt x="337" y="-91" on="1"/>
        <pt x="322" y="-91" on="0"/>
        <pt x="304" y="-74" on="1"/>
        <pt x="286" y="-55" on="1"/>
        <pt x="274" y="-49" on="0"/>
        <pt x="248" y="-47" on="0"/>
        <pt x="230" y="-36" on="0"/>
        <pt x="216" y="-1" on="0"/>
        <pt x="205" y="8" on="0"/>
        <pt x="177" y="19" on="0"/>
        <pt x="171" y="28" on="1"/>
        <pt x="166" y="37" on="0"/>
        <pt x="162" y="66" on="0"/>
        <pt x="154" y="79" on="0"/>
        <pt x="144" y="86" on="1"/>
        <pt x="122" y="104" on="0"/>
        <pt x="122" y="124" on="1"/>
        <pt x="125" y="149" on="1"/>
        <pt x="125" y="158" on="0"/>
        <pt x="100" y="193" on="0"/>
        <pt x="100" y="211" on="0"/>
        <pt x="112" y="240" on="0"/>
        <pt x="112" y="257" on="0"/>
        <pt x="100" y="283" on="0"/>
        <pt x="100" y="301" on="0"/>
        <pt x="125" y="342" on="0"/>
        <pt x="125" y="351" on="1"/>
        <pt x="124" y="376" on="1"/>
        <pt x="124" y="391" on="0"/>
        <pt x="157" y="420" on="0"/>
        <pt x="162" y="430" on="0"/>
        <pt x="166" y="462" on="0"/>
        <pt x="174" y="474" on="0"/>
        <pt x="205" y="486" on="0"/>
        <pt x="215" y="496" on="0"/>
        <pt x="229" y="527" on="0"/>
        <pt x="242" y="538" on="0"/>
        <pt x="280" y="546" on="0"/>
        <pt x="291" y="552" on="0"/>
        <pt x="321" y="586" on="0"/>
        <pt x="335" y="587" on="1"/>
        <pt x="361" y="585" on="1"/>
        <pt x="374" y="585" on="0"/>
        <pt x="405" y="608" on="0"/>
        <pt x="416" y="608" on="1"/>
        <pt x="460" y="596" on="1"/>
        <pt x="505" y="608" on="1"/>
        <pt x="518" y="608" on="0"/>
        <pt x="550" y="583" on="0"/>
        <pt x="562" y="583" on="1"/>
        <pt x="590" y="586" on="1"/>
        <pt x="606" y="586" on="0"/>
        <pt x="632" y="553" on="0"/>
        <pt x="645" y="546" on="0"/>
        <pt x="675" y="540" on="0"/>
        <pt x="690" y="530" on="0"/>
        <pt x="700" y="502" on="0"/>
        <pt x="711" y="492" on="0"/>
        <pt x="751" y="471" on="0"/>
        <pt x="760" y="455" on="0"/>
        <pt x="761" y="423" on="0"/>
        <pt x="766" y="414" on="0"/>
        <pt x="800" y="385" on="0"/>
        <pt x="800" y="369" on="1"/>
        <pt x="799" y="344" on="1"/>
        <pt x="799" y="331" on="0"/>
        <pt x="823" y="294" on="0"/>
        <pt x="823" y="276" on="0"/>
        <pt x="812" y="250" on="0"/>
        <pt x="812" y="236" on="0"/>
        <pt x="823" y="207" on="0"/>
        <pt x="822" y="191" on="0"/>
        <pt x="798" y="166" on="0"/>
        <pt x="798" y="152" on="1"/>
        <pt x="800" y="120" on="1"/>
        <pt x="800" y="104" on="0"/>
        <pt x="768" y="78" on="0"/>
        <pt x="763" y="68" on="0"/>
        <pt x="754" y="30" on="0"/>
        <pt x="743" y="17" on="0"/>
        <pt x="718" y="6" on="0"/>
        <pt x="708" y="-4" on="0"/>
        <pt x="690" y="-37" on="0"/>
        <pt x="676" y="-47" on="0"/>
        <pt x="641" y="-56" on="0"/>
        <pt x="631" y="-62" on="0"/>
        <pt x="604" y="-89" on="0"/>
      </contour>
      <contour>
        <pt x="462" y="-6" on="1"/>
        <pt x="495" y="-13" on="1"/>
        <pt x="501" y="-13" on="0"/>
        <pt x="512" y="-6" on="1"/>
        <pt x="527" y="4" on="0"/>
        <pt x="539" y="4" on="1"/>
        <pt x="554" y="3" on="1"/>
        <pt x="566" y="3" on="0"/>
        <pt x="584" y="23" on="0"/>
        <pt x="591" y="27" on="0"/>
        <pt x="617" y="34" on="0"/>
        <pt x="628" y="42" on="0"/>
        <pt x="641" y="65" on="0"/>
        <pt x="648" y="72" on="0"/>
        <pt x="666" y="80" on="0"/>
        <pt x="674" y="89" on="0"/>
        <pt x="680" y="117" on="0"/>
        <pt x="685" y="125" on="0"/>
        <pt x="707" y="143" on="0"/>
        <pt x="707" y="157" on="1"/>
        <pt x="706" y="177" on="1"/>
        <pt x="706" y="188" on="0"/>
        <pt x="723" y="207" on="0"/>
        <pt x="724" y="213" on="1"/>
        <pt x="716" y="245" on="1"/>
        <pt x="724" y="273" on="1"/>
        <pt x="724" y="281" on="0"/>
        <pt x="706" y="309" on="0"/>
        <pt x="706" y="318" on="1"/>
        <pt x="707" y="335" on="1"/>
        <pt x="707" y="347" on="0"/>
        <pt x="683" y="367" on="0"/>
        <pt x="679" y="375" on="0"/>
        <pt x="678" y="398" on="0"/>
        <pt x="672" y="409" on="0"/>
        <pt x="643" y="424" on="0"/>
        <pt x="635" y="432" on="0"/>
        <pt x="627" y="452" on="0"/>
        <pt x="617" y="460" on="0"/>
        <pt x="595" y="464" on="0"/>
        <pt x="585" y="469" on="0"/>
        <pt x="567" y="493" on="0"/>
        <pt x="555" y="493" on="1"/>
        <pt x="535" y="491" on="1"/>
        <pt x="526" y="491" on="0"/>
        <pt x="504" y="509" on="0"/>
        <pt x="494" y="509" on="1"/>
        <pt x="461" y="500" on="1"/>
        <pt x="429" y="509" on="1"/>
        <pt x="421" y="509" on="0"/>
        <pt x="397" y="492" on="0"/>
        <pt x="387" y="492" on="1"/>
        <pt x="370" y="493" on="1"/>
        <pt x="359" y="493" on="0"/>
        <pt x="338" y="468" on="0"/>
        <pt x="329" y="463" on="0"/>
        <pt x="303" y="458" on="0"/>
        <pt x="293" y="450" on="0"/>
        <pt x="283" y="428" on="0"/>
        <pt x="275" y="420" on="0"/>
        <pt x="254" y="412" on="0"/>
        <pt x="250" y="407" on="1"/>
        <pt x="248" y="403" on="0"/>
        <pt x="244" y="380" on="0"/>
        <pt x="240" y="372" on="0"/>
        <pt x="216" y="351" on="0"/>
        <pt x="216" y="340" on="1"/>
        <pt x="217" y="324" on="1"/>
        <pt x="217" y="316" on="0"/>
        <pt x="200" y="286" on="0"/>
        <pt x="200" y="278" on="1"/>
        <pt x="208" y="248" on="1"/>
        <pt x="200" y="215" on="1"/>
        <pt x="200" y="207" on="0"/>
        <pt x="217" y="182" on="0"/>
        <pt x="217" y="174" on="1"/>
        <pt x="215" y="158" on="1"/>
        <pt x="215" y="147" on="0"/>
        <pt x="240" y="124" on="0"/>
        <pt x="244" y="116" on="0"/>
        <pt x="247" y="95" on="0"/>
        <pt x="255" y="82" on="0"/>
        <pt x="275" y="74" on="0"/>
        <pt x="283" y="67" on="0"/>
        <pt x="294" y="41" on="0"/>
        <pt x="306" y="33" on="0"/>
        <pt x="325" y="33" on="0"/>
        <pt x="337" y="27" on="0"/>
        <pt x="360" y="2" on="0"/>
        <pt x="371" y="2" on="1"/>
        <pt x="386" y="3" on="1"/>
        <pt x="396" y="3" on="0"/>
        <pt x="420" y="-14" on="0"/>
        <pt x="426" y="-15" on="1"/>
      </contour>
      <contour>
        <pt x="392" y="417" on="0"/>
        <pt x="532" y="417" on="0"/>
        <pt x="632" y="318" on="0"/>
        <pt x="632" y="176" on="0"/>
        <pt x="532" y="77" on="0"/>
        <pt x="392" y="77" on="0"/>
        <pt x="292" y="176" on="0"/>
        <pt x="292" y="318" on="0"/>
      </contour>
      <contour>
        <pt x="505" y="292" on="1"/>
        <pt x="557" y="292" on="1"/>
        <pt x="557" y="360" on="1"/>
        <pt x="366" y="360" on="1"/>
        <pt x="366" y="292" on="1"/>
        <pt x="420" y="292" on="1"/>
        <pt x="420" y="117" on="1"/>
        <pt x="505" y="117" on="1"/>
      </contour>
    </TTGlyph>
    <TTGlyph name="approxequal" xMin="65" yMin="155" xMax="445" yMax="399">
      <contour>
        <pt x="423" y="399" on="1"/>
        <pt x="445" y="359" on="1"/>
        <pt x="404" y="313" on="0"/>
        <pt x="341" y="313" on="1"/>
        <pt x="310" y="313" on="0"/>
        <pt x="191" y="338" on="0"/>
        <pt x="120" y="338" on="0"/>
        <pt x="88" y="313" on="1"/>
        <pt x="65" y="353" on="1"/>
        <pt x="105" y="397" on="0"/>
        <pt x="168" y="397" on="1"/>
        <pt x="198" y="397" on="0"/>
        <pt x="318" y="372" on="0"/>
        <pt x="388" y="372" on="0"/>
      </contour>
      <contour>
        <pt x="423" y="241" on="1"/>
        <pt x="445" y="201" on="1"/>
        <pt x="404" y="155" on="0"/>
        <pt x="341" y="155" on="1"/>
        <pt x="310" y="155" on="0"/>
        <pt x="191" y="180" on="0"/>
        <pt x="120" y="180" on="0"/>
        <pt x="88" y="155" on="1"/>
        <pt x="65" y="195" on="1"/>
        <pt x="105" y="239" on="0"/>
        <pt x="168" y="239" on="1"/>
        <pt x="198" y="239" on="0"/>
        <pt x="318" y="214" on="0"/>
        <pt x="388" y="214" on="0"/>
      </contour>
    </TTGlyph>
    <TTGlyph name="aring" xMin="0" yMin="0" xMax="521" yMax="691">
      <contour>
        <pt x="295" y="691" on="0"/>
        <pt x="346" y="647" on="0"/>
        <pt x="346" y="561" on="0"/>
        <pt x="295" y="515" on="0"/>
        <pt x="211" y="515" on="0"/>
        <pt x="161" y="561" on="0"/>
        <pt x="161" y="644" on="0"/>
        <pt x="215" y="691" on="0"/>
      </contour>
      <contour>
        <pt x="227" y="653" on="1"/>
        <pt x="207" y="644" on="0"/>
        <pt x="207" y="576" on="0"/>
        <pt x="234" y="548" on="0"/>
        <pt x="254" y="548" on="1"/>
        <pt x="300" y="548" on="0"/>
        <pt x="300" y="604" on="1"/>
        <pt x="300" y="629" on="0"/>
        <pt x="274" y="658" on="0"/>
        <pt x="237" y="658" on="0"/>
      </contour>
      <contour>
        <pt x="124" y="45" on="1"/>
        <pt x="191" y="31" on="1"/>
        <pt x="191" y="0" on="0"/>
        <pt x="173" y="0" on="1"/>
        <pt x="165" y="0" on="0"/>
        <pt x="86" y="3" on="1"/>
        <pt x="17" y="0" on="1"/>
        <pt x="0" y="0" on="0"/>
        <pt x="0" y="30" on="1"/>
        <pt x="58" y="45" on="1"/>
        <pt x="227" y="489" on="1"/>
        <pt x="292" y="489" on="1"/>
        <pt x="463" y="46" on="1"/>
        <pt x="521" y="30" on="1"/>
        <pt x="521" y="0" on="0"/>
        <pt x="486" y="0" on="0"/>
        <pt x="423" y="3" on="1"/>
        <pt x="336" y="0" on="1"/>
        <pt x="318" y="0" on="0"/>
        <pt x="318" y="31" on="1"/>
        <pt x="386" y="45" on="1"/>
        <pt x="346" y="156" on="1"/>
        <pt x="160" y="146" on="1"/>
      </contour>
      <contour>
        <pt x="253" y="412" on="1"/>
        <pt x="177" y="198" on="1"/>
        <pt x="330" y="198" on="1"/>
      </contour>
    </TTGlyph>
    <TTGlyph name="asciicircum" xMin="75" yMin="225" xMax="436" yMax="512">
      <contour>
        <pt x="135" y="225" on="1"/>
        <pt x="75" y="225" on="1"/>
        <pt x="227" y="512" on="1"/>
        <pt x="284" y="512" on="1"/>
        <pt x="436" y="225" on="1"/>
        <pt x="376" y="225" on="1"/>
        <pt x="255" y="457" on="1"/>
      </contour>
    </TTGlyph>
    <TTGlyph name="asciitilde" xMin="65" yMin="238" xMax="445" yMax="321">
      <contour>
        <pt x="423" y="321" on="1"/>
        <pt x="445" y="284" on="1"/>
        <pt x="404" y="238" on="0"/>
        <pt x="341" y="238" on="1"/>
        <pt x="310" y="238" on="0"/>
        <pt x="191" y="263" on="0"/>
        <pt x="120" y="263" on="0"/>
        <pt x="88" y="238" on="1"/>
        <pt x="65" y="275" on="1"/>
        <pt x="105" y="319" on="0"/>
        <pt x="168" y="319" on="1"/>
        <pt x="198" y="319" on="0"/>
        <pt x="318" y="294" on="0"/>
        <pt x="388" y="294" on="0"/>
      </contour>
    </TTGlyph>
    <TTGlyph name="asterisk" xMin="39" yMin="353" xMax="411" yMax="712">
      <contour>
        <pt x="239" y="551" on="1"/>
        <pt x="209" y="551" on="1"/>
        <pt x="200" y="572" on="0"/>
        <pt x="183" y="663" on="0"/>
        <pt x="183" y="700" on="1"/>
        <pt x="183" y="712" on="0"/>
        <pt x="263" y="712" on="0"/>
        <pt x="263" y="700" on="1"/>
        <pt x="263" y="663" on="0"/>
        <pt x="247" y="571" on="0"/>
      </contour>
      <contour>
        <pt x="203" y="545" on="1"/>
        <pt x="193" y="516" on="1"/>
        <pt x="159" y="516" on="0"/>
        <pt x="39" y="533" on="0"/>
        <pt x="39" y="546" on="1"/>
        <pt x="39" y="562" on="0"/>
        <pt x="57" y="614" on="0"/>
        <pt x="68" y="614" on="1"/>
        <pt x="81" y="614" on="0"/>
        <pt x="187" y="559" on="0"/>
      </contour>
      <contour>
        <pt x="197" y="509" on="1"/>
        <pt x="222" y="490" on="1"/>
        <pt x="217" y="469" on="0"/>
        <pt x="196" y="427" on="1"/>
        <pt x="160" y="353" on="0"/>
        <pt x="150" y="353" on="1"/>
        <pt x="136" y="353" on="0"/>
        <pt x="89" y="389" on="0"/>
        <pt x="89" y="399" on="1"/>
        <pt x="89" y="401" on="0"/>
        <pt x="112" y="432" on="0"/>
        <pt x="179" y="498" on="0"/>
      </contour>
      <contour>
        <pt x="230" y="492" on="1"/>
        <pt x="255" y="510" on="1"/>
        <pt x="273" y="499" on="0"/>
        <pt x="308" y="466" on="1"/>
        <pt x="355" y="421" on="0"/>
        <pt x="364" y="402" on="1"/>
        <pt x="364" y="391" on="0"/>
        <pt x="316" y="355" on="0"/>
        <pt x="300" y="355" on="0"/>
        <pt x="298" y="357" on="1"/>
        <pt x="277" y="388" on="0"/>
        <pt x="235" y="472" on="0"/>
      </contour>
      <contour>
        <pt x="257" y="519" on="1"/>
        <pt x="247" y="548" on="1"/>
        <pt x="263" y="562" on="0"/>
        <pt x="369" y="617" on="0"/>
        <pt x="382" y="617" on="1"/>
        <pt x="393" y="617" on="0"/>
        <pt x="411" y="565" on="0"/>
        <pt x="411" y="549" on="1"/>
        <pt x="411" y="536" on="0"/>
        <pt x="291" y="519" on="0"/>
      </contour>
    </TTGlyph>
    <TTGlyph name="at" xMin="50" yMin="-172" xMax="832" yMax="592">
      <contour>
        <pt x="662" y="592" on="0"/>
        <pt x="832" y="437" on="0"/>
        <pt x="832" y="172" on="0"/>
        <pt x="678" y="-12" on="0"/>
        <pt x="562" y="-12" on="1"/>
        <pt x="528" y="-12" on="0"/>
        <pt x="494" y="18" on="0"/>
        <pt x="493" y="51" on="1"/>
        <pt x="442" y="27" on="1"/>
        <pt x="359" y="-12" on="0"/>
        <pt x="280" y="-12" on="0"/>
        <pt x="245" y="43" on="0"/>
        <pt x="245" y="179" on="0"/>
        <pt x="278" y="298" on="0"/>
        <pt x="329" y="371" on="0"/>
        <pt x="402" y="426" on="0"/>
        <pt x="467" y="452" on="0"/>
        <pt x="506" y="462" on="1"/>
        <pt x="528" y="462" on="0"/>
        <pt x="581" y="441" on="1"/>
        <pt x="604" y="468" on="1"/>
        <pt x="627" y="468" on="1"/>
        <pt x="605" y="368" on="0"/>
        <pt x="557" y="89" on="0"/>
        <pt x="557" y="65" on="1"/>
        <pt x="557" y="29" on="0"/>
        <pt x="637" y="29" on="0"/>
        <pt x="704" y="80" on="0"/>
        <pt x="723" y="121" on="1"/>
        <pt x="761" y="203" on="0"/>
        <pt x="761" y="295" on="1"/>
        <pt x="761" y="416" on="0"/>
        <pt x="624" y="555" on="0"/>
        <pt x="403" y="555" on="0"/>
        <pt x="219" y="421" on="0"/>
        <pt x="121" y="224" on="0"/>
        <pt x="121" y="3" on="0"/>
        <pt x="256" y="-135" on="0"/>
        <pt x="489" y="-135" on="0"/>
        <pt x="596" y="-50" on="1"/>
        <pt x="643" y="-73" on="1"/>
        <pt x="513" y="-172" on="0"/>
        <pt x="219" y="-172" on="0"/>
        <pt x="50" y="-17" on="0"/>
        <pt x="50" y="236" on="0"/>
        <pt x="175" y="454" on="0"/>
        <pt x="396" y="592" on="0"/>
      </contour>
      <contour>
        <pt x="358" y="40" on="1"/>
        <pt x="382" y="40" on="0"/>
        <pt x="425" y="60" on="1"/>
        <pt x="495" y="92" on="1"/>
        <pt x="549" y="405" on="1"/>
        <pt x="474" y="405" on="1"/>
        <pt x="418" y="405" on="0"/>
        <pt x="344" y="312" on="0"/>
        <pt x="316" y="184" on="0"/>
        <pt x="316" y="105" on="1"/>
        <pt x="316" y="40" on="0"/>
      </contour>
    </TTGlyph>
    <TTGlyph name="atilde" xMin="0" yMin="0" xMax="521" yMax="651">
      <contour>
        <pt x="394" y="651" on="1"/>
        <pt x="411" y="632" on="1"/>
        <pt x="368" y="557" on="0"/>
        <pt x="310" y="557" on="1"/>
        <pt x="286" y="557" on="0"/>
        <pt x="197" y="584" on="0"/>
        <pt x="144" y="584" on="0"/>
        <pt x="112" y="554" on="1"/>
        <pt x="95" y="573" on="1"/>
        <pt x="138" y="648" on="0"/>
        <pt x="196" y="648" on="1"/>
        <pt x="220" y="648" on="0"/>
        <pt x="309" y="621" on="0"/>
        <pt x="362" y="621" on="0"/>
      </contour>
      <contour>
        <pt x="124" y="45" on="1"/>
        <pt x="191" y="31" on="1"/>
        <pt x="191" y="0" on="0"/>
        <pt x="173" y="0" on="1"/>
        <pt x="165" y="0" on="0"/>
        <pt x="86" y="3" on="1"/>
        <pt x="17" y="0" on="1"/>
        <pt x="0" y="0" on="0"/>
        <pt x="0" y="30" on="1"/>
        <pt x="58" y="45" on="1"/>
        <pt x="227" y="489" on="1"/>
        <pt x="292" y="489" on="1"/>
        <pt x="463" y="46" on="1"/>
        <pt x="521" y="30" on="1"/>
        <pt x="521" y="0" on="0"/>
        <pt x="486" y="0" on="0"/>
        <pt x="423" y="3" on="1"/>
        <pt x="336" y="0" on="1"/>
        <pt x="318" y="0" on="0"/>
        <pt x="318" y="31" on="1"/>
        <pt x="386" y="45" on="1"/>
        <pt x="346" y="156" on="1"/>
        <pt x="160" y="146" on="1"/>
      </contour>
      <contour>
        <pt x="253" y="412" on="1"/>
        <pt x="177" y="198" on="1"/>
        <pt x="330" y="198" on="1"/>
      </contour>
    </TTGlyph>
    <TTGlyph name="b" xMin="55" yMin="0" xMax="449" yMax="489">
      <contour>
        <pt x="290" y="0" on="1"/>
        <pt x="156" y="6" on="1"/>
        <pt x="73" y="0" on="1"/>
        <pt x="55" y="0" on="0"/>
        <pt x="55" y="31" on="1"/>
        <pt x="119" y="45" on="1"/>
        <pt x="119" y="444" on="1"/>
        <pt x="55" y="458" on="1"/>
        <pt x="55" y="489" on="0"/>
        <pt x="73" y="489" on="1"/>
        <pt x="88" y="489" on="0"/>
        <pt x="156" y="486" on="1"/>
        <pt x="245" y="489" on="1"/>
        <pt x="322" y="489" on="0"/>
        <pt x="408" y="416" on="0"/>
        <pt x="408" y="366" on="1"/>
        <pt x="408" y="335" on="0"/>
        <pt x="373" y="279" on="0"/>
        <pt x="341" y="262" on="1"/>
        <pt x="394" y="246" on="0"/>
        <pt x="449" y="177" on="0"/>
        <pt x="449" y="136" on="1"/>
        <pt x="449" y="78" on="0"/>
        <pt x="363" y="0" on="0"/>
      </contour>
      <contour>
        <pt x="184" y="50" on="1"/>
        <pt x="232" y="42" on="0"/>
        <pt x="323" y="42" on="0"/>
        <pt x="377" y="97" on="0"/>
        <pt x="377" y="175" on="0"/>
        <pt x="313" y="236" on="0"/>
        <pt x="259" y="238" on="1"/>
        <pt x="191" y="230" on="1"/>
      </contour>
      <contour>
        <pt x="237" y="451" on="1"/>
        <pt x="184" y="443" on="1"/>
        <pt x="191" y="274" on="1"/>
        <pt x="242" y="274" on="1"/>
        <pt x="288" y="278" on="0"/>
        <pt x="339" y="331" on="0"/>
        <pt x="339" y="398" on="0"/>
        <pt x="284" y="450" on="0"/>
      </contour>
    </TTGlyph>
    <TTGlyph name="backslash" xMin="-30" yMin="-50" xMax="357" yMax="750">
      <contour>
        <pt x="24" y="750" on="1"/>
        <pt x="357" y="-50" on="1"/>
        <pt x="303" y="-50" on="1"/>
        <pt x="-30" y="750" on="1"/>
      </contour>
    </TTGlyph>
    <TTGlyph name="bar" xMin="100" yMin="-208" xMax="170" yMax="673">
      <contour>
        <pt x="100" y="-208" on="1"/>
        <pt x="100" y="673" on="1"/>
        <pt x="170" y="673" on="1"/>
        <pt x="170" y="-208" on="1"/>
      </contour>
    </TTGlyph>
    <TTGlyph name="braceleft" xMin="42" yMin="-233" xMax="284" yMax="731">
      <contour>
        <pt x="144" y="253" on="1"/>
        <pt x="144" y="245" on="1"/>
        <pt x="201" y="236" on="0"/>
        <pt x="201" y="193" on="1"/>
        <pt x="201" y="186" on="0"/>
        <pt x="166" y="-42" on="0"/>
        <pt x="166" y="-182" on="1"/>
        <pt x="184" y="-182" on="0"/>
        <pt x="284" y="-198" on="0"/>
        <pt x="284" y="-199" on="1"/>
        <pt x="284" y="-233" on="0"/>
        <pt x="267" y="-233" on="1"/>
        <pt x="112" y="-233" on="1"/>
        <pt x="98" y="-130" on="0"/>
        <pt x="98" y="-65" on="1"/>
        <pt x="98" y="83" on="0"/>
        <pt x="142" y="209" on="1"/>
        <pt x="42" y="236" on="1"/>
        <pt x="42" y="263" on="1"/>
        <pt x="142" y="290" on="1"/>
        <pt x="98" y="416" on="0"/>
        <pt x="98" y="563" on="1"/>
        <pt x="98" y="593" on="0"/>
        <pt x="112" y="731" on="1"/>
        <pt x="267" y="731" on="1"/>
        <pt x="284" y="731" on="0"/>
        <pt x="284" y="697" on="1"/>
        <pt x="284" y="695" on="0"/>
        <pt x="175" y="680" on="0"/>
        <pt x="166" y="680" on="1"/>
        <pt x="166" y="540" on="0"/>
        <pt x="201" y="313" on="0"/>
        <pt x="201" y="306" on="1"/>
        <pt x="201" y="262" on="0"/>
      </contour>
    </TTGlyph>
    <TTGlyph name="braceright" xMin="-12" yMin="-233" xMax="230" yMax="731">
      <contour>
        <pt x="128" y="245" on="1"/>
        <pt x="128" y="253" on="1"/>
        <pt x="71" y="262" on="0"/>
        <pt x="71" y="305" on="1"/>
        <pt x="71" y="312" on="0"/>
        <pt x="106" y="540" on="0"/>
        <pt x="106" y="680" on="1"/>
        <pt x="88" y="680" on="0"/>
        <pt x="-12" y="696" on="0"/>
        <pt x="-12" y="697" on="1"/>
        <pt x="-12" y="731" on="0"/>
        <pt x="5" y="731" on="1"/>
        <pt x="160" y="731" on="1"/>
        <pt x="174" y="628" on="0"/>
        <pt x="174" y="563" on="1"/>
        <pt x="174" y="415" on="0"/>
        <pt x="130" y="289" on="1"/>
        <pt x="230" y="262" on="1"/>
        <pt x="230" y="235" on="1"/>
        <pt x="130" y="208" on="1"/>
        <pt x="174" y="82" on="0"/>
        <pt x="174" y="-65" on="1"/>
        <pt x="174" y="-95" on="0"/>
        <pt x="160" y="-233" on="1"/>
        <pt x="5" y="-233" on="1"/>
        <pt x="-12" y="-233" on="0"/>
        <pt x="-12" y="-199" on="1"/>
        <pt x="-12" y="-197" on="0"/>
        <pt x="97" y="-182" on="0"/>
        <pt x="106" y="-182" on="1"/>
        <pt x="106" y="-42" on="0"/>
        <pt x="71" y="185" on="0"/>
        <pt x="71" y="192" on="1"/>
        <pt x="71" y="236" on="0"/>
      </contour>
    </TTGlyph>
    <TTGlyph name="bracketleft" xMin="73" yMin="-233" xMax="259" yMax="731">
      <contour>
        <pt x="117" y="249" on="1"/>
        <pt x="73" y="395" on="0"/>
        <pt x="73" y="563" on="1"/>
        <pt x="73" y="593" on="0"/>
        <pt x="87" y="731" on="1"/>
        <pt x="242" y="731" on="1"/>
        <pt x="259" y="731" on="0"/>
        <pt x="259" y="697" on="1"/>
        <pt x="259" y="695" on="0"/>
        <pt x="156" y="680" on="0"/>
        <pt x="147" y="680" on="1"/>
        <pt x="147" y="-182" on="1"/>
        <pt x="163" y="-182" on="0"/>
        <pt x="259" y="-198" on="0"/>
        <pt x="259" y="-199" on="1"/>
        <pt x="259" y="-233" on="0"/>
        <pt x="242" y="-233" on="1"/>
        <pt x="87" y="-233" on="1"/>
        <pt x="73" y="-130" on="0"/>
        <pt x="73" y="-65" on="1"/>
        <pt x="73" y="103" on="0"/>
      </contour>
    </TTGlyph>
    <TTGlyph name="bracketright" xMin="-12" yMin="-233" xMax="174" yMax="731">
      <contour>
        <pt x="130" y="249" on="1"/>
        <pt x="174" y="103" on="0"/>
        <pt x="174" y="-65" on="1"/>
        <pt x="174" y="-95" on="0"/>
        <pt x="160" y="-233" on="1"/>
        <pt x="5" y="-233" on="1"/>
        <pt x="-12" y="-233" on="0"/>
        <pt x="-12" y="-199" on="1"/>
        <pt x="-12" y="-197" on="0"/>
        <pt x="91" y="-182" on="0"/>
        <pt x="100" y="-182" on="1"/>
        <pt x="100" y="680" on="1"/>
        <pt x="84" y="680" on="0"/>
        <pt x="-12" y="696" on="0"/>
        <pt x="-12" y="697" on="1"/>
        <pt x="-12" y="731" on="0"/>
        <pt x="5" y="731" on="1"/>
        <pt x="160" y="731" on="1"/>
        <pt x="174" y="628" on="0"/>
        <pt x="174" y="563" on="1"/>
        <pt x="174" y="395" on="0"/>
      </contour>
    </TTGlyph>
    <TTGlyph name="breve" xMin="43" yMin="510" xMax="289" yMax="669">
      <contour>
        <pt x="113" y="577" on="0"/>
        <pt x="219" y="577" on="0"/>
        <pt x="255" y="669" on="1"/>
        <pt x="289" y="661" on="1"/>
        <pt x="263" y="583" on="0"/>
        <pt x="209" y="510" on="0"/>
        <pt x="123" y="510" on="0"/>
        <pt x="69" y="583" on="0"/>
        <pt x="43" y="661" on="1"/>
        <pt x="77" y="669" on="1"/>
      </contour>
    </TTGlyph>
    <TTGlyph name="brokenbar" xMin="100" yMin="-208" xMax="170" yMax="673">
      <contour>
        <pt x="100" y="-208" on="1"/>
        <pt x="100" y="143" on="1"/>
        <pt x="170" y="143" on="1"/>
        <pt x="170" y="-208" on="1"/>
      </contour>
      <contour>
        <pt x="100" y="322" on="1"/>
        <pt x="100" y="673" on="1"/>
        <pt x="170" y="673" on="1"/>
        <pt x="170" y="322" on="1"/>
      </contour>
    </TTGlyph>
    <TTGlyph name="bullet" xMin="50" yMin="186" xMax="201" yMax="347">
      <contour>
        <pt x="147" y="347" on="1"/>
        <pt x="201" y="347" on="0"/>
        <pt x="201" y="271" on="1"/>
        <pt x="201" y="241" on="0"/>
        <pt x="194" y="208" on="1"/>
        <pt x="191" y="197" on="1"/>
        <pt x="138" y="186" on="0"/>
        <pt x="105" y="186" on="1"/>
        <pt x="50" y="186" on="0"/>
        <pt x="50" y="260" on="1"/>
        <pt x="50" y="293" on="0"/>
        <pt x="59" y="328" on="1"/>
        <pt x="62" y="339" on="1"/>
        <pt x="116" y="347" on="0"/>
      </contour>
    </TTGlyph>
    <TTGlyph name="c" xMin="35" yMin="-8" xMax="452" yMax="497">
      <contour>
        <pt x="452" y="144" on="1"/>
        <pt x="446" y="38" on="1"/>
        <pt x="381" y="-8" on="0"/>
        <pt x="169" y="-8" on="0"/>
        <pt x="35" y="123" on="0"/>
        <pt x="35" y="366" on="0"/>
        <pt x="179" y="497" on="0"/>
        <pt x="290" y="497" on="1"/>
        <pt x="380" y="497" on="0"/>
        <pt x="448" y="453" on="1"/>
        <pt x="427" y="343" on="1"/>
        <pt x="384" y="343" on="0"/>
        <pt x="384" y="359" on="1"/>
        <pt x="384" y="431" on="1"/>
        <pt x="342" y="445" on="0"/>
        <pt x="236" y="445" on="0"/>
        <pt x="184" y="430" on="1"/>
        <pt x="152" y="406" on="0"/>
        <pt x="112" y="307" on="0"/>
        <pt x="112" y="246" on="1"/>
        <pt x="112" y="146" on="0"/>
        <pt x="209" y="40" on="0"/>
        <pt x="351" y="40" on="0"/>
        <pt x="392" y="63" on="1"/>
        <pt x="409" y="131" on="1"/>
        <pt x="414" y="144" on="0"/>
      </contour>
    </TTGlyph>
    <TTGlyph name="caron" xMin="49" yMin="509" xMax="294" yMax="685">
      <contour>
        <pt x="166" y="583" on="1"/>
        <pt x="269" y="685" on="1"/>
        <pt x="294" y="668" on="1"/>
        <pt x="222" y="574" on="0"/>
        <pt x="183" y="509" on="1"/>
        <pt x="138" y="509" on="1"/>
        <pt x="111" y="571" on="0"/>
        <pt x="49" y="668" on="1"/>
        <pt x="76" y="685" on="1"/>
      </contour>
    </TTGlyph>
    <TTGlyph name="ccedilla" xMin="35" yMin="-233" xMax="452" yMax="497">
      <component glyphName="c" x="0" y="0" flags="0x1004"/>
      <component glyphName="cedilla" x="46" y="0" flags="0x1004"/>
    </TTGlyph>
    <TTGlyph name="cedilla" xMin="110" yMin="-233" xMax="299" yMax="0">
      <contour>
        <pt x="160" y="-83" on="1"/>
        <pt x="194" y="0" on="1"/>
        <pt x="226" y="0" on="1"/>
        <pt x="209" y="-56" on="1"/>
        <pt x="254" y="-62" on="0"/>
        <pt x="299" y="-109" on="0"/>
        <pt x="299" y="-177" on="0"/>
        <pt x="241" y="-233" on="0"/>
        <pt x="145" y="-233" on="0"/>
        <pt x="110" y="-202" on="1"/>
        <pt x="129" y="-172" on="1"/>
        <pt x="153" y="-191" on="0"/>
        <pt x="208" y="-191" on="0"/>
        <pt x="236" y="-162" on="0"/>
        <pt x="236" y="-119" on="0"/>
        <pt x="197" y="-84" on="0"/>
      </contour>
    </TTGlyph>
    <TTGlyph name="cent" xMin="90" yMin="-35" xMax="438" yMax="574">
      <contour>
        <pt x="283" y="-35" on="1"/>
        <pt x="243" y="-35" on="1"/>
        <pt x="248" y="44" on="1"/>
        <pt x="175" y="60" on="0"/>
        <pt x="90" y="181" on="0"/>
        <pt x="90" y="382" on="0"/>
        <pt x="197" y="505" on="0"/>
        <pt x="282" y="516" on="1"/>
        <pt x="286" y="574" on="1"/>
        <pt x="326" y="574" on="1"/>
        <pt x="322" y="518" on="1"/>
        <pt x="383" y="516" on="0"/>
        <pt x="437" y="493" on="1"/>
        <pt x="434" y="474" on="0"/>
        <pt x="415" y="396" on="1"/>
        <pt x="408" y="367" on="1"/>
        <pt x="398" y="367" on="0"/>
        <pt x="368" y="375" on="0"/>
        <pt x="368" y="383" on="1"/>
        <pt x="372" y="456" on="1"/>
        <pt x="338" y="463" on="0"/>
        <pt x="318" y="464" on="1"/>
        <pt x="291" y="88" on="1"/>
        <pt x="300" y="86" on="0"/>
        <pt x="318" y="86" on="1"/>
        <pt x="365" y="86" on="0"/>
        <pt x="421" y="111" on="1"/>
        <pt x="434" y="99" on="0"/>
        <pt x="438" y="81" on="1"/>
        <pt x="374" y="38" on="0"/>
        <pt x="304" y="38" on="1"/>
        <pt x="288" y="38" on="1"/>
      </contour>
      <contour>
        <pt x="168" y="281" on="1"/>
        <pt x="168" y="144" on="0"/>
        <pt x="252" y="101" on="1"/>
        <pt x="278" y="462" on="1"/>
        <pt x="168" y="445" on="0"/>
      </contour>
    </TTGlyph>
    <TTGlyph name="circumflex" xMin="45" yMin="509" xMax="290" yMax="685">
      <contour>
        <pt x="168" y="611" on="1"/>
        <pt x="71" y="509" on="1"/>
        <pt x="45" y="526" on="1"/>
        <pt x="109" y="617" on="0"/>
        <pt x="145" y="685" on="1"/>
        <pt x="190" y="685" on="1"/>
        <pt x="226" y="617" on="0"/>
        <pt x="290" y="526" on="1"/>
        <pt x="264" y="509" on="1"/>
      </contour>
    </TTGlyph>
    <TTGlyph name="colon" xMin="48" yMin="-12" xMax="149" yMax="417">
      <contour>
        <pt x="113" y="417" on="1"/>
        <pt x="149" y="417" on="0"/>
        <pt x="149" y="355" on="1"/>
        <pt x="142" y="293" on="1"/>
        <pt x="107" y="284" on="0"/>
        <pt x="85" y="284" on="1"/>
        <pt x="48" y="284" on="0"/>
        <pt x="48" y="345" on="1"/>
        <pt x="48" y="372" on="0"/>
        <pt x="56" y="410" on="1"/>
        <pt x="92" y="417" on="0"/>
      </contour>
      <contour>
        <pt x="113" y="121" on="1"/>
        <pt x="149" y="121" on="0"/>
        <pt x="149" y="59" on="1"/>
        <pt x="142" y="-3" on="1"/>
        <pt x="107" y="-12" on="0"/>
        <pt x="85" y="-12" on="1"/>
        <pt x="48" y="-12" on="0"/>
        <pt x="48" y="49" on="1"/>
        <pt x="48" y="76" on="0"/>
        <pt x="56" y="114" on="1"/>
        <pt x="92" y="121" on="0"/>
      </contour>
    </TTGlyph>
    <TTGlyph name="comma" xMin="19" yMin="-142" xMax="161" yMax="121">
      <contour>
        <pt x="56" y="114" on="1"/>
        <pt x="86" y="121" on="0"/>
        <pt x="136" y="121" on="0"/>
        <pt x="161" y="59" on="0"/>
        <pt x="161" y="-42" on="0"/>
        <pt x="87" y="-130" on="0"/>
        <pt x="28" y="-142" on="1"/>
        <pt x="19" y="-113" on="1"/>
        <pt x="58" y="-101" on="0"/>
        <pt x="101" y="-48" on="0"/>
        <pt x="101" y="-15" on="1"/>
        <pt x="101" y="-11" on="1"/>
        <pt x="95" y="-12" on="0"/>
        <pt x="85" y="-12" on="1"/>
        <pt x="48" y="-12" on="0"/>
        <pt x="48" y="49" on="1"/>
        <pt x="48" y="76" on="0"/>
      </contour>
    </TTGlyph>
    <TTGlyph name="copyright" xMin="30" yMin="217" xMax="596" yMax="783">
      <contour>
        <pt x="440" y="434" on="1"/>
        <pt x="436" y="355" on="1"/>
        <pt x="391" y="322" on="0"/>
        <pt x="248" y="322" on="0"/>
        <pt x="158" y="417" on="0"/>
        <pt x="158" y="591" on="0"/>
        <pt x="255" y="687" on="0"/>
        <pt x="388" y="687" on="0"/>
        <pt x="437" y="654" on="1"/>
        <pt x="423" y="573" on="1"/>
        <pt x="389" y="573" on="0"/>
        <pt x="389" y="585" on="1"/>
        <pt x="389" y="636" on="1"/>
        <pt x="355" y="646" on="0"/>
        <pt x="290" y="646" on="0"/>
        <pt x="260" y="635" on="1"/>
        <pt x="240" y="618" on="0"/>
        <pt x="214" y="547" on="0"/>
        <pt x="214" y="505" on="1"/>
        <pt x="214" y="434" on="0"/>
        <pt x="276" y="359" on="0"/>
        <pt x="365" y="359" on="0"/>
        <pt x="393" y="375" on="1"/>
        <pt x="404" y="424" on="1"/>
        <pt x="407" y="434" on="0"/>
      </contour>
      <contour>
        <pt x="67" y="603" on="0"/>
        <pt x="67" y="397" on="0"/>
        <pt x="210" y="254" on="0"/>
        <pt x="416" y="254" on="0"/>
        <pt x="559" y="397" on="0"/>
        <pt x="559" y="603" on="0"/>
        <pt x="416" y="746" on="0"/>
        <pt x="210" y="746" on="0"/>
      </contour>
      <contour>
        <pt x="30" y="382" on="0"/>
        <pt x="30" y="618" on="0"/>
        <pt x="195" y="783" on="0"/>
        <pt x="431" y="783" on="0"/>
        <pt x="596" y="618" on="0"/>
        <pt x="596" y="382" on="0"/>
        <pt x="431" y="217" on="0"/>
        <pt x="195" y="217" on="0"/>
      </contour>
    </TTGlyph>
    <TTGlyph name="d" xMin="55" yMin="-4" xMax="552" yMax="497">
      <contour>
        <pt x="156" y="486" on="1"/>
        <pt x="249" y="495" on="0"/>
        <pt x="283" y="497" on="1"/>
        <pt x="393" y="497" on="0"/>
        <pt x="468" y="445" on="1"/>
        <pt x="507" y="418" on="0"/>
        <pt x="552" y="320" on="0"/>
        <pt x="552" y="253" on="1"/>
        <pt x="552" y="126" on="0"/>
        <pt x="412" y="-4" on="0"/>
        <pt x="294" y="-4" on="1"/>
        <pt x="157" y="6" on="1"/>
        <pt x="73" y="0" on="1"/>
        <pt x="55" y="0" on="0"/>
        <pt x="55" y="31" on="1"/>
        <pt x="119" y="45" on="1"/>
        <pt x="119" y="444" on="1"/>
        <pt x="55" y="458" on="1"/>
        <pt x="55" y="489" on="0"/>
        <pt x="73" y="489" on="1"/>
        <pt x="88" y="489" on="0"/>
      </contour>
      <contour>
        <pt x="196" y="251" on="1"/>
        <pt x="186" y="50" on="1"/>
        <pt x="239" y="40" on="0"/>
        <pt x="379" y="40" on="0"/>
        <pt x="474" y="144" on="0"/>
        <pt x="474" y="246" on="1"/>
        <pt x="474" y="450" on="0"/>
        <pt x="285" y="450" on="1"/>
        <pt x="241" y="450" on="0"/>
        <pt x="186" y="440" on="1"/>
      </contour>
    </TTGlyph>
    <TTGlyph name="dagger" xMin="15" yMin="-45" xMax="351" yMax="641">
      <contour>
        <pt x="15" y="437" on="1"/>
        <pt x="15" y="486" on="1"/>
        <pt x="151" y="502" on="1"/>
        <pt x="159" y="641" on="1"/>
        <pt x="208" y="641" on="1"/>
        <pt x="216" y="502" on="1"/>
        <pt x="351" y="486" on="1"/>
        <pt x="351" y="437" on="1"/>
        <pt x="220" y="437" on="1"/>
        <pt x="228" y="298" on="1"/>
        <pt x="208" y="-45" on="1"/>
        <pt x="159" y="-45" on="1"/>
        <pt x="139" y="298" on="1"/>
        <pt x="147" y="437" on="1"/>
      </contour>
    </TTGlyph>
    <TTGlyph name="daggerdbl" xMin="15" yMin="-45" xMax="351" yMax="641">
      <contour>
        <pt x="15" y="437" on="1"/>
        <pt x="15" y="486" on="1"/>
        <pt x="151" y="502" on="1"/>
        <pt x="159" y="641" on="1"/>
        <pt x="208" y="641" on="1"/>
        <pt x="216" y="502" on="1"/>
        <pt x="351" y="486" on="1"/>
        <pt x="351" y="437" on="1"/>
        <pt x="220" y="437" on="1"/>
        <pt x="228" y="298" on="1"/>
        <pt x="220" y="159" on="1"/>
        <pt x="351" y="159" on="1"/>
        <pt x="351" y="110" on="1"/>
        <pt x="216" y="94" on="1"/>
        <pt x="208" y="-45" on="1"/>
        <pt x="159" y="-45" on="1"/>
        <pt x="151" y="94" on="1"/>
        <pt x="15" y="110" on="1"/>
        <pt x="15" y="159" on="1"/>
        <pt x="147" y="159" on="1"/>
        <pt x="139" y="298" on="1"/>
        <pt x="147" y="437" on="1"/>
      </contour>
    </TTGlyph>
    <TTGlyph name="degree" xMin="20" yMin="439" xMax="298" yMax="717">
      <contour>
        <pt x="20" y="520" on="0"/>
        <pt x="20" y="636" on="0"/>
        <pt x="101" y="717" on="0"/>
        <pt x="217" y="717" on="0"/>
        <pt x="298" y="636" on="0"/>
        <pt x="298" y="520" on="0"/>
        <pt x="217" y="439" on="0"/>
        <pt x="101" y="439" on="0"/>
      </contour>
      <contour>
        <pt x="66" y="617" on="0"/>
        <pt x="66" y="539" on="0"/>
        <pt x="120" y="485" on="0"/>
        <pt x="198" y="485" on="0"/>
        <pt x="251" y="539" on="0"/>
        <pt x="251" y="617" on="0"/>
        <pt x="198" y="670" on="0"/>
        <pt x="120" y="670" on="0"/>
      </contour>
    </TTGlyph>
    <TTGlyph name="dieresis" xMin="70" yMin="544" xMax="305" yMax="659">
      <contour>
        <pt x="126" y="659" on="1"/>
        <pt x="157" y="659" on="0"/>
        <pt x="157" y="606" on="1"/>
        <pt x="157" y="571" on="0"/>
        <pt x="151" y="553" on="1"/>
        <pt x="119" y="544" on="0"/>
        <pt x="102" y="544" on="1"/>
        <pt x="70" y="544" on="0"/>
        <pt x="70" y="596" on="1"/>
        <pt x="70" y="631" on="0"/>
        <pt x="77" y="652" on="1"/>
        <pt x="110" y="659" on="0"/>
      </contour>
      <contour>
        <pt x="274" y="659" on="1"/>
        <pt x="305" y="659" on="0"/>
        <pt x="305" y="606" on="1"/>
        <pt x="305" y="571" on="0"/>
        <pt x="299" y="553" on="1"/>
        <pt x="267" y="544" on="0"/>
        <pt x="250" y="544" on="1"/>
        <pt x="218" y="544" on="0"/>
        <pt x="218" y="596" on="1"/>
        <pt x="218" y="631" on="0"/>
        <pt x="225" y="652" on="1"/>
        <pt x="258" y="659" on="0"/>
      </contour>
    </TTGlyph>
    <TTGlyph name="divide" xMin="73" yMin="112" xMax="437" yMax="443">
      <contour>
        <pt x="73" y="249" on="1"/>
        <pt x="73" y="306" on="1"/>
        <pt x="437" y="306" on="1"/>
        <pt x="437" y="249" on="1"/>
      </contour>
      <contour>
        <pt x="238" y="362" on="0"/>
        <pt x="215" y="386" on="0"/>
        <pt x="215" y="419" on="0"/>
        <pt x="239" y="443" on="0"/>
        <pt x="272" y="443" on="0"/>
        <pt x="296" y="418" on="0"/>
        <pt x="296" y="386" on="0"/>
        <pt x="272" y="362" on="0"/>
      </contour>
      <contour>
        <pt x="238" y="112" on="0"/>
        <pt x="215" y="136" on="0"/>
        <pt x="215" y="169" on="0"/>
        <pt x="239" y="193" on="0"/>
        <pt x="272" y="193" on="0"/>
        <pt x="296" y="168" on="0"/>
        <pt x="296" y="136" on="0"/>
        <pt x="272" y="112" on="0"/>
      </contour>
    </TTGlyph>
    <TTGlyph name="dollar" xMin="76" yMin="-88" xMax="441" yMax="627">
      <contour>
        <pt x="247" y="-88" on="1"/>
        <pt x="207" y="-88" on="1"/>
        <pt x="212" y="-10" on="1"/>
        <pt x="148" y="-2" on="0"/>
        <pt x="76" y="28" on="1"/>
        <pt x="76" y="35" on="0"/>
        <pt x="87" y="97" on="0"/>
        <pt x="92" y="126" on="1"/>
        <pt x="97" y="154" on="1"/>
        <pt x="107" y="154" on="0"/>
        <pt x="138" y="146" on="0"/>
        <pt x="138" y="138" on="1"/>
        <pt x="138" y="65" on="1"/>
        <pt x="168" y="49" on="0"/>
        <pt x="216" y="42" on="1"/>
        <pt x="230" y="248" on="1"/>
        <pt x="171" y="282" on="1"/>
        <pt x="130" y="305" on="0"/>
        <pt x="88" y="375" on="0"/>
        <pt x="88" y="413" on="1"/>
        <pt x="88" y="469" on="0"/>
        <pt x="176" y="555" on="0"/>
        <pt x="251" y="561" on="1"/>
        <pt x="256" y="627" on="1"/>
        <pt x="296" y="627" on="1"/>
        <pt x="291" y="561" on="1"/>
        <pt x="356" y="556" on="0"/>
        <pt x="418" y="524" on="1"/>
        <pt x="415" y="505" on="0"/>
        <pt x="396" y="426" on="1"/>
        <pt x="389" y="398" on="1"/>
        <pt x="379" y="398" on="0"/>
        <pt x="349" y="406" on="0"/>
        <pt x="349" y="414" on="1"/>
        <pt x="353" y="487" on="1"/>
        <pt x="326" y="503" on="0"/>
        <pt x="288" y="508" on="1"/>
        <pt x="274" y="312" on="1"/>
        <pt x="347" y="271" on="1"/>
        <pt x="392" y="246" on="0"/>
        <pt x="441" y="171" on="0"/>
        <pt x="441" y="135" on="1"/>
        <pt x="441" y="66" on="0"/>
        <pt x="336" y="-11" on="0"/>
        <pt x="252" y="-12" on="1"/>
      </contour>
      <contour>
        <pt x="308" y="203" on="1"/>
        <pt x="268" y="226" on="1"/>
        <pt x="256" y="39" on="1"/>
        <pt x="304" y="39" on="0"/>
        <pt x="360" y="88" on="0"/>
        <pt x="360" y="123" on="1"/>
        <pt x="360" y="173" on="0"/>
      </contour>
      <contour>
        <pt x="159" y="428" on="1"/>
        <pt x="159" y="378" on="0"/>
        <pt x="213" y="347" on="1"/>
        <pt x="236" y="334" on="1"/>
        <pt x="248" y="508" on="1"/>
        <pt x="207" y="504" on="0"/>
        <pt x="159" y="463" on="0"/>
      </contour>
    </TTGlyph>
    <TTGlyph name="dotaccent" xMin="62" yMin="541" xMax="155" yMax="662">
      <contour>
        <pt x="121" y="662" on="1"/>
        <pt x="155" y="662" on="0"/>
        <pt x="155" y="606" on="1"/>
        <pt x="148" y="550" on="1"/>
        <pt x="117" y="541" on="0"/>
        <pt x="97" y="541" on="1"/>
        <pt x="62" y="541" on="0"/>
        <pt x="62" y="596" on="1"/>
        <pt x="62" y="621" on="0"/>
        <pt x="70" y="655" on="1"/>
        <pt x="102" y="662" on="0"/>
      </contour>
    </TTGlyph>
    <TTGlyph name="dotlessi" xMin="55" yMin="0" xMax="254" yMax="489">
      <contour>
        <pt x="119" y="444" on="1"/>
        <pt x="55" y="458" on="1"/>
        <pt x="55" y="489" on="0"/>
        <pt x="73" y="489" on="1"/>
        <pt x="88" y="489" on="0"/>
        <pt x="156" y="486" on="1"/>
        <pt x="237" y="489" on="1"/>
        <pt x="254" y="489" on="0"/>
        <pt x="254" y="459" on="1"/>
        <pt x="190" y="444" on="1"/>
        <pt x="190" y="45" on="1"/>
        <pt x="254" y="31" on="1"/>
        <pt x="254" y="0" on="0"/>
        <pt x="237" y="0" on="1"/>
        <pt x="156" y="6" on="1"/>
        <pt x="73" y="0" on="1"/>
        <pt x="55" y="0" on="0"/>
        <pt x="55" y="31" on="1"/>
        <pt x="119" y="45" on="1"/>
      </contour>
    </TTGlyph>
    <TTGlyph name="e" xMin="55" yMin="0" xMax="437" yMax="489">
      <contour>
        <pt x="403" y="0" on="1"/>
        <pt x="156" y="6" on="1"/>
        <pt x="73" y="0" on="1"/>
        <pt x="55" y="0" on="0"/>
        <pt x="55" y="31" on="1"/>
        <pt x="119" y="45" on="1"/>
        <pt x="119" y="444" on="1"/>
        <pt x="55" y="458" on="1"/>
        <pt x="55" y="489" on="0"/>
        <pt x="73" y="489" on="1"/>
        <pt x="88" y="489" on="0"/>
        <pt x="156" y="486" on="1"/>
        <pt x="398" y="489" on="1"/>
        <pt x="418" y="489" on="0"/>
        <pt x="428" y="482" on="0"/>
        <pt x="428" y="475" on="1"/>
        <pt x="410" y="369" on="1"/>
        <pt x="369" y="369" on="0"/>
        <pt x="369" y="384" on="1"/>
        <pt x="369" y="442" on="1"/>
        <pt x="186" y="440" on="1"/>
        <pt x="195" y="274" on="1"/>
        <pt x="380" y="274" on="1"/>
        <pt x="380" y="233" on="1"/>
        <pt x="194" y="222" on="1"/>
        <pt x="186" y="49" on="1"/>
        <pt x="378" y="49" on="1"/>
        <pt x="395" y="106" on="1"/>
        <pt x="398" y="117" on="0"/>
        <pt x="415" y="123" on="0"/>
        <pt x="437" y="123" on="1"/>
        <pt x="431" y="12" on="1"/>
        <pt x="429" y="0" on="0"/>
      </contour>
    </TTGlyph>
    <TTGlyph name="eacute" xMin="55" yMin="0" xMax="437" yMax="680">
      <contour>
        <pt x="153" y="518" on="1"/>
        <pt x="142" y="537" on="1"/>
        <pt x="239" y="603" on="0"/>
        <pt x="334" y="680" on="1"/>
        <pt x="339" y="674" on="0"/>
        <pt x="359" y="626" on="0"/>
        <pt x="359" y="604" on="0"/>
        <pt x="354" y="601" on="1"/>
        <pt x="279" y="553" on="0"/>
      </contour>
      <contour>
        <pt x="403" y="0" on="1"/>
        <pt x="156" y="6" on="1"/>
        <pt x="73" y="0" on="1"/>
        <pt x="55" y="0" on="0"/>
        <pt x="55" y="31" on="1"/>
        <pt x="119" y="45" on="1"/>
        <pt x="119" y="444" on="1"/>
        <pt x="55" y="458" on="1"/>
        <pt x="55" y="489" on="0"/>
        <pt x="73" y="489" on="1"/>
        <pt x="88" y="489" on="0"/>
        <pt x="156" y="486" on="1"/>
        <pt x="398" y="489" on="1"/>
        <pt x="418" y="489" on="0"/>
        <pt x="428" y="482" on="0"/>
        <pt x="428" y="475" on="1"/>
        <pt x="410" y="369" on="1"/>
        <pt x="369" y="369" on="0"/>
        <pt x="369" y="384" on="1"/>
        <pt x="369" y="442" on="1"/>
        <pt x="186" y="440" on="1"/>
        <pt x="195" y="274" on="1"/>
        <pt x="380" y="274" on="1"/>
        <pt x="380" y="233" on="1"/>
        <pt x="194" y="222" on="1"/>
        <pt x="186" y="49" on="1"/>
        <pt x="378" y="49" on="1"/>
        <pt x="395" y="106" on="1"/>
        <pt x="398" y="117" on="0"/>
        <pt x="415" y="123" on="0"/>
        <pt x="437" y="123" on="1"/>
        <pt x="431" y="12" on="1"/>
        <pt x="429" y="0" on="0"/>
      </contour>
    </TTGlyph>
    <TTGlyph name="ecircumflex" xMin="55" yMin="0" xMax="437" yMax="685">
      <contour>
        <pt x="251" y="611" on="1"/>
        <pt x="154" y="509" on="1"/>
        <pt x="128" y="526" on="1"/>
        <pt x="192" y="617" on="0"/>
        <pt x="228" y="685" on="1"/>
        <pt x="273" y="685" on="1"/>
        <pt x="309" y="617" on="0"/>
        <pt x="373" y="526" on="1"/>
        <pt x="347" y="509" on="1"/>
      </contour>
      <contour>
        <pt x="403" y="0" on="1"/>
        <pt x="156" y="6" on="1"/>
        <pt x="73" y="0" on="1"/>
        <pt x="55" y="0" on="0"/>
        <pt x="55" y="31" on="1"/>
        <pt x="119" y="45" on="1"/>
        <pt x="119" y="444" on="1"/>
        <pt x="55" y="458" on="1"/>
        <pt x="55" y="489" on="0"/>
        <pt x="73" y="489" on="1"/>
        <pt x="88" y="489" on="0"/>
        <pt x="156" y="486" on="1"/>
        <pt x="398" y="489" on="1"/>
        <pt x="418" y="489" on="0"/>
        <pt x="428" y="482" on="0"/>
        <pt x="428" y="475" on="1"/>
        <pt x="410" y="369" on="1"/>
        <pt x="369" y="369" on="0"/>
        <pt x="369" y="384" on="1"/>
        <pt x="369" y="442" on="1"/>
        <pt x="186" y="440" on="1"/>
        <pt x="195" y="274" on="1"/>
        <pt x="380" y="274" on="1"/>
        <pt x="380" y="233" on="1"/>
        <pt x="194" y="222" on="1"/>
        <pt x="186" y="49" on="1"/>
        <pt x="378" y="49" on="1"/>
        <pt x="395" y="106" on="1"/>
        <pt x="398" y="117" on="0"/>
        <pt x="415" y="123" on="0"/>
        <pt x="437" y="123" on="1"/>
        <pt x="431" y="12" on="1"/>
        <pt x="429" y="0" on="0"/>
      </contour>
    </TTGlyph>
    <TTGlyph name="edieresis" xMin="55" yMin="0" xMax="437" yMax="659">
      <contour>
        <pt x="189" y="659" on="1"/>
        <pt x="220" y="659" on="0"/>
        <pt x="220" y="606" on="1"/>
        <pt x="220" y="571" on="0"/>
        <pt x="214" y="553" on="1"/>
        <pt x="182" y="544" on="0"/>
        <pt x="165" y="544" on="1"/>
        <pt x="133" y="544" on="0"/>
        <pt x="133" y="596" on="1"/>
        <pt x="133" y="631" on="0"/>
        <pt x="140" y="652" on="1"/>
        <pt x="173" y="659" on="0"/>
      </contour>
      <contour>
        <pt x="337" y="659" on="1"/>
        <pt x="368" y="659" on="0"/>
        <pt x="368" y="606" on="1"/>
        <pt x="368" y="571" on="0"/>
        <pt x="362" y="553" on="1"/>
        <pt x="330" y="544" on="0"/>
        <pt x="313" y="544" on="1"/>
        <pt x="281" y="544" on="0"/>
        <pt x="281" y="596" on="1"/>
        <pt x="281" y="631" on="0"/>
        <pt x="288" y="652" on="1"/>
        <pt x="321" y="659" on="0"/>
      </contour>
      <contour>
        <pt x="403" y="0" on="1"/>
        <pt x="156" y="6" on="1"/>
        <pt x="73" y="0" on="1"/>
        <pt x="55" y="0" on="0"/>
        <pt x="55" y="31" on="1"/>
        <pt x="119" y="45" on="1"/>
        <pt x="119" y="444" on="1"/>
        <pt x="55" y="458" on="1"/>
        <pt x="55" y="489" on="0"/>
        <pt x="73" y="489" on="1"/>
        <pt x="88" y="489" on="0"/>
        <pt x="156" y="486" on="1"/>
        <pt x="398" y="489" on="1"/>
        <pt x="418" y="489" on="0"/>
        <pt x="428" y="482" on="0"/>
        <pt x="428" y="475" on="1"/>
        <pt x="410" y="369" on="1"/>
        <pt x="369" y="369" on="0"/>
        <pt x="369" y="384" on="1"/>
        <pt x="369" y="442" on="1"/>
        <pt x="186" y="440" on="1"/>
        <pt x="195" y="274" on="1"/>
        <pt x="380" y="274" on="1"/>
        <pt x="380" y="233" on="1"/>
        <pt x="194" y="222" on="1"/>
        <pt x="186" y="49" on="1"/>
        <pt x="378" y="49" on="1"/>
        <pt x="395" y="106" on="1"/>
        <pt x="398" y="117" on="0"/>
        <pt x="415" y="123" on="0"/>
        <pt x="437" y="123" on="1"/>
        <pt x="431" y="12" on="1"/>
        <pt x="429" y="0" on="0"/>
      </contour>
    </TTGlyph>
    <TTGlyph name="egrave" xMin="55" yMin="0" xMax="437" yMax="680">
      <contour>
        <pt x="348" y="537" on="1"/>
        <pt x="337" y="518" on="1"/>
        <pt x="211" y="553" on="0"/>
        <pt x="136" y="601" on="1"/>
        <pt x="131" y="604" on="0"/>
        <pt x="131" y="626" on="0"/>
        <pt x="151" y="674" on="0"/>
        <pt x="156" y="680" on="1"/>
        <pt x="248" y="605" on="0"/>
        <pt x="321" y="556" on="1"/>
      </contour>
      <contour>
        <pt x="403" y="0" on="1"/>
        <pt x="156" y="6" on="1"/>
        <pt x="73" y="0" on="1"/>
        <pt x="55" y="0" on="0"/>
        <pt x="55" y="31" on="1"/>
        <pt x="119" y="45" on="1"/>
        <pt x="119" y="444" on="1"/>
        <pt x="55" y="458" on="1"/>
        <pt x="55" y="489" on="0"/>
        <pt x="73" y="489" on="1"/>
        <pt x="88" y="489" on="0"/>
        <pt x="156" y="486" on="1"/>
        <pt x="398" y="489" on="1"/>
        <pt x="418" y="489" on="0"/>
        <pt x="428" y="482" on="0"/>
        <pt x="428" y="475" on="1"/>
        <pt x="410" y="369" on="1"/>
        <pt x="369" y="369" on="0"/>
        <pt x="369" y="384" on="1"/>
        <pt x="369" y="442" on="1"/>
        <pt x="186" y="440" on="1"/>
        <pt x="195" y="274" on="1"/>
        <pt x="380" y="274" on="1"/>
        <pt x="380" y="233" on="1"/>
        <pt x="194" y="222" on="1"/>
        <pt x="186" y="49" on="1"/>
        <pt x="378" y="49" on="1"/>
        <pt x="395" y="106" on="1"/>
        <pt x="398" y="117" on="0"/>
        <pt x="415" y="123" on="0"/>
        <pt x="437" y="123" on="1"/>
        <pt x="431" y="12" on="1"/>
        <pt x="429" y="0" on="0"/>
      </contour>
    </TTGlyph>
    <TTGlyph name="eight" xMin="47" yMin="-12" xMax="465" yMax="668">
      <contour>
        <pt x="47" y="159" on="1"/>
        <pt x="47" y="206" on="0"/>
        <pt x="113" y="311" on="0"/>
        <pt x="178" y="346" on="1"/>
        <pt x="69" y="412" on="0"/>
        <pt x="69" y="517" on="1"/>
        <pt x="69" y="581" on="0"/>
        <pt x="171" y="668" on="0"/>
        <pt x="338" y="668" on="0"/>
        <pt x="441" y="580" on="0"/>
        <pt x="441" y="514" on="1"/>
        <pt x="441" y="471" on="0"/>
        <pt x="384" y="377" on="0"/>
        <pt x="328" y="345" on="1"/>
        <pt x="390" y="307" on="0"/>
        <pt x="465" y="219" on="0"/>
        <pt x="465" y="85" on="0"/>
        <pt x="350" y="-12" on="0"/>
        <pt x="161" y="-12" on="0"/>
        <pt x="47" y="85" on="0"/>
      </contour>
      <contour>
        <pt x="302" y="270" on="1"/>
        <pt x="218" y="321" on="1"/>
        <pt x="177" y="289" on="0"/>
        <pt x="131" y="203" on="0"/>
        <pt x="131" y="109" on="0"/>
        <pt x="193" y="37" on="0"/>
        <pt x="306" y="37" on="0"/>
        <pt x="380" y="100" on="0"/>
        <pt x="380" y="152" on="1"/>
        <pt x="380" y="219" on="0"/>
      </contour>
      <contour>
        <pt x="148" y="517" on="1"/>
        <pt x="148" y="453" on="0"/>
        <pt x="236" y="400" on="1"/>
        <pt x="290" y="368" on="1"/>
        <pt x="325" y="396" on="0"/>
        <pt x="361" y="473" on="0"/>
        <pt x="361" y="556" on="0"/>
        <pt x="308" y="619" on="0"/>
        <pt x="206" y="619" on="0"/>
        <pt x="148" y="563" on="0"/>
      </contour>
    </TTGlyph>
    <TTGlyph name="ellipsis" xMin="48" yMin="-12" xMax="543" yMax="121">
      <contour>
        <pt x="113" y="121" on="1"/>
        <pt x="149" y="121" on="0"/>
        <pt x="149" y="59" on="1"/>
        <pt x="142" y="-3" on="1"/>
        <pt x="107" y="-12" on="0"/>
        <pt x="85" y="-12" on="1"/>
        <pt x="48" y="-12" on="0"/>
        <pt x="48" y="49" on="1"/>
        <pt x="48" y="76" on="0"/>
        <pt x="56" y="114" on="1"/>
        <pt x="92" y="121" on="0"/>
      </contour>
      <contour>
        <pt x="310" y="121" on="1"/>
        <pt x="346" y="121" on="0"/>
        <pt x="346" y="59" on="1"/>
        <pt x="339" y="-3" on="1"/>
        <pt x="304" y="-12" on="0"/>
        <pt x="282" y="-12" on="1"/>
        <pt x="245" y="-12" on="0"/>
        <pt x="245" y="49" on="1"/>
        <pt x="245" y="76" on="0"/>
        <pt x="253" y="114" on="1"/>
        <pt x="289" y="121" on="0"/>
      </contour>
      <contour>
        <pt x="507" y="121" on="1"/>
        <pt x="543" y="121" on="0"/>
        <pt x="543" y="59" on="1"/>
        <pt x="536" y="-3" on="1"/>
        <pt x="501" y="-12" on="0"/>
        <pt x="479" y="-12" on="1"/>
        <pt x="442" y="-12" on="0"/>
        <pt x="442" y="49" on="1"/>
        <pt x="442" y="76" on="0"/>
        <pt x="450" y="114" on="1"/>
        <pt x="486" y="121" on="0"/>
      </contour>
    </TTGlyph>
    <TTGlyph name="emdash" xMin="125" yMin="225" xMax="734" yMax="281">
      <contour>
        <pt x="125" y="225" on="1"/>
        <pt x="125" y="281" on="1"/>
        <pt x="734" y="281" on="1"/>
        <pt x="734" y="225" on="1"/>
      </contour>
    </TTGlyph>
    <TTGlyph name="endash" xMin="125" yMin="225" xMax="486" yMax="281">
      <contour>
        <pt x="125" y="225" on="1"/>
        <pt x="125" y="281" on="1"/>
        <pt x="486" y="281" on="1"/>
        <pt x="486" y="225" on="1"/>
      </contour>
    </TTGlyph>
    <TTGlyph name="equal" xMin="73" yMin="168" xMax="437" yMax="387">
      <contour>
        <pt x="73" y="330" on="1"/>
        <pt x="73" y="387" on="1"/>
        <pt x="437" y="387" on="1"/>
        <pt x="437" y="330" on="1"/>
      </contour>
      <contour>
        <pt x="73" y="168" on="1"/>
        <pt x="73" y="225" on="1"/>
        <pt x="437" y="225" on="1"/>
        <pt x="437" y="168" on="1"/>
      </contour>
    </TTGlyph>
    <TTGlyph name="eth" xMin="55" yMin="-4" xMax="552" yMax="497">
      <contour>
        <pt x="59" y="221" on="1"/>
        <pt x="59" y="273" on="1"/>
        <pt x="361" y="273" on="1"/>
        <pt x="361" y="234" on="1"/>
      </contour>
      <contour>
        <pt x="156" y="486" on="1"/>
        <pt x="249" y="495" on="0"/>
        <pt x="283" y="497" on="1"/>
        <pt x="393" y="497" on="0"/>
        <pt x="468" y="445" on="1"/>
        <pt x="507" y="418" on="0"/>
        <pt x="552" y="320" on="0"/>
        <pt x="552" y="253" on="1"/>
        <pt x="552" y="126" on="0"/>
        <pt x="412" y="-4" on="0"/>
        <pt x="294" y="-4" on="1"/>
        <pt x="157" y="6" on="1"/>
        <pt x="73" y="0" on="1"/>
        <pt x="55" y="0" on="0"/>
        <pt x="55" y="31" on="1"/>
        <pt x="119" y="45" on="1"/>
        <pt x="119" y="444" on="1"/>
        <pt x="55" y="458" on="1"/>
        <pt x="55" y="489" on="0"/>
        <pt x="73" y="489" on="1"/>
        <pt x="88" y="489" on="0"/>
      </contour>
      <contour>
        <pt x="196" y="251" on="1"/>
        <pt x="186" y="50" on="1"/>
        <pt x="239" y="40" on="0"/>
        <pt x="379" y="40" on="0"/>
        <pt x="474" y="144" on="0"/>
        <pt x="474" y="246" on="1"/>
        <pt x="474" y="450" on="0"/>
        <pt x="285" y="450" on="1"/>
        <pt x="241" y="450" on="0"/>
        <pt x="186" y="440" on="1"/>
      </contour>
    </TTGlyph>
    <TTGlyph name="exclam" xMin="73" yMin="-12" xMax="179" yMax="695">
      <contour>
        <pt x="123" y="695" on="1"/>
        <pt x="179" y="695" on="1"/>
        <pt x="137" y="172" on="1"/>
        <pt x="104" y="172" on="1"/>
        <pt x="77" y="433" on="1"/>
      </contour>
      <contour>
        <pt x="138" y="95" on="1"/>
        <pt x="174" y="95" on="0"/>
        <pt x="174" y="45" on="1"/>
        <pt x="167" y="-4" on="1"/>
        <pt x="132" y="-12" on="0"/>
        <pt x="110" y="-12" on="1"/>
        <pt x="73" y="-12" on="0"/>
        <pt x="73" y="37" on="1"/>
        <pt x="73" y="59" on="0"/>
        <pt x="81" y="89" on="1"/>
        <pt x="117" y="95" on="0"/>
      </contour>
    </TTGlyph>
    <TTGlyph name="exclamdown" xMin="78" yMin="-239" xMax="184" yMax="468">
      <contour>
        <pt x="134" y="-239" on="1"/>
        <pt x="78" y="-239" on="1"/>
        <pt x="120" y="284" on="1"/>
        <pt x="153" y="284" on="1"/>
        <pt x="180" y="23" on="1"/>
      </contour>
      <contour>
        <pt x="119" y="361" on="1"/>
        <pt x="83" y="361" on="0"/>
        <pt x="83" y="411" on="1"/>
        <pt x="90" y="460" on="1"/>
        <pt x="125" y="468" on="0"/>
        <pt x="147" y="468" on="1"/>
        <pt x="184" y="468" on="0"/>
        <pt x="184" y="419" on="1"/>
        <pt x="184" y="397" on="0"/>
        <pt x="176" y="367" on="1"/>
        <pt x="140" y="361" on="0"/>
      </contour>
    </TTGlyph>
    <TTGlyph name="f" xMin="55" yMin="0" xMax="406" yMax="489">
      <contour>
        <pt x="373" y="223" on="1"/>
        <pt x="194" y="212" on="1"/>
        <pt x="187" y="45" on="1"/>
        <pt x="272" y="31" on="1"/>
        <pt x="272" y="0" on="0"/>
        <pt x="255" y="0" on="1"/>
        <pt x="156" y="6" on="1"/>
        <pt x="73" y="0" on="1"/>
        <pt x="55" y="0" on="0"/>
        <pt x="55" y="31" on="1"/>
        <pt x="119" y="45" on="1"/>
        <pt x="119" y="444" on="1"/>
        <pt x="55" y="458" on="1"/>
        <pt x="55" y="489" on="0"/>
        <pt x="73" y="489" on="1"/>
        <pt x="88" y="489" on="0"/>
        <pt x="156" y="486" on="1"/>
        <pt x="376" y="489" on="1"/>
        <pt x="395" y="489" on="0"/>
        <pt x="406" y="482" on="0"/>
        <pt x="406" y="475" on="1"/>
        <pt x="388" y="369" on="1"/>
        <pt x="347" y="369" on="0"/>
        <pt x="347" y="384" on="1"/>
        <pt x="347" y="442" on="1"/>
        <pt x="186" y="440" on="1"/>
        <pt x="195" y="264" on="1"/>
        <pt x="373" y="264" on="1"/>
      </contour>
    </TTGlyph>
    <TTGlyph name="fi" xMin="55" yMin="0" xMax="692" yMax="489">
      <contour>
        <pt x="373" y="223" on="1"/>
        <pt x="194" y="212" on="1"/>
        <pt x="187" y="45" on="1"/>
        <pt x="272" y="31" on="1"/>
        <pt x="272" y="0" on="0"/>
        <pt x="255" y="0" on="1"/>
        <pt x="156" y="6" on="1"/>
        <pt x="73" y="0" on="1"/>
        <pt x="55" y="0" on="0"/>
        <pt x="55" y="31" on="1"/>
        <pt x="119" y="45" on="1"/>
        <pt x="119" y="444" on="1"/>
        <pt x="55" y="458" on="1"/>
        <pt x="55" y="489" on="0"/>
        <pt x="73" y="489" on="1"/>
        <pt x="88" y="489" on="0"/>
        <pt x="156" y="486" on="1"/>
        <pt x="376" y="489" on="1"/>
        <pt x="395" y="489" on="0"/>
        <pt x="406" y="482" on="0"/>
        <pt x="406" y="475" on="1"/>
        <pt x="388" y="369" on="1"/>
        <pt x="347" y="369" on="0"/>
        <pt x="347" y="384" on="1"/>
        <pt x="347" y="442" on="1"/>
        <pt x="186" y="440" on="1"/>
        <pt x="195" y="264" on="1"/>
        <pt x="373" y="264" on="1"/>
      </contour>
      <contour>
        <pt x="557" y="444" on="1"/>
        <pt x="493" y="458" on="1"/>
        <pt x="493" y="489" on="0"/>
        <pt x="511" y="489" on="1"/>
        <pt x="526" y="489" on="0"/>
        <pt x="594" y="486" on="1"/>
        <pt x="675" y="489" on="1"/>
        <pt x="692" y="489" on="0"/>
        <pt x="692" y="459" on="1"/>
        <pt x="628" y="444" on="1"/>
        <pt x="628" y="45" on="1"/>
        <pt x="692" y="31" on="1"/>
        <pt x="692" y="0" on="0"/>
        <pt x="675" y="0" on="1"/>
        <pt x="594" y="6" on="1"/>
        <pt x="511" y="0" on="1"/>
        <pt x="493" y="0" on="0"/>
        <pt x="493" y="31" on="1"/>
        <pt x="557" y="45" on="1"/>
      </contour>
    </TTGlyph>
    <TTGlyph name="five" xMin="55" yMin="-68" xMax="454" yMax="557">
      <contour>
        <pt x="106" y="255" on="1"/>
        <pt x="116" y="532" on="1"/>
        <pt x="415" y="557" on="1"/>
        <pt x="440" y="557" on="0"/>
        <pt x="442" y="535" on="0"/>
        <pt x="436" y="500" on="1"/>
        <pt x="421" y="399" on="0"/>
        <pt x="418" y="399" on="1"/>
        <pt x="378" y="399" on="0"/>
        <pt x="378" y="415" on="1"/>
        <pt x="378" y="493" on="1"/>
        <pt x="180" y="493" on="1"/>
        <pt x="158" y="288" on="1"/>
        <pt x="168" y="289" on="0"/>
        <pt x="187" y="289" on="1"/>
        <pt x="324" y="289" on="0"/>
        <pt x="454" y="185" on="0"/>
        <pt x="454" y="28" on="0"/>
        <pt x="329" y="-68" on="0"/>
        <pt x="245" y="-68" on="1"/>
        <pt x="138" y="-68" on="0"/>
        <pt x="55" y="-29" on="1"/>
        <pt x="55" y="-23" on="0"/>
        <pt x="70" y="40" on="0"/>
        <pt x="83" y="97" on="0"/>
        <pt x="84" y="97" on="1"/>
        <pt x="95" y="97" on="0"/>
        <pt x="124" y="89" on="0"/>
        <pt x="124" y="81" on="1"/>
        <pt x="120" y="8" on="1"/>
        <pt x="170" y="-19" on="0"/>
        <pt x="288" y="-19" on="0"/>
        <pt x="373" y="46" on="0"/>
        <pt x="373" y="161" on="0"/>
        <pt x="275" y="237" on="0"/>
        <pt x="191" y="237" on="1"/>
        <pt x="163" y="237" on="0"/>
        <pt x="135" y="232" on="1"/>
      </contour>
    </TTGlyph>
    <TTGlyph name="fl" xMin="55" yMin="0" xMax="848" yMax="489">
      <contour>
        <pt x="373" y="223" on="1"/>
        <pt x="194" y="212" on="1"/>
        <pt x="187" y="45" on="1"/>
        <pt x="272" y="31" on="1"/>
        <pt x="272" y="0" on="0"/>
        <pt x="255" y="0" on="1"/>
        <pt x="156" y="6" on="1"/>
        <pt x="73" y="0" on="1"/>
        <pt x="55" y="0" on="0"/>
        <pt x="55" y="31" on="1"/>
        <pt x="119" y="45" on="1"/>
        <pt x="119" y="444" on="1"/>
        <pt x="55" y="458" on="1"/>
        <pt x="55" y="489" on="0"/>
        <pt x="73" y="489" on="1"/>
        <pt x="88" y="489" on="0"/>
        <pt x="156" y="486" on="1"/>
        <pt x="376" y="489" on="1"/>
        <pt x="395" y="489" on="0"/>
        <pt x="406" y="482" on="0"/>
        <pt x="406" y="475" on="1"/>
        <pt x="388" y="369" on="1"/>
        <pt x="347" y="369" on="0"/>
        <pt x="347" y="384" on="1"/>
        <pt x="347" y="442" on="1"/>
        <pt x="186" y="440" on="1"/>
        <pt x="195" y="264" on="1"/>
        <pt x="373" y="264" on="1"/>
      </contour>
      <contour>
        <pt x="814" y="0" on="1"/>
        <pt x="594" y="6" on="1"/>
        <pt x="511" y="0" on="1"/>
        <pt x="493" y="0" on="0"/>
        <pt x="493" y="31" on="1"/>
        <pt x="557" y="45" on="1"/>
        <pt x="557" y="444" on="1"/>
        <pt x="493" y="458" on="1"/>
        <pt x="493" y="489" on="0"/>
        <pt x="511" y="489" on="1"/>
        <pt x="594" y="486" on="1"/>
        <pt x="675" y="489" on="1"/>
        <pt x="692" y="489" on="0"/>
        <pt x="692" y="459" on="1"/>
        <pt x="628" y="444" on="1"/>
        <pt x="628" y="49" on="1"/>
        <pt x="789" y="49" on="1"/>
        <pt x="806" y="106" on="1"/>
        <pt x="809" y="117" on="0"/>
        <pt x="826" y="123" on="0"/>
        <pt x="848" y="123" on="1"/>
        <pt x="842" y="12" on="1"/>
        <pt x="840" y="0" on="0"/>
      </contour>
    </TTGlyph>
    <TTGlyph name="florin" xMin="30" yMin="-231" xMax="475" yMax="613">
      <contour>
        <pt x="97" y="263" on="1"/>
        <pt x="97" y="300" on="1"/>
        <pt x="192" y="300" on="1"/>
        <pt x="192" y="464" on="1"/>
        <pt x="192" y="540" on="0"/>
        <pt x="273" y="613" on="0"/>
        <pt x="417" y="613" on="0"/>
        <pt x="475" y="574" on="1"/>
        <pt x="472" y="555" on="0"/>
        <pt x="453" y="476" on="1"/>
        <pt x="446" y="448" on="1"/>
        <pt x="436" y="448" on="0"/>
        <pt x="406" y="456" on="0"/>
        <pt x="406" y="464" on="1"/>
        <pt x="410" y="537" on="1"/>
        <pt x="382" y="563" on="0"/>
        <pt x="347" y="563" on="1"/>
        <pt x="263" y="563" on="0"/>
        <pt x="263" y="465" on="1"/>
        <pt x="263" y="300" on="1"/>
        <pt x="403" y="300" on="1"/>
        <pt x="403" y="263" on="1"/>
        <pt x="263" y="263" on="1"/>
        <pt x="263" y="-82" on="1"/>
        <pt x="263" y="-158" on="0"/>
        <pt x="193" y="-231" on="0"/>
        <pt x="73" y="-231" on="0"/>
        <pt x="30" y="-202" on="1"/>
        <pt x="48" y="-163" on="1"/>
        <pt x="84" y="-186" on="0"/>
        <pt x="128" y="-186" on="1"/>
        <pt x="192" y="-186" on="0"/>
        <pt x="192" y="-73" on="1"/>
        <pt x="192" y="263" on="1"/>
      </contour>
    </TTGlyph>
    <TTGlyph name="four" xMin="15" yMin="-56" xMax="496" yMax="616">
      <contour>
        <pt x="397" y="0" on="1"/>
        <pt x="492" y="-23" on="1"/>
        <pt x="492" y="-56" on="0"/>
        <pt x="477" y="-56" on="1"/>
        <pt x="476" y="-56" on="0"/>
        <pt x="359" y="-52" on="1"/>
        <pt x="223" y="-56" on="1"/>
        <pt x="208" y="-56" on="0"/>
        <pt x="208" y="-23" on="1"/>
        <pt x="323" y="0" on="1"/>
        <pt x="323" y="89" on="1"/>
        <pt x="43" y="89" on="1"/>
        <pt x="15" y="89" on="0"/>
        <pt x="15" y="119" on="0"/>
        <pt x="56" y="218" on="1"/>
        <pt x="218" y="616" on="1"/>
        <pt x="291" y="594" on="1"/>
        <pt x="84" y="134" on="1"/>
        <pt x="323" y="134" on="1"/>
        <pt x="323" y="379" on="1"/>
        <pt x="323" y="381" on="0"/>
        <pt x="371" y="388" on="0"/>
        <pt x="379" y="388" on="1"/>
        <pt x="397" y="379" on="0"/>
        <pt x="397" y="357" on="1"/>
        <pt x="397" y="134" on="1"/>
        <pt x="496" y="134" on="1"/>
        <pt x="496" y="89" on="1"/>
        <pt x="397" y="89" on="1"/>
      </contour>
    </TTGlyph>
    <TTGlyph name="fraction" xMin="-60" yMin="-208" xMax="365" yMax="672">
      <contour>
        <pt x="-60" y="-208" on="1"/>
        <pt x="306" y="672" on="1"/>
        <pt x="365" y="672" on="1"/>
        <pt x="-1" y="-208" on="1"/>
      </contour>
    </TTGlyph>
    <TTGlyph name="g" xMin="35" yMin="-8" xMax="469" yMax="497">
      <contour>
        <pt x="461" y="82" on="1"/>
        <pt x="469" y="53" on="1"/>
        <pt x="380" y="-8" on="0"/>
        <pt x="168" y="-8" on="0"/>
        <pt x="35" y="123" on="0"/>
        <pt x="35" y="366" on="0"/>
        <pt x="179" y="497" on="0"/>
        <pt x="382" y="497" on="0"/>
        <pt x="455" y="453" on="1"/>
        <pt x="434" y="343" on="1"/>
        <pt x="392" y="343" on="0"/>
        <pt x="392" y="359" on="1"/>
        <pt x="392" y="431" on="1"/>
        <pt x="345" y="445" on="0"/>
        <pt x="236" y="445" on="0"/>
        <pt x="184" y="430" on="1"/>
        <pt x="152" y="407" on="0"/>
        <pt x="113" y="308" on="0"/>
        <pt x="113" y="246" on="1"/>
        <pt x="113" y="146" on="0"/>
        <pt x="208" y="40" on="0"/>
        <pt x="360" y="40" on="0"/>
        <pt x="404" y="74" on="1"/>
        <pt x="393" y="209" on="1"/>
        <pt x="368" y="210" on="0"/>
        <pt x="266" y="216" on="0"/>
        <pt x="257" y="216" on="1"/>
        <pt x="257" y="257" on="1"/>
        <pt x="461" y="257" on="1"/>
      </contour>
    </TTGlyph>
    <TTGlyph name="germandbls" xMin="45" yMin="-8" xMax="790" yMax="497">
      <contour>
        <pt x="387" y="122" on="1"/>
        <pt x="387" y="60" on="0"/>
        <pt x="287" y="-8" on="0"/>
        <pt x="131" y="-8" on="0"/>
        <pt x="45" y="26" on="1"/>
        <pt x="47" y="58" on="0"/>
        <pt x="68" y="149" on="0"/>
        <pt x="69" y="149" on="1"/>
        <pt x="107" y="149" on="0"/>
        <pt x="107" y="134" on="1"/>
        <pt x="107" y="62" on="1"/>
        <pt x="152" y="38" on="0"/>
        <pt x="262" y="38" on="0"/>
        <pt x="312" y="80" on="0"/>
        <pt x="312" y="113" on="1"/>
        <pt x="312" y="156" on="0"/>
        <pt x="263" y="183" on="1"/>
        <pt x="135" y="252" on="1"/>
        <pt x="97" y="273" on="0"/>
        <pt x="56" y="334" on="0"/>
        <pt x="56" y="366" on="1"/>
        <pt x="56" y="420" on="0"/>
        <pt x="149" y="497" on="0"/>
        <pt x="230" y="497" on="1"/>
        <pt x="288" y="497" on="0"/>
        <pt x="364" y="471" on="1"/>
        <pt x="343" y="356" on="1"/>
        <pt x="300" y="356" on="0"/>
        <pt x="300" y="371" on="1"/>
        <pt x="300" y="437" on="1"/>
        <pt x="263" y="450" on="0"/>
        <pt x="225" y="450" on="1"/>
        <pt x="155" y="450" on="0"/>
        <pt x="124" y="404" on="1"/>
        <pt x="120" y="392" on="0"/>
        <pt x="120" y="378" on="1"/>
        <pt x="120" y="335" on="0"/>
        <pt x="172" y="307" on="1"/>
        <pt x="297" y="241" on="1"/>
        <pt x="341" y="218" on="0"/>
        <pt x="387" y="154" on="0"/>
      </contour>
      <contour>
        <pt x="790" y="122" on="1"/>
        <pt x="790" y="60" on="0"/>
        <pt x="690" y="-8" on="0"/>
        <pt x="534" y="-8" on="0"/>
        <pt x="448" y="26" on="1"/>
        <pt x="450" y="58" on="0"/>
        <pt x="471" y="149" on="0"/>
        <pt x="472" y="149" on="1"/>
        <pt x="510" y="149" on="0"/>
        <pt x="510" y="134" on="1"/>
        <pt x="510" y="62" on="1"/>
        <pt x="555" y="38" on="0"/>
        <pt x="665" y="38" on="0"/>
        <pt x="715" y="80" on="0"/>
        <pt x="715" y="113" on="1"/>
        <pt x="715" y="156" on="0"/>
        <pt x="666" y="183" on="1"/>
        <pt x="538" y="252" on="1"/>
        <pt x="500" y="273" on="0"/>
        <pt x="459" y="334" on="0"/>
        <pt x="459" y="366" on="1"/>
        <pt x="459" y="420" on="0"/>
        <pt x="552" y="497" on="0"/>
        <pt x="633" y="497" on="1"/>
        <pt x="691" y="497" on="0"/>
        <pt x="767" y="471" on="1"/>
        <pt x="746" y="356" on="1"/>
        <pt x="703" y="356" on="0"/>
        <pt x="703" y="371" on="1"/>
        <pt x="703" y="437" on="1"/>
        <pt x="666" y="450" on="0"/>
        <pt x="628" y="450" on="1"/>
        <pt x="558" y="450" on="0"/>
        <pt x="527" y="404" on="1"/>
        <pt x="523" y="392" on="0"/>
        <pt x="523" y="378" on="1"/>
        <pt x="523" y="335" on="0"/>
        <pt x="575" y="307" on="1"/>
        <pt x="700" y="241" on="1"/>
        <pt x="744" y="218" on="0"/>
        <pt x="790" y="154" on="0"/>
      </contour>
    </TTGlyph>
    <TTGlyph name="grave" xMin="50" yMin="518" xMax="267" yMax="680">
      <contour>
        <pt x="267" y="537" on="1"/>
        <pt x="256" y="518" on="1"/>
        <pt x="130" y="553" on="0"/>
        <pt x="55" y="601" on="1"/>
        <pt x="50" y="604" on="0"/>
        <pt x="50" y="626" on="0"/>
        <pt x="70" y="674" on="0"/>
        <pt x="75" y="680" on="1"/>
        <pt x="167" y="605" on="0"/>
        <pt x="240" y="556" on="1"/>
      </contour>
    </TTGlyph>
    <TTGlyph name="greater" xMin="73" yMin="87" xMax="437" yMax="468">
      <contour>
        <pt x="73" y="408" on="1"/>
        <pt x="73" y="468" on="1"/>
        <pt x="437" y="306" on="1"/>
        <pt x="437" y="249" on="1"/>
        <pt x="73" y="87" on="1"/>
        <pt x="73" y="147" on="1"/>
        <pt x="372" y="277" on="1"/>
      </contour>
    </TTGlyph>
    <TTGlyph name="greaterequal" xMin="73" yMin="0" xMax="437" yMax="468">
      <contour>
        <pt x="73" y="408" on="1"/>
        <pt x="73" y="468" on="1"/>
        <pt x="437" y="306" on="1"/>
        <pt x="437" y="249" on="1"/>
        <pt x="73" y="87" on="1"/>
        <pt x="73" y="147" on="1"/>
        <pt x="372" y="277" on="1"/>
      </contour>
      <contour>
        <pt x="73" y="0" on="1"/>
        <pt x="73" y="57" on="1"/>
        <pt x="437" y="57" on="1"/>
        <pt x="437" y="0" on="1"/>
      </contour>
    </TTGlyph>
    <TTGlyph name="guillemotleft" xMin="30" yMin="10" xMax="410" yMax="444">
      <contour>
        <pt x="30" y="213" on="1"/>
        <pt x="30" y="241" on="1"/>
        <pt x="218" y="444" on="1"/>
        <pt x="247" y="420" on="1"/>
        <pt x="117" y="227" on="1"/>
        <pt x="247" y="34" on="1"/>
        <pt x="218" y="10" on="1"/>
      </contour>
      <contour>
        <pt x="193" y="213" on="1"/>
        <pt x="193" y="241" on="1"/>
        <pt x="381" y="444" on="1"/>
        <pt x="410" y="420" on="1"/>
        <pt x="280" y="227" on="1"/>
        <pt x="410" y="34" on="1"/>
        <pt x="381" y="10" on="1"/>
      </contour>
    </TTGlyph>
    <TTGlyph name="guillemotright" xMin="50" yMin="10" xMax="430" yMax="444">
      <contour>
        <pt x="430" y="241" on="1"/>
        <pt x="430" y="213" on="1"/>
        <pt x="242" y="10" on="1"/>
        <pt x="213" y="34" on="1"/>
        <pt x="343" y="227" on="1"/>
        <pt x="213" y="420" on="1"/>
        <pt x="242" y="444" on="1"/>
      </contour>
      <contour>
        <pt x="267" y="241" on="1"/>
        <pt x="267" y="213" on="1"/>
        <pt x="79" y="10" on="1"/>
        <pt x="50" y="34" on="1"/>
        <pt x="180" y="227" on="1"/>
        <pt x="50" y="420" on="1"/>
        <pt x="79" y="444" on="1"/>
      </contour>
    </TTGlyph>
    <TTGlyph name="guilsinglleft" xMin="30" yMin="10" xMax="247" yMax="444">
      <contour>
        <pt x="30" y="213" on="1"/>
        <pt x="30" y="241" on="1"/>
        <pt x="218" y="444" on="1"/>
        <pt x="247" y="420" on="1"/>
        <pt x="117" y="227" on="1"/>
        <pt x="247" y="34" on="1"/>
        <pt x="218" y="10" on="1"/>
      </contour>
    </TTGlyph>
    <TTGlyph name="guilsinglright" xMin="50" yMin="10" xMax="267" yMax="444">
      <contour>
        <pt x="267" y="241" on="1"/>
        <pt x="267" y="213" on="1"/>
        <pt x="79" y="10" on="1"/>
        <pt x="50" y="34" on="1"/>
        <pt x="180" y="227" on="1"/>
        <pt x="50" y="420" on="1"/>
        <pt x="79" y="444" on="1"/>
      </contour>
    </TTGlyph>
    <TTGlyph name="h" xMin="55" yMin="0" xMax="578" yMax="489">
      <contour>
        <pt x="446" y="444" on="1"/>
        <pt x="379" y="458" on="1"/>
        <pt x="379" y="489" on="0"/>
        <pt x="397" y="489" on="1"/>
        <pt x="412" y="489" on="0"/>
        <pt x="480" y="486" on="1"/>
        <pt x="561" y="489" on="1"/>
        <pt x="578" y="489" on="0"/>
        <pt x="578" y="459" on="1"/>
        <pt x="514" y="444" on="1"/>
        <pt x="514" y="45" on="1"/>
        <pt x="578" y="31" on="1"/>
        <pt x="578" y="0" on="0"/>
        <pt x="561" y="0" on="1"/>
        <pt x="480" y="6" on="1"/>
        <pt x="397" y="0" on="1"/>
        <pt x="379" y="0" on="0"/>
        <pt x="379" y="31" on="1"/>
        <pt x="446" y="45" on="1"/>
        <pt x="438" y="232" on="1"/>
        <pt x="194" y="222" on="1"/>
        <pt x="187" y="45" on="1"/>
        <pt x="254" y="31" on="1"/>
        <pt x="254" y="0" on="0"/>
        <pt x="237" y="0" on="1"/>
        <pt x="156" y="6" on="1"/>
        <pt x="73" y="0" on="1"/>
        <pt x="55" y="0" on="0"/>
        <pt x="55" y="31" on="1"/>
        <pt x="119" y="45" on="1"/>
        <pt x="119" y="444" on="1"/>
        <pt x="55" y="458" on="1"/>
        <pt x="55" y="489" on="0"/>
        <pt x="73" y="489" on="1"/>
        <pt x="88" y="489" on="0"/>
        <pt x="156" y="486" on="1"/>
        <pt x="237" y="489" on="1"/>
        <pt x="254" y="489" on="0"/>
        <pt x="254" y="459" on="1"/>
        <pt x="187" y="444" on="1"/>
        <pt x="195" y="274" on="1"/>
        <pt x="438" y="274" on="1"/>
      </contour>
    </TTGlyph>
    <TTGlyph name="hungarumlaut" xMin="50" yMin="518" xMax="424" yMax="680">
      <contour>
        <pt x="61" y="518" on="1"/>
        <pt x="50" y="537" on="1"/>
        <pt x="137" y="593" on="0"/>
        <pt x="232" y="680" on="1"/>
        <pt x="237" y="674" on="0"/>
        <pt x="257" y="626" on="0"/>
        <pt x="257" y="604" on="0"/>
        <pt x="252" y="601" on="1"/>
        <pt x="170" y="548" on="0"/>
      </contour>
      <contour>
        <pt x="228" y="518" on="1"/>
        <pt x="217" y="537" on="1"/>
        <pt x="304" y="593" on="0"/>
        <pt x="399" y="680" on="1"/>
        <pt x="404" y="674" on="0"/>
        <pt x="424" y="626" on="0"/>
        <pt x="424" y="604" on="0"/>
        <pt x="419" y="601" on="1"/>
        <pt x="337" y="548" on="0"/>
      </contour>
    </TTGlyph>
    <TTGlyph name="hyphen" xMin="50" yMin="220" xMax="340" yMax="279">
      <contour>
        <pt x="333" y="279" on="1"/>
        <pt x="340" y="246" on="1"/>
        <pt x="287" y="220" on="0"/>
        <pt x="167" y="220" on="1"/>
        <pt x="105" y="220" on="0"/>
        <pt x="55" y="229" on="1"/>
        <pt x="50" y="279" on="1"/>
      </contour>
    </TTGlyph>
    <TTGlyph name="i" xMin="55" yMin="0" xMax="254" yMax="489">
      <contour>
        <pt x="119" y="444" on="1"/>
        <pt x="55" y="458" on="1"/>
        <pt x="55" y="489" on="0"/>
        <pt x="73" y="489" on="1"/>
        <pt x="88" y="489" on="0"/>
        <pt x="156" y="486" on="1"/>
        <pt x="237" y="489" on="1"/>
        <pt x="254" y="489" on="0"/>
        <pt x="254" y="459" on="1"/>
        <pt x="190" y="444" on="1"/>
        <pt x="190" y="45" on="1"/>
        <pt x="254" y="31" on="1"/>
        <pt x="254" y="0" on="0"/>
        <pt x="237" y="0" on="1"/>
        <pt x="156" y="6" on="1"/>
        <pt x="73" y="0" on="1"/>
        <pt x="55" y="0" on="0"/>
        <pt x="55" y="31" on="1"/>
        <pt x="119" y="45" on="1"/>
      </contour>
    </TTGlyph>
    <TTGlyph name="iacute" xMin="48" yMin="0" xMax="265" yMax="680">
      <contour>
        <pt x="59" y="518" on="1"/>
        <pt x="48" y="537" on="1"/>
        <pt x="145" y="603" on="0"/>
        <pt x="240" y="680" on="1"/>
        <pt x="245" y="674" on="0"/>
        <pt x="265" y="626" on="0"/>
        <pt x="265" y="604" on="0"/>
        <pt x="260" y="601" on="1"/>
        <pt x="185" y="553" on="0"/>
      </contour>
      <contour>
        <pt x="119" y="444" on="1"/>
        <pt x="55" y="458" on="1"/>
        <pt x="55" y="489" on="0"/>
        <pt x="73" y="489" on="1"/>
        <pt x="88" y="489" on="0"/>
        <pt x="156" y="486" on="1"/>
        <pt x="237" y="489" on="1"/>
        <pt x="254" y="489" on="0"/>
        <pt x="254" y="459" on="1"/>
        <pt x="190" y="444" on="1"/>
        <pt x="190" y="45" on="1"/>
        <pt x="254" y="31" on="1"/>
        <pt x="254" y="0" on="0"/>
        <pt x="237" y="0" on="1"/>
        <pt x="156" y="6" on="1"/>
        <pt x="73" y="0" on="1"/>
        <pt x="55" y="0" on="0"/>
        <pt x="55" y="31" on="1"/>
        <pt x="119" y="45" on="1"/>
      </contour>
    </TTGlyph>
    <TTGlyph name="icircumflex" xMin="34" yMin="0" xMax="279" yMax="685">
      <contour>
        <pt x="157" y="611" on="1"/>
        <pt x="60" y="509" on="1"/>
        <pt x="34" y="526" on="1"/>
        <pt x="98" y="617" on="0"/>
        <pt x="134" y="685" on="1"/>
        <pt x="179" y="685" on="1"/>
        <pt x="215" y="617" on="0"/>
        <pt x="279" y="526" on="1"/>
        <pt x="253" y="509" on="1"/>
      </contour>
      <contour>
        <pt x="119" y="444" on="1"/>
        <pt x="55" y="458" on="1"/>
        <pt x="55" y="489" on="0"/>
        <pt x="73" y="489" on="1"/>
        <pt x="88" y="489" on="0"/>
        <pt x="156" y="486" on="1"/>
        <pt x="237" y="489" on="1"/>
        <pt x="254" y="489" on="0"/>
        <pt x="254" y="459" on="1"/>
        <pt x="190" y="444" on="1"/>
        <pt x="190" y="45" on="1"/>
        <pt x="254" y="31" on="1"/>
        <pt x="254" y="0" on="0"/>
        <pt x="237" y="0" on="1"/>
        <pt x="156" y="6" on="1"/>
        <pt x="73" y="0" on="1"/>
        <pt x="55" y="0" on="0"/>
        <pt x="55" y="31" on="1"/>
        <pt x="119" y="45" on="1"/>
      </contour>
    </TTGlyph>
    <TTGlyph name="idieresis" xMin="39" yMin="0" xMax="274" yMax="659">
      <contour>
        <pt x="95" y="659" on="1"/>
        <pt x="126" y="659" on="0"/>
        <pt x="126" y="606" on="1"/>
        <pt x="126" y="571" on="0"/>
        <pt x="120" y="553" on="1"/>
        <pt x="88" y="544" on="0"/>
        <pt x="71" y="544" on="1"/>
        <pt x="39" y="544" on="0"/>
        <pt x="39" y="596" on="1"/>
        <pt x="39" y="631" on="0"/>
        <pt x="46" y="652" on="1"/>
        <pt x="79" y="659" on="0"/>
      </contour>
      <contour>
        <pt x="243" y="659" on="1"/>
        <pt x="274" y="659" on="0"/>
        <pt x="274" y="606" on="1"/>
        <pt x="274" y="571" on="0"/>
        <pt x="268" y="553" on="1"/>
        <pt x="236" y="544" on="0"/>
        <pt x="219" y="544" on="1"/>
        <pt x="187" y="544" on="0"/>
        <pt x="187" y="596" on="1"/>
        <pt x="187" y="631" on="0"/>
        <pt x="194" y="652" on="1"/>
        <pt x="227" y="659" on="0"/>
      </contour>
      <contour>
        <pt x="119" y="444" on="1"/>
        <pt x="55" y="458" on="1"/>
        <pt x="55" y="489" on="0"/>
        <pt x="73" y="489" on="1"/>
        <pt x="88" y="489" on="0"/>
        <pt x="156" y="486" on="1"/>
        <pt x="237" y="489" on="1"/>
        <pt x="254" y="489" on="0"/>
        <pt x="254" y="459" on="1"/>
        <pt x="190" y="444" on="1"/>
        <pt x="190" y="45" on="1"/>
        <pt x="254" y="31" on="1"/>
        <pt x="254" y="0" on="0"/>
        <pt x="237" y="0" on="1"/>
        <pt x="156" y="6" on="1"/>
        <pt x="73" y="0" on="1"/>
        <pt x="55" y="0" on="0"/>
        <pt x="55" y="31" on="1"/>
        <pt x="119" y="45" on="1"/>
      </contour>
    </TTGlyph>
    <TTGlyph name="igrave" xMin="48" yMin="0" xMax="265" yMax="680">
      <contour>
        <pt x="265" y="537" on="1"/>
        <pt x="254" y="518" on="1"/>
        <pt x="128" y="553" on="0"/>
        <pt x="53" y="601" on="1"/>
        <pt x="48" y="604" on="0"/>
        <pt x="48" y="626" on="0"/>
        <pt x="68" y="674" on="0"/>
        <pt x="73" y="680" on="1"/>
        <pt x="165" y="605" on="0"/>
        <pt x="238" y="556" on="1"/>
      </contour>
      <contour>
        <pt x="119" y="444" on="1"/>
        <pt x="55" y="458" on="1"/>
        <pt x="55" y="489" on="0"/>
        <pt x="73" y="489" on="1"/>
        <pt x="88" y="489" on="0"/>
        <pt x="156" y="486" on="1"/>
        <pt x="237" y="489" on="1"/>
        <pt x="254" y="489" on="0"/>
        <pt x="254" y="459" on="1"/>
        <pt x="190" y="444" on="1"/>
        <pt x="190" y="45" on="1"/>
        <pt x="254" y="31" on="1"/>
        <pt x="254" y="0" on="0"/>
        <pt x="237" y="0" on="1"/>
        <pt x="156" y="6" on="1"/>
        <pt x="73" y="0" on="1"/>
        <pt x="55" y="0" on="0"/>
        <pt x="55" y="31" on="1"/>
        <pt x="119" y="45" on="1"/>
      </contour>
    </TTGlyph>
    <TTGlyph name="infinity" xMin="50" yMin="100" xMax="698" yMax="454">
      <contour>
        <pt x="544" y="100" on="1"/>
        <pt x="494" y="100" on="0"/>
        <pt x="418" y="161" on="0"/>
        <pt x="379" y="216" on="1"/>
        <pt x="373" y="206" on="1"/>
        <pt x="306" y="100" on="0"/>
        <pt x="201" y="100" on="1"/>
        <pt x="137" y="100" on="0"/>
        <pt x="50" y="197" on="0"/>
        <pt x="50" y="356" on="0"/>
        <pt x="138" y="454" on="0"/>
        <pt x="204" y="454" on="1"/>
        <pt x="254" y="454" on="0"/>
        <pt x="330" y="394" on="0"/>
        <pt x="369" y="339" on="1"/>
        <pt x="375" y="348" on="1"/>
        <pt x="442" y="454" on="0"/>
        <pt x="547" y="454" on="1"/>
        <pt x="611" y="454" on="0"/>
        <pt x="698" y="357" on="0"/>
        <pt x="698" y="198" on="0"/>
        <pt x="610" y="100" on="0"/>
      </contour>
      <contour>
        <pt x="201" y="175" on="1"/>
        <pt x="265" y="175" on="0"/>
        <pt x="318" y="259" on="1"/>
        <pt x="333" y="283" on="1"/>
        <pt x="300" y="329" on="0"/>
        <pt x="239" y="378" on="0"/>
        <pt x="156" y="378" on="0"/>
        <pt x="99" y="324" on="0"/>
        <pt x="99" y="233" on="0"/>
        <pt x="156" y="175" on="0"/>
      </contour>
      <contour>
        <pt x="547" y="379" on="1"/>
        <pt x="483" y="379" on="0"/>
        <pt x="430" y="295" on="1"/>
        <pt x="415" y="272" on="1"/>
        <pt x="448" y="225" on="0"/>
        <pt x="509" y="176" on="0"/>
        <pt x="592" y="176" on="0"/>
        <pt x="649" y="230" on="0"/>
        <pt x="649" y="321" on="0"/>
        <pt x="592" y="379" on="0"/>
      </contour>
    </TTGlyph>
    <TTGlyph name="integral" xMin="50" yMin="-126" xMax="299" yMax="752">
      <contour>
        <pt x="212" y="508" on="1"/>
        <pt x="212" y="90" on="1"/>
        <pt x="212" y="23" on="0"/>
        <pt x="152" y="-66" on="0"/>
        <pt x="74" y="-126" on="1"/>
        <pt x="50" y="-97" on="1"/>
        <pt x="100" y="-51" on="0"/>
        <pt x="137" y="49" on="0"/>
        <pt x="137" y="118" on="1"/>
        <pt x="137" y="536" on="1"/>
        <pt x="137" y="603" on="0"/>
        <pt x="197" y="692" on="0"/>
        <pt x="275" y="752" on="1"/>
        <pt x="299" y="723" on="1"/>
        <pt x="249" y="677" on="0"/>
        <pt x="212" y="577" on="0"/>
      </contour>
    </TTGlyph>
    <TTGlyph name="j" xMin="7" yMin="-141" xMax="244" yMax="489">
      <contour>
        <pt x="109" y="443" on="1"/>
        <pt x="30" y="458" on="1"/>
        <pt x="30" y="489" on="0"/>
        <pt x="48" y="489" on="1"/>
        <pt x="74" y="489" on="0"/>
        <pt x="142" y="486" on="1"/>
        <pt x="226" y="489" on="1"/>
        <pt x="244" y="489" on="0"/>
        <pt x="244" y="457" on="1"/>
        <pt x="180" y="443" on="1"/>
        <pt x="180" y="133" on="1"/>
        <pt x="180" y="4" on="0"/>
        <pt x="38" y="-141" on="1"/>
        <pt x="7" y="-120" on="1"/>
        <pt x="109" y="6" on="0"/>
        <pt x="109" y="114" on="1"/>
      </contour>
    </TTGlyph>
    <TTGlyph name="k" xMin="48" yMin="-21" xMax="471" yMax="489">
      <contour>
        <pt x="112" y="444" on="1"/>
        <pt x="48" y="458" on="1"/>
        <pt x="48" y="489" on="0"/>
        <pt x="66" y="489" on="1"/>
        <pt x="81" y="489" on="0"/>
        <pt x="149" y="486" on="1"/>
        <pt x="220" y="489" on="1"/>
        <pt x="237" y="489" on="0"/>
        <pt x="237" y="459" on="1"/>
        <pt x="180" y="444" on="1"/>
        <pt x="188" y="265" on="1"/>
        <pt x="259" y="265" on="1"/>
        <pt x="358" y="445" on="1"/>
        <pt x="316" y="458" on="1"/>
        <pt x="316" y="489" on="0"/>
        <pt x="333" y="489" on="1"/>
        <pt x="383" y="486" on="1"/>
        <pt x="452" y="489" on="1"/>
        <pt x="469" y="489" on="0"/>
        <pt x="469" y="459" on="1"/>
        <pt x="418" y="443" on="1"/>
        <pt x="306" y="253" on="1"/>
        <pt x="471" y="-6" on="1"/>
        <pt x="421" y="-21" on="1"/>
        <pt x="245" y="228" on="1"/>
        <pt x="187" y="221" on="1"/>
        <pt x="180" y="45" on="1"/>
        <pt x="256" y="31" on="1"/>
        <pt x="256" y="0" on="0"/>
        <pt x="239" y="0" on="1"/>
        <pt x="149" y="6" on="1"/>
        <pt x="66" y="0" on="1"/>
        <pt x="48" y="0" on="0"/>
        <pt x="48" y="31" on="1"/>
        <pt x="112" y="45" on="1"/>
      </contour>
    </TTGlyph>
    <TTGlyph name="l" xMin="55" yMin="0" xMax="410" yMax="489">
      <contour>
        <pt x="376" y="0" on="1"/>
        <pt x="156" y="6" on="1"/>
        <pt x="73" y="0" on="1"/>
        <pt x="55" y="0" on="0"/>
        <pt x="55" y="31" on="1"/>
        <pt x="119" y="45" on="1"/>
        <pt x="119" y="444" on="1"/>
        <pt x="55" y="458" on="1"/>
        <pt x="55" y="489" on="0"/>
        <pt x="73" y="489" on="1"/>
        <pt x="156" y="486" on="1"/>
        <pt x="237" y="489" on="1"/>
        <pt x="254" y="489" on="0"/>
        <pt x="254" y="459" on="1"/>
        <pt x="190" y="444" on="1"/>
        <pt x="190" y="49" on="1"/>
        <pt x="351" y="49" on="1"/>
        <pt x="368" y="106" on="1"/>
        <pt x="371" y="117" on="0"/>
        <pt x="388" y="123" on="0"/>
        <pt x="410" y="123" on="1"/>
        <pt x="404" y="12" on="1"/>
        <pt x="402" y="0" on="0"/>
      </contour>
    </TTGlyph>
    <TTGlyph name="less" xMin="73" yMin="87" xMax="437" yMax="468">
      <contour>
        <pt x="437" y="147" on="1"/>
        <pt x="437" y="87" on="1"/>
        <pt x="73" y="249" on="1"/>
        <pt x="73" y="306" on="1"/>
        <pt x="437" y="468" on="1"/>
        <pt x="437" y="408" on="1"/>
        <pt x="138" y="277" on="1"/>
      </contour>
    </TTGlyph>
    <TTGlyph name="lessequal" xMin="73" yMin="0" xMax="437" yMax="468">
      <contour>
        <pt x="437" y="147" on="1"/>
        <pt x="437" y="87" on="1"/>
        <pt x="73" y="249" on="1"/>
        <pt x="73" y="306" on="1"/>
        <pt x="437" y="468" on="1"/>
        <pt x="437" y="408" on="1"/>
        <pt x="138" y="277" on="1"/>
      </contour>
      <contour>
        <pt x="73" y="0" on="1"/>
        <pt x="73" y="57" on="1"/>
        <pt x="437" y="57" on="1"/>
        <pt x="437" y="0" on="1"/>
      </contour>
    </TTGlyph>
    <TTGlyph name="logicalnot" xMin="73" yMin="137" xMax="437" yMax="306">
      <contour>
        <pt x="437" y="137" on="1"/>
        <pt x="383" y="137" on="1"/>
        <pt x="383" y="306" on="1"/>
        <pt x="437" y="306" on="1"/>
      </contour>
      <contour>
        <pt x="73" y="249" on="1"/>
        <pt x="73" y="306" on="1"/>
        <pt x="437" y="306" on="1"/>
        <pt x="437" y="249" on="1"/>
      </contour>
    </TTGlyph>
    <TTGlyph name="lozenge" xMin="20" yMin="-79" xMax="518" yMax="700">
      <contour>
        <pt x="307" y="-79" on="1"/>
        <pt x="230" y="-79" on="1"/>
        <pt x="20" y="310" on="1"/>
        <pt x="230" y="700" on="1"/>
        <pt x="307" y="700" on="1"/>
        <pt x="518" y="310" on="1"/>
      </contour>
      <contour>
        <pt x="255" y="640" on="1"/>
        <pt x="82" y="310" on="1"/>
        <pt x="255" y="-19" on="1"/>
        <pt x="435" y="310" on="1"/>
      </contour>
    </TTGlyph>
    <TTGlyph name="lslash" xMin="29" yMin="0" xMax="410" yMax="489">
      <contour>
        <pt x="53" y="168" on="1"/>
        <pt x="29" y="215" on="1"/>
        <pt x="272" y="339" on="1"/>
        <pt x="290" y="304" on="1"/>
      </contour>
      <contour>
        <pt x="376" y="0" on="1"/>
        <pt x="156" y="6" on="1"/>
        <pt x="73" y="0" on="1"/>
        <pt x="55" y="0" on="0"/>
        <pt x="55" y="31" on="1"/>
        <pt x="119" y="45" on="1"/>
        <pt x="119" y="444" on="1"/>
        <pt x="55" y="458" on="1"/>
        <pt x="55" y="489" on="0"/>
        <pt x="73" y="489" on="1"/>
        <pt x="156" y="486" on="1"/>
        <pt x="237" y="489" on="1"/>
        <pt x="254" y="489" on="0"/>
        <pt x="254" y="459" on="1"/>
        <pt x="190" y="444" on="1"/>
        <pt x="190" y="49" on="1"/>
        <pt x="351" y="49" on="1"/>
        <pt x="368" y="106" on="1"/>
        <pt x="371" y="117" on="0"/>
        <pt x="388" y="123" on="0"/>
        <pt x="410" y="123" on="1"/>
        <pt x="404" y="12" on="1"/>
        <pt x="402" y="0" on="0"/>
      </contour>
    </TTGlyph>
    <TTGlyph name="m" xMin="50" yMin="0" xMax="691" yMax="489">
      <contour>
        <pt x="91" y="489" on="1"/>
        <pt x="218" y="483" on="1"/>
        <pt x="366" y="146" on="1"/>
        <pt x="530" y="483" on="1"/>
        <pt x="649" y="489" on="1"/>
        <pt x="657" y="489" on="0"/>
        <pt x="666" y="468" on="0"/>
        <pt x="666" y="457" on="1"/>
        <pt x="603" y="442" on="1"/>
        <pt x="627" y="45" on="1"/>
        <pt x="635" y="43" on="0"/>
        <pt x="683" y="34" on="0"/>
        <pt x="691" y="31" on="1"/>
        <pt x="691" y="0" on="0"/>
        <pt x="674" y="0" on="1"/>
        <pt x="589" y="6" on="1"/>
        <pt x="506" y="0" on="1"/>
        <pt x="488" y="0" on="0"/>
        <pt x="488" y="31" on="1"/>
        <pt x="558" y="46" on="1"/>
        <pt x="543" y="389" on="1"/>
        <pt x="369" y="34" on="1"/>
        <pt x="346" y="34" on="1"/>
        <pt x="187" y="382" on="1"/>
        <pt x="174" y="45" on="1"/>
        <pt x="179" y="44" on="0"/>
        <pt x="243" y="31" on="1"/>
        <pt x="243" y="0" on="0"/>
        <pt x="224" y="0" on="1"/>
        <pt x="142" y="6" on="1"/>
        <pt x="67" y="0" on="1"/>
        <pt x="50" y="0" on="0"/>
        <pt x="50" y="31" on="1"/>
        <pt x="114" y="45" on="1"/>
        <pt x="118" y="112" on="0"/>
        <pt x="133" y="376" on="0"/>
        <pt x="137" y="443" on="1"/>
        <pt x="74" y="457" on="1"/>
        <pt x="74" y="489" on="0"/>
      </contour>
    </TTGlyph>
    <TTGlyph name="macron" xMin="70" yMin="570" xMax="351" yMax="633">
      <contour>
        <pt x="70" y="570" on="1"/>
        <pt x="70" y="633" on="1"/>
        <pt x="351" y="633" on="1"/>
        <pt x="351" y="570" on="1"/>
      </contour>
    </TTGlyph>
    <TTGlyph name="minus" xMin="73" yMin="249" xMax="437" yMax="306">
      <contour>
        <pt x="73" y="249" on="1"/>
        <pt x="73" y="306" on="1"/>
        <pt x="437" y="306" on="1"/>
        <pt x="437" y="249" on="1"/>
      </contour>
    </TTGlyph>
    <TTGlyph name="mu" xMin="10" yMin="-199" xMax="459" yMax="468">
      <contour>
        <pt x="138" y="-199" on="1"/>
        <pt x="73" y="-199" on="1"/>
        <pt x="73" y="410" on="1"/>
        <pt x="24" y="410" on="1"/>
        <pt x="10" y="410" on="0"/>
        <pt x="10" y="447" on="1"/>
        <pt x="10" y="449" on="0"/>
        <pt x="121" y="468" on="0"/>
        <pt x="128" y="468" on="1"/>
        <pt x="144" y="459" on="0"/>
        <pt x="144" y="440" on="1"/>
        <pt x="144" y="144" on="1"/>
        <pt x="144" y="47" on="0"/>
        <pt x="230" y="47" on="1"/>
        <pt x="296" y="47" on="0"/>
        <pt x="365" y="97" on="1"/>
        <pt x="365" y="410" on="1"/>
        <pt x="294" y="410" on="1"/>
        <pt x="280" y="410" on="0"/>
        <pt x="280" y="447" on="1"/>
        <pt x="280" y="449" on="0"/>
        <pt x="413" y="468" on="0"/>
        <pt x="420" y="468" on="1"/>
        <pt x="436" y="459" on="0"/>
        <pt x="436" y="440" on="1"/>
        <pt x="436" y="67" on="1"/>
        <pt x="436" y="32" on="0"/>
        <pt x="459" y="19" on="1"/>
        <pt x="447" y="-12" on="1"/>
        <pt x="378" y="-12" on="0"/>
        <pt x="367" y="52" on="1"/>
        <pt x="301" y="9" on="0"/>
        <pt x="252" y="-6" on="1"/>
        <pt x="235" y="-12" on="0"/>
        <pt x="230" y="-12" on="1"/>
        <pt x="168" y="-12" on="0"/>
        <pt x="128" y="15" on="1"/>
      </contour>
    </TTGlyph>
    <TTGlyph name="multiply" xMin="92" yMin="115" xMax="417" yMax="440">
      <contour>
        <pt x="132" y="115" on="1"/>
        <pt x="92" y="155" on="1"/>
        <pt x="214" y="277" on="1"/>
        <pt x="92" y="400" on="1"/>
        <pt x="132" y="440" on="1"/>
        <pt x="254" y="317" on="1"/>
        <pt x="377" y="440" on="1"/>
        <pt x="417" y="400" on="1"/>
        <pt x="294" y="277" on="1"/>
        <pt x="417" y="155" on="1"/>
        <pt x="377" y="115" on="1"/>
        <pt x="254" y="237" on="1"/>
      </contour>
    </TTGlyph>
    <TTGlyph name="n" xMin="50" yMin="0" xMax="581" yMax="489">
      <contour>
        <pt x="402" y="489" on="1"/>
        <pt x="496" y="486" on="1"/>
        <pt x="564" y="489" on="1"/>
        <pt x="581" y="487" on="0"/>
        <pt x="581" y="458" on="1"/>
        <pt x="524" y="443" on="1"/>
        <pt x="521" y="0" on="1"/>
        <pt x="476" y="0" on="1"/>
        <pt x="166" y="385" on="1"/>
        <pt x="167" y="329" on="0"/>
        <pt x="173" y="102" on="0"/>
        <pt x="174" y="45" on="1"/>
        <pt x="199" y="39" on="0"/>
        <pt x="253" y="31" on="1"/>
        <pt x="253" y="0" on="0"/>
        <pt x="235" y="0" on="1"/>
        <pt x="143" y="6" on="1"/>
        <pt x="68" y="0" on="1"/>
        <pt x="50" y="0" on="0"/>
        <pt x="50" y="31" on="1"/>
        <pt x="116" y="46" on="1"/>
        <pt x="113" y="443" on="1"/>
        <pt x="50" y="457" on="1"/>
        <pt x="50" y="489" on="0"/>
        <pt x="68" y="489" on="1"/>
        <pt x="82" y="489" on="0"/>
        <pt x="173" y="486" on="1"/>
        <pt x="470" y="110" on="1"/>
        <pt x="464" y="443" on="1"/>
        <pt x="385" y="457" on="1"/>
        <pt x="385" y="489" on="0"/>
      </contour>
    </TTGlyph>
    <TTGlyph name="nine" xMin="48" yMin="-133" xMax="468" yMax="563">
      <contour>
        <pt x="102" y="-97" on="1"/>
        <pt x="309" y="58" on="0"/>
        <pt x="358" y="198" on="1"/>
        <pt x="251" y="198" on="1"/>
        <pt x="164" y="198" on="0"/>
        <pt x="48" y="291" on="0"/>
        <pt x="48" y="460" on="0"/>
        <pt x="172" y="563" on="0"/>
        <pt x="342" y="563" on="0"/>
        <pt x="468" y="442" on="0"/>
        <pt x="468" y="326" on="1"/>
        <pt x="468" y="113" on="0"/>
        <pt x="234" y="-62" on="1"/>
        <pt x="190" y="-95" on="0"/>
        <pt x="132" y="-133" on="1"/>
      </contour>
      <contour>
        <pt x="133" y="377" on="1"/>
        <pt x="133" y="240" on="0"/>
        <pt x="267" y="240" on="1"/>
        <pt x="315" y="240" on="0"/>
        <pt x="373" y="257" on="1"/>
        <pt x="378" y="290" on="0"/>
        <pt x="378" y="317" on="1"/>
        <pt x="378" y="409" on="0"/>
        <pt x="315" y="512" on="0"/>
        <pt x="203" y="512" on="0"/>
        <pt x="133" y="441" on="0"/>
      </contour>
    </TTGlyph>
    <TTGlyph name="notequal" xMin="73" yMin="-35" xMax="437" yMax="581">
      <contour>
        <pt x="73" y="330" on="1"/>
        <pt x="73" y="387" on="1"/>
        <pt x="437" y="387" on="1"/>
        <pt x="437" y="330" on="1"/>
      </contour>
      <contour>
        <pt x="73" y="168" on="1"/>
        <pt x="73" y="225" on="1"/>
        <pt x="437" y="225" on="1"/>
        <pt x="437" y="168" on="1"/>
      </contour>
      <contour>
        <pt x="106" y="-35" on="1"/>
        <pt x="362" y="581" on="1"/>
        <pt x="403" y="581" on="1"/>
        <pt x="147" y="-35" on="1"/>
      </contour>
    </TTGlyph>
    <TTGlyph name="ntilde" xMin="50" yMin="0" xMax="581" yMax="651">
      <contour>
        <pt x="456" y="651" on="1"/>
        <pt x="473" y="632" on="1"/>
        <pt x="430" y="557" on="0"/>
        <pt x="372" y="557" on="1"/>
        <pt x="348" y="557" on="0"/>
        <pt x="259" y="584" on="0"/>
        <pt x="206" y="584" on="0"/>
        <pt x="174" y="554" on="1"/>
        <pt x="157" y="573" on="1"/>
        <pt x="200" y="648" on="0"/>
        <pt x="258" y="648" on="1"/>
        <pt x="282" y="648" on="0"/>
        <pt x="371" y="621" on="0"/>
        <pt x="424" y="621" on="0"/>
      </contour>
      <contour>
        <pt x="402" y="489" on="1"/>
        <pt x="496" y="486" on="1"/>
        <pt x="564" y="489" on="1"/>
        <pt x="581" y="487" on="0"/>
        <pt x="581" y="458" on="1"/>
        <pt x="524" y="443" on="1"/>
        <pt x="521" y="0" on="1"/>
        <pt x="476" y="0" on="1"/>
        <pt x="166" y="385" on="1"/>
        <pt x="167" y="329" on="0"/>
        <pt x="173" y="102" on="0"/>
        <pt x="174" y="45" on="1"/>
        <pt x="199" y="39" on="0"/>
        <pt x="253" y="31" on="1"/>
        <pt x="253" y="0" on="0"/>
        <pt x="235" y="0" on="1"/>
        <pt x="143" y="6" on="1"/>
        <pt x="68" y="0" on="1"/>
        <pt x="50" y="0" on="0"/>
        <pt x="50" y="31" on="1"/>
        <pt x="116" y="46" on="1"/>
        <pt x="113" y="443" on="1"/>
        <pt x="50" y="457" on="1"/>
        <pt x="50" y="489" on="0"/>
        <pt x="68" y="489" on="1"/>
        <pt x="82" y="489" on="0"/>
        <pt x="173" y="486" on="1"/>
        <pt x="470" y="110" on="1"/>
        <pt x="464" y="443" on="1"/>
        <pt x="385" y="457" on="1"/>
        <pt x="385" y="489" on="0"/>
      </contour>
    </TTGlyph>
    <TTGlyph name="numbersign" xMin="2" yMin="0" xMax="508" yMax="554">
      <contour>
        <pt x="48" y="330" on="1"/>
        <pt x="68" y="387" on="1"/>
        <pt x="182" y="387" on="1"/>
        <pt x="241" y="554" on="1"/>
        <pt x="298" y="554" on="1"/>
        <pt x="239" y="387" on="1"/>
        <pt x="344" y="387" on="1"/>
        <pt x="403" y="554" on="1"/>
        <pt x="460" y="554" on="1"/>
        <pt x="401" y="387" on="1"/>
        <pt x="508" y="387" on="1"/>
        <pt x="488" y="330" on="1"/>
        <pt x="381" y="330" on="1"/>
        <pt x="345" y="225" on="1"/>
        <pt x="462" y="225" on="1"/>
        <pt x="442" y="168" on="1"/>
        <pt x="325" y="168" on="1"/>
        <pt x="266" y="0" on="1"/>
        <pt x="209" y="0" on="1"/>
        <pt x="268" y="168" on="1"/>
        <pt x="163" y="168" on="1"/>
        <pt x="104" y="0" on="1"/>
        <pt x="47" y="0" on="1"/>
        <pt x="106" y="168" on="1"/>
        <pt x="2" y="168" on="1"/>
        <pt x="22" y="225" on="1"/>
        <pt x="126" y="225" on="1"/>
        <pt x="162" y="330" on="1"/>
      </contour>
      <contour>
        <pt x="219" y="330" on="1"/>
        <pt x="183" y="225" on="1"/>
        <pt x="288" y="225" on="1"/>
        <pt x="324" y="330" on="1"/>
      </contour>
    </TTGlyph>
    <TTGlyph name="o" xMin="35" yMin="-8" xMax="537" yMax="497">
      <contour>
        <pt x="397" y="497" on="0"/>
        <pt x="537" y="371" on="0"/>
        <pt x="537" y="125" on="0"/>
        <pt x="396" y="-8" on="0"/>
        <pt x="170" y="-8" on="0"/>
        <pt x="35" y="123" on="0"/>
        <pt x="35" y="366" on="0"/>
        <pt x="179" y="497" on="0"/>
      </contour>
      <contour>
        <pt x="113" y="246" on="1"/>
        <pt x="113" y="144" on="0"/>
        <pt x="209" y="36" on="0"/>
        <pt x="363" y="36" on="0"/>
        <pt x="459" y="144" on="0"/>
        <pt x="459" y="344" on="0"/>
        <pt x="363" y="449" on="0"/>
        <pt x="286" y="449" on="1"/>
        <pt x="236" y="449" on="0"/>
        <pt x="184" y="434" on="1"/>
        <pt x="152" y="410" on="0"/>
        <pt x="113" y="309" on="0"/>
      </contour>
    </TTGlyph>
</ttFont>
